<svg viewBox="0 0 146.49 166.8" xmlns="http://www.w3.org/2000/svg" xmlns:xlink="http://www.w3.org/1999/xlink"><linearGradient id="a" gradientTransform="translate(0 -1070)" gradientUnits="userSpaceOnUse" x1="-5.84" x2="68.15" y1="1225.89" y2="1225.22"><stop offset="0" stop-color="#f8d459"/><stop offset="1" stop-color="#e8b21c"/></linearGradient><linearGradient id="b" x1="-5.84" x2="68.15" xlink:href="#a" y1="1226.12" y2="1225.45"/><linearGradient id="c" x1="-5.81" x2="68.15" xlink:href="#a" y1="1226.17" y2="1225.5"/><linearGradient id="d" x1="-5.81" x2="68.16" xlink:href="#a" y1="1226.57" y2="1225.9"/><linearGradient id="e" gradientTransform="translate(0 -1070)" gradientUnits="userSpaceOnUse" x1="154.3" x2="98.81" y1="1225.09" y2="1225.77"><stop offset="0" stop-color="#1c5287"/><stop offset="1" stop-color="#1b65af"/></linearGradient><linearGradient id="f" x1="154.32" x2="98.83" xlink:href="#e" y1="1225.24" y2="1225.92"/><linearGradient id="g" gradientUnits="userSpaceOnUse" x1="78.61" x2="76.62" y1="56.09" y2="72.77"><stop offset="0" stop-color="#fff"/><stop offset="1" stop-color="#f5f5f5"/></linearGradient><linearGradient id="h" x1="93.17" x2="67.33" xlink:href="#a" y1="93.81" y2="10.44"/><linearGradient id="i" x1="39.92" x2="104.4" xlink:href="#e" y1="58.12" y2="58.12"/><path d="m0 166.05v-20.45a.54.54 0 0 1 .5-.5h8.73a6.7 6.7 0 0 1 6.77 6.73v.25a6.67 6.67 0 0 1 -6.23 7h-4.53v6.73c0 .75-1.25.75-2.75.75s-2.49-.01-2.49-.51zm10.47-14a1.92 1.92 0 0 0 -1.74-2h-3.49v4h3.24a2 2 0 0 0 1.99-1.97z" fill="url(#a)"/><path d="m19 166.05v-20.45a.54.54 0 0 1 .5-.5h8.73a6.7 6.7 0 0 1 6.73 6.73v.25a6.8 6.8 0 0 1 -3 6l4.24 7.73v.25c0 .5-1.25.5-2.49.5s-2.75 0-3-.5l-3.49-7h-3v6.73c0 .5-1.25.5-2.74.5s-2.48.26-2.48-.24zm10.48-14a2 2 0 0 0 -2-2h-3.29v3.74h3.24a1.65 1.65 0 0 0 2-1.71z" fill="url(#b)"/><path d="m38.9 166.05v-20.45a.87.87 0 0 1 .25-.5h14c.75 0 .75 1.25.75 2.5s0 2.49-.75 2.49h-9.26v3h7.48c1 0 1 1.25 1 2.25s0 2.24-.75 2.24h-7.48v3.74h9.23c.74 0 .74 1.25.74 2.49s0 2.5-.74 2.5h-14a.87.87 0 0 1 -.47-.26z" fill="url(#c)"/><path d="m65.59 166.55-9.73-20.7v-.25c0-.5 1.25-.5 2.74-.5s3 0 3.25.5l4.73 11.22 4.74-11.22c.25-.5 1.75-.5 3.24-.5s2.75 0 2.75.5v.25l-10 20.7c-.25.25-.5.25-1 .25s-.72 0-.72-.25z" fill="url(#d)"/><path d="m100.61 155.6a10.49 10.49 0 0 1 10.47-11h.75a11.41 11.41 0 0 1 7 2c.25.25.25.25.25.5a7.18 7.18 0 0 1 -.5 2.24c-.5 1.25-1 2.25-1.49 2.25h-.25a8.22 8.22 0 0 0 -4.74-1.5 5.54 5.54 0 0 0 -5.49 5.49 5.44 5.44 0 0 0 5.49 5.73c2.49 0 3.74-1 4.24-2.49h-4c-.5 0-.75-1-.75-2.24s0-2.25.75-2.25h9.47c.5 0 .5.75.5 1.5 0 6.23-3.24 10.72-10.22 10.72a10.35 10.35 0 0 1 -11.47-9.72z" fill="url(#e)"/><path d="m124.3 155.6a11.11 11.11 0 0 1 11-11.22 11.1 11.1 0 0 1 .25 22.19 11.12 11.12 0 0 1 -11.25-10.97zm16.46 0a5.5 5.5 0 0 0 -5.24-5.49 5.68 5.68 0 0 0 -5.49 5.24 5.37 5.37 0 1 0 10.73.25z" fill="url(#f)"/><path d="m85.05 156.34a34 34 0 0 1 -2.61 6.3 10.45 10.45 0 0 1 -2.33 3 4.39 4.39 0 0 1 -4.76.59 5 5 0 0 1 -2.19-3.33 12 12 0 0 1 0-5.61 14.17 14.17 0 0 1 1.16-3.21 6.35 6.35 0 0 1 1.9-2.58 2.47 2.47 0 0 1 3.65.83c.81 1.6 0 3.64-.89 5a18.44 18.44 0 0 1 -3.83 4 6.86 6.86 0 0 0 .85 2.77 2.25 2.25 0 0 0 .83.89 3.32 3.32 0 0 0 .32.11h.07.36.1.22a1.68 1.68 0 0 1 .3-.07l.17-.07a.75.75 0 0 0 .13-.06 3.42 3.42 0 0 0 .42-.23 7.4 7.4 0 0 0 .81-.66 11.05 11.05 0 0 0 1.92-2.8 36.68 36.68 0 0 0 2.07-5c.22-.56 1.53-.51 1.33.13zm-9.92 3.66a15.15 15.15 0 0 0 2.76-3c.76-1.18 1.79-3.61.42-4.76s-2.1 2.13-2.34 2.88a16.3 16.3 0 0 0 -.84 4.88z"/><path d="m87.24 165.62c.21 1-2 1.51-2.41.47a39.2 39.2 0 0 1 -.7-4q-.22-1.31-.42-2.61c-.13-.9-.25-1.81-.35-2.71a8.24 8.24 0 0 1 -.14-2.66 1.35 1.35 0 0 1 2.26-.19 9.2 9.2 0 0 1 .4 2.63c.07.58.15 1.17.23 1.75a29 29 0 0 1 1.16-4.94 8.13 8.13 0 0 1 1.89-3.5 3.6 3.6 0 0 1 3.61-.8 3.41 3.41 0 0 1 1.9 3 27.69 27.69 0 0 1 -.14 5.15 45.11 45.11 0 0 0 -.27 4.93c0 .74.18 4.25 1.61 3.18 1.08-.83 1.56-2.53 1.88-3.78a33.73 33.73 0 0 0 .73-5c.06-.64 1.39-.72 1.33-.12a35.67 35.67 0 0 1 -.74 5.25 9 9 0 0 1 -1.93 4 3.06 3.06 0 0 1 -3.12.81 3.19 3.19 0 0 1 -2.23-3.09c-.3-3.44.52-6.86.4-10.3 0-.88 0-2.78-1.35-2.72-1.54.08-2.11 2.63-2.46 3.77a29.15 29.15 0 0 0 -1.26 9.78s.04 1.29.12 1.7z"/><path d="m63.56 85c0-.37-.17-.73-.2-1.1a2.84 2.84 0 0 1 0-1c.06-.23.34-.62.44-.59.32.08.75 0 .93.47s.47 1 .71 1.57c.08.71.21 1.4.23 2.1a1.1 1.1 0 0 1 -.38.76c-.1.08-.49-.1-.67-.25a2.94 2.94 0 0 1 -1.06-1.96z"/><path d="m74.24 97.22a4.58 4.58 0 0 0 .68-.12c.37-.12.73-.27 1.09-.42s.48 0 .58.28 0 .5-.34.54c-1 .15-2.09.34-3.14.39a5 5 0 0 1 -1.58-.33c-.13 0-.2-.23-.3-.35.15-.08.3-.23.44-.22.7 0 1.39.13 2.08.21.11-1.06 0-1-.78-1.48a6.36 6.36 0 0 1 -1.59-1.25 1.12 1.12 0 0 1 .82-1.7 8.27 8.27 0 0 1 4.8.33c.54.25.65.55.39 1.09a2.87 2.87 0 0 1 -2.13 1.5c-.8.21-.97.16-1.02 1.53z"/><path d="m82.33 87.09c-.57-.85-.14-1.67 0-2.54l.87-2a.64.64 0 0 1 .85-.37 1.21 1.21 0 0 1 .63.48 2.67 2.67 0 0 1 -.17 2.5 12.2 12.2 0 0 1 -1.14 2.1c-.11.17-.45.23-.69.25s-.26-.28-.35-.42z"/><path d="m85.77 117.25c-1.44 2.35-7.35 1.32-8.79 3.33s3 4 3 4a20.92 20.92 0 0 1 -16.74 5.07c-1.32-3.58-1.36-12.11-1.36-12.11a13.71 13.71 0 0 0 3.72 1 2.33 2.33 0 0 0 2.51-3.15c-.61-1.94-2.8-2.91-3.59-3.93s-1-2.11.79-4.28 6.67.44 6.8.26a11.55 11.55 0 0 1 1.93-2.64c1.06-.91 4.89 1.87 6.68 2.6s-.6 3.63-.6 3.63c2.78 1.39 7.08 3.87 5.65 6.22z"/><path d="m83.59 63.73-1 8.54s-5.59-2.27-10.19-2.16h-.12c-3.4 0 1.91-6.52 4.35-9.3l.66-.75.46-.5 1.34.95.27.2z" fill="url(#g)"/><path d="m107.94 80.52c-.52 17-15.14 31.86-14.7 29.46a67.5 67.5 0 0 0 1-18c-.39-4.56-1.11-7.27-2.07-15.39-.59-4.9-.21-11.14-.4-13.83-3.66 1.51-7.11 6.27-9.19 9.55-.71-2.72-1.66-5.17-4.67-9.65v-.07l-.49-.72-.71-1c-1.41-2-3.19-4.35-5.43-7.22-2.55-3.26-5.71-7.16-9.64-11.94-.26-.32-.52-.64-.76-1-2-2.65-3.62-5.61-5.75-8.16-2-3.14-4.57-6.44-4.15-8.64a65.06 65.06 0 0 0 4.72-12.5c1.66-6.51-.18-12.41.52-11.27a144.38 144.38 0 0 0 15.58 20.66c2 2.23 3.15 3.33 4.33 4.45s2.53 2.4 5 5c2.28 2.4 4.49 4.74 6.62 7.11q1.69 1.88 3.3 3.78c.47.55.92 1.11 1.37 1.67a77.64 77.64 0 0 1 7.43 10.78c1 1.77 1.94 3.62 2.8 5.57 2.61 5.91 5.56 12.52 5.29 21.36z" fill="url(#h)"/><path d="m99.34 30.15a110.82 110.82 0 0 1 -7.21 9.36l-1.13 1.63c-2.73 4.1-5.34 8.41-7.77 12.45-1.43 2.41-2.83 4.79-4.14 6.92l-1.26 2c-.68 1.07-1.32 2.07-1.94 3-.8 1.19-3.49 4.57-3.49 4.57h-.12a20.09 20.09 0 0 0 -7.28 1.71s0 0 0 0a.25.25 0 0 0 0-.07c-.3-.84-2.87-7.55-8.5-10.29l-.29-.14.76 12.64s-.71 4.73-1.48 9.51c-.71 4.36-1.39 8.58-1.8 12a104.07 104.07 0 0 0 -.69 15.56c0 1.26-.16 1.91-.65 2.06s-.9-.08-1.52-.56c-3.11-2.41-8.59-11.86-10.33-22.52a47.18 47.18 0 0 1 2.9-25.14c1.66-4.07 3.59-7 6.85-11.25.8-1.06 1.68-2.19 2.65-3.46 2.6-3.36 5.28-6.53 7.9-9.45 5.94-6.63 11.59-12 15.33-15.43l1.72-1.57a90.3 90.3 0 0 0 11.3-11.86 84.35 84.35 0 0 0 6-8.72c.56-.94.86 3.05 1.76 6.45a23 23 0 0 0 7 11c1.69 1.56-1.36 4.76-4.57 9.6z" fill="#1b65af"/><path d="m85.77 117.25c-1.44 2.35-7.35 1.32-8.79 3.33s3 4 3 4a20.92 20.92 0 0 1 -16.74 5.07c-1.32-3.58-1.36-12.11-1.36-12.11a13.71 13.71 0 0 0 3.72 1 2.33 2.33 0 0 0 2.51-3.15c-.61-1.94-2.8-2.91-3.59-3.93s-1-2.11.79-4.28 6.67.44 6.8.26a11.55 11.55 0 0 1 1.93-2.64c1.06-.91 4.89 1.87 6.68 2.6s-.6 3.63-.6 3.63c2.78 1.39 7.08 3.87 5.65 6.22z" fill="#87c0d3"/><g fill="#0e0e0e"><path d="m77.41 94.19a2.87 2.87 0 0 1 -2.13 1.5c-.82.21-1 .16-1 1.53h-.49c.11-1.06 0-1-.78-1.48a6.36 6.36 0 0 1 -1.59-1.25 1.12 1.12 0 0 1 .82-1.7 8.27 8.27 0 0 1 4.76.31c.56.25.67.55.41 1.09z"/><path d="m84.49 85.11a12.2 12.2 0 0 1 -1.14 2.1c-.11.17-.45.23-.69.25s-.24-.23-.33-.37c-.57-.85-.14-1.67 0-2.54l.87-2a.64.64 0 0 1 .85-.37 1.21 1.21 0 0 1 .63.48 2.67 2.67 0 0 1 -.19 2.45z"/><path d="m65.71 86.44a1.1 1.1 0 0 1 -.38.76c-.1.08-.49-.1-.67-.25a2.94 2.94 0 0 1 -1.1-2c0-.37-.17-.73-.2-1.1a2.84 2.84 0 0 1 0-1c.06-.23.34-.62.44-.59.32.08.75 0 .93.47s.47 1 .71 1.57c.12.75.25 1.44.27 2.14z"/><path d="m76.25 97.5c-1 .15-2.09.34-3.14.39a5 5 0 0 1 -1.58-.33c-.13 0-.2-.23-.3-.35.15-.08.3-.23.44-.22.7 0 1.39.13 2.08.21h.49a4.58 4.58 0 0 0 .68-.12c.37-.12.73-.27 1.09-.42s.48 0 .58.28-.04.52-.34.56z"/></g><path d="m83.6 83.31a.6.6 0 0 1 .5.56.58.58 0 0 1 -.55.55.47.47 0 0 1 -.47-.47c0-.3.27-.64.52-.64z" fill="#fff"/><path d="m64.76 83.91a.57.57 0 0 1 -.59.52.51.51 0 0 1 -.46-.53.68.68 0 0 1 .56-.6.58.58 0 0 1 .49.61z" fill="#fff"/><path d="m92.4 42.81c-4.4 6.81-12.4 17.19-14.52 19.81-.17-.26-.35-.52-.54-.79l-.61-21.83a82.12 82.12 0 0 1 11-2.67c1.62 1.82 3.18 3.67 4.67 5.48z" fill="#0e0e0e" opacity=".09"/><path d="m92.4 42.81c-4.4 6.81-12.4 17.19-14.52 19.81-.17-.26-.35-.52-.54-.79l-.61-21.83a82.12 82.12 0 0 1 11-2.67c1.62 1.82 3.18 3.67 4.67 5.48z" opacity=".22"/><path d="m103.92 20.58a23 23 0 0 1 -7-11c-.9-3.4-1.2-7.39-1.76-6.45a84.35 84.35 0 0 1 -6 8.72 90.3 90.3 0 0 1 -11.3 11.86l-1.72 1.57c-3.74 3.44-9.39 8.8-15.33 15.43-2.62 2.92-5.3 6.09-7.9 9.45-1 1.27-1.85 2.4-2.65 3.46-3.26 4.3-5.19 7.18-6.85 11.25a47.18 47.18 0 0 0 -2.89 25.09c1.74 10.66 7.22 20.11 10.33 22.52a5.14 5.14 0 0 0 1.4.79.57.57 0 0 0 .77-.53v-1.74a104.07 104.07 0 0 1 .63-15.56c.41-3.39 1.09-7.61 1.8-12 .77-4.78 1.48-9.51 1.48-9.51l-.76-12.64.29.14c6.63 3.14 7.75 8 8.5 10.29a.19.19 0 0 1 0 .07s0 0 0 0a20.09 20.09 0 0 1 7.3-1.68h.12s2.69-3.38 3.49-4.57c.62-.92 1.26-1.92 1.94-3l1.26-2c1.31-2.13 2.71-4.48 4.17-6.92 2.43-4 5-8.35 7.77-12.45l1.1-1.63a110.82 110.82 0 0 0 7.21-9.36c3.23-4.87 6.28-8.07 4.6-9.6z" fill="url(#i)"/></svg>