<svg viewBox="0 0 146.46 22.23" xmlns="http://www.w3.org/2000/svg" xmlns:xlink="http://www.w3.org/1999/xlink"><linearGradient id="a" gradientTransform="translate(0 -1070)" gradientUnits="userSpaceOnUse" x1="-5.83" x2="68.14" y1="1080.92" y2="1080.25"><stop offset="0" stop-color="#f8d459"/><stop offset="1" stop-color="#e8b21c"/></linearGradient><linearGradient id="b" x1="-5.83" x2="68.14" xlink:href="#a" y1="1081.15" y2="1080.48"/><linearGradient id="c" x1="-5.81" x2="68.14" xlink:href="#a" y1="1081.2" y2="1080.53"/><linearGradient id="d" x1="-5.81" x2="68.14" xlink:href="#a" y1="1081.6" y2="1080.92"/><linearGradient id="e" gradientTransform="translate(0 -1070)" gradientUnits="userSpaceOnUse" x1="154.27" x2="98.79" y1="1080.71" y2="1081.39"><stop offset="0" stop-color="#1c5287"/><stop offset="1" stop-color="#1b65af"/></linearGradient><linearGradient id="f" x1="154.29" x2="98.81" xlink:href="#e" y1="1080.87" y2="1081.54"/><path d="m0 21.08v-20.45a.54.54 0 0 1 .5-.5h8.73a6.71 6.71 0 0 1 6.77 6.73v.25a6.67 6.67 0 0 1 -6.24 7h-4.52v6.74c0 .74-1.25.74-2.75.74s-2.49-.02-2.49-.51zm10.47-14a1.93 1.93 0 0 0 -1.74-2h-3.49v4h3.24a2 2 0 0 0 1.99-1.97z" fill="url(#a)"/><path d="m19 21.08v-20.45a.54.54 0 0 1 .5-.5h8.72a6.71 6.71 0 0 1 6.74 6.73v.25a6.81 6.81 0 0 1 -3 6l4.24 7.73v.25c0 .49-1.24.49-2.49.49s-2.74 0-3-.49l-3.49-7h-3v6.74c0 .49-1.24.49-2.74.49s-2.48.25-2.48-.24zm10.47-14a2 2 0 0 0 -2-2h-3.29v3.78h3.25a1.64 1.64 0 0 0 1.99-1.75z" fill="url(#b)"/><path d="m38.89 21.08v-20.45a.87.87 0 0 1 .25-.5h14c.74 0 .74 1.25.74 2.5s0 2.49-.74 2.49h-9.26v3h7.48c1 0 1 1.25 1 2.24s0 2.25-.75 2.25h-7.48v3.74h9.23c.74 0 .74 1.25.74 2.49s0 2.49-.74 2.49h-14a.88.88 0 0 1 -.47-.25z" fill="url(#c)"/><path d="m65.57 21.57-9.72-20.69v-.25c0-.5 1.25-.5 2.74-.5s3 0 3.24.5l4.74 11.22 4.74-11.22c.25-.5 1.74-.5 3.24-.5s2.74 0 2.74.5v.25l-10 20.69c-.25.25-.5.25-1 .25s-.72 0-.72-.25z" fill="url(#d)"/><path d="m100.59 11.22a10.49 10.49 0 0 1 10.47-11h.75a11.5 11.5 0 0 1 7 2c.25.25.25.25.25.5a7.3 7.3 0 0 1 -.5 2.25c-.5 1.24-1 2.24-1.5 2.24h-.25a8.17 8.17 0 0 0 -4.73-1.5 5.54 5.54 0 0 0 -5.49 5.49 5.44 5.44 0 0 0 5.47 5.8c2.49 0 3.74-1 4.23-2.49h-4c-.5 0-.75-1-.75-2.24s0-2.25.75-2.25h9.47c.5 0 .5.75.5 1.5 0 6.23-3.24 10.72-10.22 10.72a10.35 10.35 0 0 1 -11.47-9.72z" fill="url(#e)"/><path d="m124.27 11.22a11.13 11.13 0 0 1 10.97-11.22 11.28 11.28 0 0 1 11.22 11 11.28 11.28 0 0 1 -11 11.22 11.12 11.12 0 0 1 -11.19-11zm16.46 0a5.5 5.5 0 0 0 -5.24-5.49 5.67 5.67 0 0 0 -5.49 5.27 5.36 5.36 0 1 0 10.72.25z" fill="url(#f)"/><path d="m85 11.37a33.25 33.25 0 0 1 -2.61 6.29 10.19 10.19 0 0 1 -2.33 3 4.38 4.38 0 0 1 -4.76.59 5.08 5.08 0 0 1 -2.16-3.25 12.18 12.18 0 0 1 0-5.6 14.66 14.66 0 0 1 1.16-3.21 6.46 6.46 0 0 1 1.91-2.58 2.46 2.46 0 0 1 3.64.83c.81 1.6 0 3.64-.88 5a18.21 18.21 0 0 1 -3.84 3.95 7.07 7.07 0 0 0 .87 2.74 2.41 2.41 0 0 0 .84.89 1.84 1.84 0 0 0 .31.1h.07.37.1.21l.3-.07a1.77 1.77 0 0 0 .17-.06l.13-.06c.15-.07.29-.15.43-.23a8.53 8.53 0 0 0 .8-.66 10.56 10.56 0 0 0 1.92-2.8 35.15 35.15 0 0 0 2.08-5c.2-.56 1.51-.51 1.27.13zm-9.91 3.69a14.3 14.3 0 0 0 2.75-3c.76-1.17 1.79-3.6.43-4.75s-2.08 2.12-2.27 2.87a16.6 16.6 0 0 0 -.88 4.88z"/><path d="m87.23 20.65c.2 1-2.06 1.51-2.42.47-.29-.87-.54-3.14-.7-4s-.29-1.74-.41-2.61-.25-1.81-.36-2.71a8 8 0 0 1 -.13-2.66 1.35 1.35 0 0 1 2.25-.19 9.19 9.19 0 0 1 .4 2.62c.08.59.16 1.18.23 1.76a30.39 30.39 0 0 1 1.16-4.95 8.37 8.37 0 0 1 1.89-3.49 3.61 3.61 0 0 1 3.61-.8 3.41 3.41 0 0 1 1.9 3 27.69 27.69 0 0 1 -.14 5.15 45.11 45.11 0 0 0 -.27 4.93c0 .74.18 4.25 1.61 3.17 1.08-.82 1.56-2.52 1.88-3.77a32.4 32.4 0 0 0 .73-5c.07-.63 1.39-.71 1.33-.11a35.54 35.54 0 0 1 -.74 5.24 9 9 0 0 1 -1.93 4 3.08 3.08 0 0 1 -3.12.81 3.19 3.19 0 0 1 -2.23-3.09c-.3-3.44.52-6.86.4-10.3 0-.88 0-2.78-1.35-2.72-1.54.1-2.11 2.6-2.46 3.79a29.09 29.09 0 0 0 -1.26 9.81 15.89 15.89 0 0 0 .13 1.65z"/></svg>