<svg viewBox="0 0 11.39 11.38" xmlns="http://www.w3.org/2000/svg" xmlns:xlink="http://www.w3.org/1999/xlink"><linearGradient id="a" gradientTransform="matrix(.37929467 .92527593 -.92527593 .37929467 142.46 -141.41)" gradientUnits="userSpaceOnUse" x1="78.53" x2="89.92" y1="182.34" y2="182.34"><stop offset="0" stop-color="#fff"/><stop offset=".45" stop-color="#fbfbfb"/><stop offset=".87" stop-color="#f0f0f0"/><stop offset="1" stop-color="#ebebeb"/></linearGradient><path d="m6.43 3.57v4.13a.39.39 0 0 1 -.43.39.38.38 0 0 1 -.39-.39v-3.45l-.28.17a.34.34 0 0 1 -.19 0 .39.39 0 0 1 -.14-.67l.87-.51s0 0 0 0h.29s0 0 0 0a.09.09 0 0 0 0 0z" fill="#f5f5f5"/><path d="m5.7 11.38a5.69 5.69 0 0 1 -2.17-10.96 6 6 0 0 1 2.29-.42.26.26 0 0 1 .25.26.29.29 0 0 1 -.26.24 5 5 0 0 0 -2.09.39 5.19 5.19 0 1 0 6.77 2.83 5 5 0 0 0 -1.65-2.15.25.25 0 0 1 .3-.4 5.69 5.69 0 0 1 -1.29 9.83 5.79 5.79 0 0 1 -2.15.38z" fill="url(#a)"/></svg>