<svg viewBox="0 0 11.38 11.38" xmlns="http://www.w3.org/2000/svg" xmlns:xlink="http://www.w3.org/1999/xlink"><linearGradient id="a" gradientTransform="matrix(-.1244674 .9922237 -.9922237 -.1244674 250.14 -116.87)" gradientUnits="userSpaceOnUse" x1="146.35" x2="157.73" y1="227.29" y2="227.29"><stop offset="0" stop-color="#fff"/><stop offset=".45" stop-color="#fbfbfb"/><stop offset=".87" stop-color="#f0f0f0"/><stop offset="1" stop-color="#ebebeb"/></linearGradient><path d="m7.25 7.7a.38.38 0 0 1 -.39.39h-2.49a.36.36 0 0 1 -.29-.09.39.39 0 0 1 0-.54l2.1-1.92a.88.88 0 0 0 .29-.67.91.91 0 0 0 -.23-.61.87.87 0 0 0 -.67-.26.93.93 0 0 0 -.57.19l-.22.2a.39.39 0 1 1 -.52-.57l.22-.2a1.66 1.66 0 0 1 1.13-.43 1.69 1.69 0 0 1 1.24.55 1.63 1.63 0 0 1 .44 1.13 1.67 1.67 0 0 1 -.56 1.24l-1.36 1.2h1.49a.39.39 0 0 1 .39.39z" fill="#f5f5f5"/><path d="m5.7 11.38a4.35 4.35 0 0 1 -.72 0 5.69 5.69 0 0 1 -2.78-10.18 5.61 5.61 0 0 1 4.2-1.15 5.59 5.59 0 0 1 2.2.75.26.26 0 0 1 .09.35.26.26 0 0 1 -.34.08 5.19 5.19 0 0 0 -5.84.36 5.19 5.19 0 0 0 2.54 9.25 5.19 5.19 0 0 0 5.41-7.19.25.25 0 1 1 .46-.2 5.77 5.77 0 0 1 .42 3 5.68 5.68 0 0 1 -5.64 5z" fill="url(#a)"/></svg>