<svg viewBox="0 0 11.38 11.38" xmlns="http://www.w3.org/2000/svg" xmlns:xlink="http://www.w3.org/1999/xlink"><linearGradient id="a" gradientTransform="matrix(-.45709793 .88941637 -.88941637 -.45709793 303.54 -81.45)" gradientUnits="userSpaceOnUse" x1="207.95" x2="219.33" y1="225.09" y2="225.09"><stop offset="0" stop-color="#fff"/><stop offset=".45" stop-color="#fbfbfb"/><stop offset=".87" stop-color="#f0f0f0"/><stop offset="1" stop-color="#ebebeb"/></linearGradient><path d="m6.66 5.11a1.71 1.71 0 0 1 0 2.46 1.73 1.73 0 0 1 -2.45 0 .4.4 0 0 1 .56-.57.95.95 0 0 0 1.61-.67.91.91 0 0 0 -.28-.67.94.94 0 0 0 -.66-.28.33.33 0 0 1 -.29-.13.4.4 0 0 1 0-.56l.7-.69h-1.14a.39.39 0 0 1 -.39-.4.38.38 0 0 1 .39-.39h2.07a.39.39 0 0 1 .4.39.59.59 0 0 1 0 .19.61.61 0 0 1 -.07.1l-.89.91a1.39 1.39 0 0 1 .44.31z" fill="#f5f5f5"/><path d="m5.68 11.38a5.62 5.62 0 0 1 -2.59-.63 5.69 5.69 0 0 1 5.2-10.12 5.59 5.59 0 0 1 1.81 1.47.24.24 0 0 1 0 .35.25.25 0 0 1 -.35 0 5.1 5.1 0 0 0 -1.69-1.38 5.21 5.21 0 1 0 2.81 4.34.26.26 0 0 1 .24-.27.25.25 0 0 1 .26.24 5.63 5.63 0 0 1 -.62 2.91 5.7 5.7 0 0 1 -5.07 3.09z" fill="url(#a)"/></svg>