<svg viewBox="0 0 11.29 11.39" xmlns="http://www.w3.org/2000/svg" xmlns:xlink="http://www.w3.org/1999/xlink"><linearGradient id="a" gradientTransform="matrix(-.83 .56 -.56 -.83 351.88 -4.51)" gradientUnits="userSpaceOnUse" x1="286.26" x2="297.65" y1="186.31" y2="186.31"><stop offset="0" stop-color="#fff"/><stop offset=".45" stop-color="#fbfbfb"/><stop offset=".87" stop-color="#f0f0f0"/><stop offset="1" stop-color="#ebebeb"/></linearGradient><path d="m7.57 6.79a.38.38 0 0 1 -.39.38h-.07v.53a.39.39 0 1 1 -.77 0v-.53h-2.21a.37.37 0 0 1 -.24-.08.38.38 0 0 1 -.06-.54l2.59-3.22s0 0 0 0h.18.05a0 0 0 0 1 0 0h.35a.06.06 0 0 1 0 0s0 0 0 0v3.07h.07a.39.39 0 0 1 .5.39zm-1.23-2.12-1.4 1.73h1.4z" fill="#f5f5f5"/><path d="m5.7 11.39a5.63 5.63 0 0 1 -1.07-.11 5.62 5.62 0 0 1 -3.63-2.39 5.68 5.68 0 0 1 1.49-7.89 5.69 5.69 0 0 1 7.91 1.5 5.74 5.74 0 0 1 .89 2.15.25.25 0 0 1 -.2.29.25.25 0 0 1 -.3-.19 5 5 0 0 0 -.81-2 5.19 5.19 0 1 0 -5.26 8 5.2 5.2 0 0 0 5.66-2.87.25.25 0 0 1 .33-.12.26.26 0 0 1 .12.34 5.81 5.81 0 0 1 -1.94 2.3 5.64 5.64 0 0 1 -3.19.99z" fill="url(#a)"/></svg>