<svg viewBox="0 0 11.38 11.38" xmlns="http://www.w3.org/2000/svg" xmlns:xlink="http://www.w3.org/1999/xlink"><linearGradient id="a" gradientTransform="matrix(-.99992957 .01186796 -.01186796 -.99992957 353.87 101.73)" gradientUnits="userSpaceOnUse" x1="341.32" x2="352.7" y1="100.19" y2="100.19"><stop offset="0" stop-color="#fff"/><stop offset=".45" stop-color="#fbfbfb"/><stop offset=".87" stop-color="#f0f0f0"/><stop offset="1" stop-color="#ebebeb"/></linearGradient><path d="m6.61 5.12a1.67 1.67 0 0 1 .51 1.23 1.74 1.74 0 0 1 -.51 1.23 1.7 1.7 0 0 1 -1.22.51 1.72 1.72 0 0 1 -1.22-.51.39.39 0 0 1 0-.56.4.4 0 0 1 .57 0 .93.93 0 0 0 1.31-.02 1 1 0 0 0 .28-.67 1 1 0 0 0 -.94-.95.92.92 0 0 0 -.67.28.42.42 0 0 1 -.57 0 .31.31 0 0 0 -.07-.09s0 0 0 0a0 0 0 0 0 0 0v-.22l.21-1.82a.47.47 0 0 1 .18-.28s0 0 0 0a.35.35 0 0 1 .18 0h2.08a.39.39 0 0 1 .39.4.4.4 0 0 1 -.39.4h-1.73l-.08.69a1.84 1.84 0 0 1 .47-.06 1.66 1.66 0 0 1 1.22.44z" fill="#f5f5f5"/><path d="m5.69 11.38a5.69 5.69 0 0 1 -.07-11.38h.07a5.68 5.68 0 0 1 5.69 5.62 5.64 5.64 0 0 1 -.45 2.29.25.25 0 0 1 -.33.09.26.26 0 0 1 -.13-.33 5.19 5.19 0 0 0 -1.15-5.67 5 5 0 0 0 -3.69-1.5 5.19 5.19 0 1 0 2.73 9.64.26.26 0 0 1 .35.08.25.25 0 0 1 -.09.34 5.61 5.61 0 0 1 -2.86.82z" fill="url(#a)"/></svg>