<svg viewBox="0 0 11.77 13.06" xmlns="http://www.w3.org/2000/svg" xmlns:xlink="http://www.w3.org/1999/xlink"><clipPath id="a"><path d="m11 6.47c-.73-.6-1.56-.24-2.16.49l-2.79 3.41a.64.64 0 0 0 -.12.25l-.38 1.78c0 .2-.08.43.08.56s.37.04.47.04a.42.42 0 0 0 .15 0l1.65-.72a.56.56 0 0 0 .24-.28l2.86-3.38c.56-.73.77-1.55 0-2.15zm-3.4 5.16-1.48.76.41-1.54 2.47-3.15 1.26 1zm3.09-3.54-.14.16-1.17-1 .13-.16a.76.76 0 0 1 1.18 1z"/></clipPath><linearGradient id="b" gradientUnits="userSpaceOnUse" x1="1.85" x2="7.75" y1="6.02" y2="6.02"><stop offset="0" stop-color="#f39222"/><stop offset="1" stop-color="#f3a618"/></linearGradient><linearGradient id="c" x1="1.85" x2="5.89" xlink:href="#b" y1="8.63" y2="8.63"/><linearGradient id="d" x1="1.85" x2="8.3" xlink:href="#b" y1="3.42" y2="3.42"/><linearGradient id="e" x1="0" x2="10.31" xlink:href="#b" y1="6.35" y2="6.35"/><g clip-path="url(#a)"><path d="m9.6 6.75.07 1.5h-.29v-1.5z" fill="#f3a01b"/><path d="m9.91 6.75.07 1.5h-.31l-.07-1.5z" fill="#f3a11b"/><path d="m10.22 6.75.08 1.5h-.32l-.07-1.5z" fill="#f3a21a"/><path d="m10.54 6.75.07 1.5h-.31l-.08-1.5z" fill="#f3a31a"/><path d="m10.85 6.75.07 1.5h-.31l-.07-1.5z" fill="#f3a419"/><path d="m10.92 8.25-.07-1.5h.1v1.5z" fill="#f3a519"/><path d="m6.12 12.29.01.09h-.01z" fill="#f39321"/><path d="m6.2 7.71.24 4.67h-.31l-.01-.09v-4.58z" fill="#f39421"/><path d="m6.51 7.71.24 4.67h-.31l-.24-4.67z" fill="#f39520"/><path d="m6.83 7.71.24 4.67h-.32l-.24-4.67z" fill="#f39620"/><path d="m7.14 7.71.24 4.67h-.31l-.24-4.67z" fill="#f3971f"/><path d="m7.45 7.71.24 4.67h-.31l-.24-4.67z" fill="#f3981f"/><path d="m7.76 7.71.25 4.67h-.32l-.24-4.67z" fill="#f3991e"/><path d="m8.08 7.71.24 4.67h-.31l-.25-4.67z" fill="#f39a1e"/><path d="m8.39 7.71.24 4.67h-.31l-.24-4.67z" fill="#f39c1d"/><path d="m8.7 7.71.24 4.67h-.31l-.24-4.67z" fill="#f39d1d"/><path d="m9.02 7.71.24 4.67h-.32l-.24-4.67z" fill="#f39e1c"/><path d="m9.33 7.71.24 4.67h-.31l-.24-4.67z" fill="#f39f1c"/><path d="m9.64 7.71.24 4.67h-.31l-.24-4.67z" fill="#f3a01b"/><path d="m9.96 7.71.24 4.67h-.32l-.24-4.67z" fill="#f3a11b"/><path d="m10.2 12.38-.24-4.67h.26v4.67z" fill="#f3a21a"/><path d="m5.47 11.81.06 1.25h-.06z" fill="#f39222"/><path d="m5.48 5.87.37 7.19h-.32l-.06-1.25v-5.94z" fill="#f39222"/><path d="m5.79 5.87.37 7.19h-.31l-.37-7.19z" fill="#f39321"/><path d="m6.11 5.87.36 7.19h-.31l-.37-7.19z" fill="#f39421"/><path d="m6.42 5.87.37 7.19h-.32l-.36-7.19z" fill="#f39520"/><path d="m6.73 5.87.37 7.19h-.31l-.37-7.19z" fill="#f39620"/><path d="m7.04 5.87.37 7.19h-.31l-.37-7.19z" fill="#f3971f"/><path d="m7.36 5.87.37 7.19h-.32l-.37-7.19z" fill="#f3981f"/><path d="m7.67 5.87.37 7.19h-.31l-.37-7.19z" fill="#f3991e"/><path d="m7.98 5.87.37 7.19h-.31l-.37-7.19z" fill="#f39a1e"/><path d="m8.3 5.87.37 7.19h-.32l-.37-7.19z" fill="#f39c1d"/><path d="m8.61 5.87.37 7.19h-.31l-.37-7.19z" fill="#f39d1d"/><path d="m8.92 5.87.37 7.19h-.31l-.37-7.19z" fill="#f39e1c"/><path d="m9.24 5.87.37 7.19h-.32l-.37-7.19z" fill="#f39f1c"/><path d="m9.55 5.87.37 7.19h-.31l-.37-7.19z" fill="#f3a01b"/><path d="m9.86 5.87.37 7.19h-.31l-.37-7.19z" fill="#f3a11b"/><path d="m10.18 5.87.36 7.19h-.31l-.37-7.19z" fill="#f3a21a"/><path d="m10.49 5.87.37 7.19h-.32l-.36-7.19z" fill="#f3a31a"/><path d="m10.8 5.87.37 7.19h-.31l-.37-7.19z" fill="#f3a419"/><path d="m11.12 5.87.36 7.19h-.31l-.37-7.19z" fill="#f3a519"/><g fill="#f3a618"><path d="m11.43 5.87.34 6.65v.54h-.29l-.36-7.19z"/><path d="m11.77 12.52-.34-6.65h.34z"/></g></g><path d="m7.25 6.52h-4.9a.5.5 0 0 1 -.5-.5.5.5 0 0 1 .5-.5h4.9a.5.5 0 0 1 .5.5.5.5 0 0 1 -.5.5z" fill="url(#b)"/><path d="m5.39 9.12h-3a.5.5 0 0 1 -.5-.5.5.5 0 0 1 .5-.5h3a.5.5 0 0 1 .5.5.5.5 0 0 1 -.5.5z" fill="url(#c)"/><path d="m7.8 3.92h-5.45a.5.5 0 0 1 -.5-.5.5.5 0 0 1 .5-.5h5.45a.5.5 0 0 1 .5.5.5.5 0 0 1 -.5.5z" fill="url(#d)"/><path d="m4.36 12.69h-2.55a1.81 1.81 0 0 1 -1.81-1.81v-9.07a1.81 1.81 0 0 1 1.81-1.81h6.68a1.82 1.82 0 0 1 1.82 1.81v3a.51.51 0 0 1 -.5.5.5.5 0 0 1 -.5-.5v-3a.82.82 0 0 0 -.82-.81h-6.68a.81.81 0 0 0 -.81.81v9.07a.81.81 0 0 0 .81.81h2.55a.5.5 0 1 1 0 1z" fill="url(#e)"/></svg>