<svg viewBox="0 0 11.99 11.99" xmlns="http://www.w3.org/2000/svg"><g fill="#5ba4ba"><path d="m9.29 4.92h-.36a1.15 1.15 0 0 0 -1.11-.92h-1.51a.55.55 0 0 1 -.54-.55.3.3 0 0 0 -.3-.3h-2a1.15 1.15 0 0 0 -1.1 1.17v3.41a1.14 1.14 0 0 0 1.14 1.14h4.31a1.14 1.14 0 0 0 1.18-1.13v-.08l.58-2.44a.27.27 0 0 0 0-.21.25.25 0 0 0 -.29-.09zm-.88 2.73v.2a.54.54 0 0 1 -.52.45h-4.38a.54.54 0 0 1 -.51-.57l.65-2.29h5.35l-.39 1.56zm-5-2.73a.26.26 0 0 0 -.24.18l-.17.79v-1.57a.54.54 0 0 1 .54-.54h1.7a1.15 1.15 0 0 0 1.1.84h1.48a.52.52 0 0 1 .47.3z"/><path d="m6 12a6 6 0 1 1 0-12 5.93 5.93 0 0 1 3.71 1.29.28.28 0 0 1 0 .39.27.27 0 0 1 -.39 0 5.44 5.44 0 1 0 1.37 1.6.28.28 0 0 1 .1-.38.29.29 0 0 1 .38.11 6 6 0 0 1 -5.17 8.99z"/></g></svg>