<svg viewBox="0 0 11.7 12.69" xmlns="http://www.w3.org/2000/svg" xmlns:xlink="http://www.w3.org/1999/xlink"><linearGradient id="a" gradientUnits="userSpaceOnUse" x1="-.1" x2="11.81" y1="9.29" y2="9.81"><stop offset="0" stop-color="#f39222"/><stop offset="1" stop-color="#f3a618"/></linearGradient><linearGradient id="b" x1=".11" x2="11.79" xlink:href="#a" y1="4.38" y2="4.89"/><linearGradient id="c" x1="2.51" x2="9.19" xlink:href="#a" y1="4.57" y2="4.86"/><linearGradient id="d" x1="3.28" x2="8.42" xlink:href="#a" y1="2.36" y2="2.59"/><path d="m11.2 12.69h-10.7a.5.5 0 0 1 -.5-.5v-5.28a.5.5 0 0 1 .5-.5h10.7a.5.5 0 0 1 .5.5v5.28a.5.5 0 0 1 -.5.5zm-10.2-1h9.7v-4.28h-9.7z" fill="url(#a)"/><path d="m5.85 9.43a3.46 3.46 0 0 1 -2.79-2h-2.56a.49.49 0 0 1 -.4-.2.5.5 0 0 1 -.1-.39l1.77-6.47a.49.49 0 0 1 .48-.37h7.42a.49.49 0 0 1 .48.38l1.54 6.47a.51.51 0 0 1 -.1.43.49.49 0 0 1 -.39.19h-2.2c-.45.53-1.63 1.96-3.15 1.96zm-4.7-3h2.21a.51.51 0 0 1 .46.3s.75 1.66 2 1.66 2.45-1.67 2.46-1.69a.52.52 0 0 1 .43-.23h1.86l-1.3-5.47h-6.64z" fill="url(#b)"/><path d="m8.69 5.21h-5.69a.5.5 0 0 1 -.5-.5.5.5 0 0 1 .5-.5h5.69a.5.5 0 0 1 .5.5.5.5 0 0 1 -.5.5z" fill="url(#c)"/><path d="m7.93 3h-4.16a.51.51 0 0 1 -.5-.5.5.5 0 0 1 .5-.5h4.16a.5.5 0 0 1 .5.5.51.51 0 0 1 -.5.5z" fill="url(#d)"/></svg>