<svg viewBox="0 0 47.81 54.98" xmlns="http://www.w3.org/2000/svg" xmlns:xlink="http://www.w3.org/1999/xlink"><clipPath id="a"><path clip-rule="evenodd" d="m14.31 21a8.25 8.25 0 1 1 -8.25 8.24 8.23 8.23 0 0 1 8.25-8.24z"/></clipPath><clipPath id="b"><path clip-rule="evenodd" d="m33.55 21a8.25 8.25 0 1 0 8.24 8.24 8.23 8.23 0 0 0 -8.24-8.24z"/></clipPath><clipPath id="c"><path clip-rule="evenodd" d="m22 27.3a8.25 8.25 0 0 1 -15.84 3.22 8.31 8.31 0 0 0 2 4.18 7.93 7.93 0 0 0 .88.86 8.23 8.23 0 0 0 13.53-6.32 8.41 8.41 0 0 0 -.66-3.24 10.71 10.71 0 0 1 .09 1.3z"/></clipPath><clipPath id="d"><path clip-rule="evenodd" d="m25.86 27.3a8.24 8.24 0 0 0 15.83 3.22 8.2 8.2 0 0 1 -2 4.18 8 8 0 0 1 -.89.86 8.25 8.25 0 0 1 -12.8-9.56 7.71 7.71 0 0 0 -.1 1.28z"/></clipPath><clipPath id="e"><path clip-rule="evenodd" d="m7.68 46.63c0-1.7-.07-3.39 0-5 .07-2.26.24-4.59.43-6.94a8.29 8.29 0 0 1 -1.9-3.91c0 3.6-.17 8.08-.26 12.32 0 1.14 0 2.26-.06 3.37"/></clipPath><clipPath id="f"><path clip-rule="evenodd" d="m40.22 46.63c0-1.53 0-3.24 0-5-.07-2.26-.25-4.6-.44-6.94a8.19 8.19 0 0 0 1.89-3.91c.06 3.59.19 8.08.28 12.32 0 1.11 0 2.21.05 3.29"/></clipPath><path d="m13.19 15.46h23.01v16.75h-23.01z" fill="#fff"/><path d="m47.39 36.3c0-5.85.42-14.71.42-19.89 0-11.47-11.44-6.54-17.54-14.78a6.79 6.79 0 0 1 -.88-1.63h-10.92a6.83 6.83 0 0 1 -.89 1.63c-6.09 8.24-17.33 3.77-17.53 14.78-.05 5.18.42 14.04.42 19.89a56.77 56.77 0 0 1 -.47 7.76v.27a15.89 15.89 0 0 0 7.67 2.38v-.25c0-1.36 0-2.8 0-4.11.06-3 .26-5.31.47-7.65a8.31 8.31 0 0 1 -2-4.18 8.87 8.87 0 0 1 -.09-1.28 9.32 9.32 0 0 1 .13-1.51.94.94 0 0 1 0-.16 8.59 8.59 0 0 1 .32-1.13 8.25 8.25 0 0 1 15.41-.44 8.41 8.41 0 0 1 .64 3.22 8.23 8.23 0 0 1 -13.55 6.34 31.54 31.54 0 0 1 1.37 7.23 16 16 0 0 1 -.36 3.7l-.06.25h27.94l-.06-.25a16 16 0 0 1 -.36-3.7 31 31 0 0 1 1.37-7.23 8.24 8.24 0 1 1 -5.29-14.56 8.25 8.25 0 0 1 7.75 5.43 8.59 8.59 0 0 1 .32 1.13.94.94 0 0 1 0 .16 9.32 9.32 0 0 1 .13 1.51 7.63 7.63 0 0 1 -.1 1.28 8.2 8.2 0 0 1 -2 4.18c.2 2.34.41 4.67.46 7.65v4.08.25a11.62 11.62 0 0 0 7.56-3.23c0-.11 0-.22 0-.33a63.93 63.93 0 0 1 -.28-6.81z" fill="#fff" fill-rule="evenodd"/><g clip-path="url(#a)"><g fill="#fff"><path d="m6.06 21h16.49v1.88h-16.49z"/><path d="m6.06 22.87h16.49v2.21h-16.49z"/><path d="m6.06 25.09h16.49v2.21h-16.49z"/><path d="m6.06 27.3h16.49v2.21h-16.49z"/><path d="m6.06 29.51h16.49v2.21h-16.49z"/></g><path d="m6.06 31.72h16.49v2.21h-16.49z" fill="#fefefe"/><path d="m6.06 33.93h16.49v2.21h-16.49z" fill="#fdfdfd"/><path d="m6.06 36.14h16.49v1.35h-16.49z" fill="#fcfcfc"/></g><path d="m11.85 26.74a2.5 2.5 0 1 1 -2.5 2.5 2.5 2.5 0 0 1 2.5-2.5z" fill-rule="evenodd" opacity=".04"/><path d="m11.85 28.44a.81.81 0 0 1 .81.8.82.82 0 0 1 -.81.81.81.81 0 0 1 -.8-.81.8.8 0 0 1 .8-.8z" fill-rule="evenodd" opacity=".09"/><g clip-path="url(#b)"><g fill="#fff"><path d="m25.31 21h16.48v1.88h-16.48z"/><path d="m25.31 22.87h16.48v2.21h-16.48z"/><path d="m25.31 25.09h16.48v2.21h-16.48z"/><path d="m25.31 27.3h16.48v2.21h-16.48z"/><path d="m25.31 29.51h16.48v2.21h-16.48z"/></g><path d="m25.31 31.72h16.48v2.21h-16.48z" fill="#fefefe"/><path d="m25.31 33.93h16.48v2.21h-16.48z" fill="#fdfdfd"/><path d="m25.31 36.14h16.48v1.35h-16.48z" fill="#fcfcfc"/></g><path d="m35.87 26.74a2.5 2.5 0 1 0 2.5 2.5 2.5 2.5 0 0 0 -2.5-2.5z" fill-rule="evenodd" opacity=".04"/><path d="m35.87 28.44a.8.8 0 0 0 -.81.8.81.81 0 0 0 .81.81.8.8 0 0 0 .8-.81.8.8 0 0 0 -.8-.8z" fill-rule="evenodd" opacity=".09"/><g clip-path="url(#c)"><path d="m6.16 26.02h.78v11.47h-.78z" fill="#fff"/><path d="m6.94 26.02h.78v11.47h-.78z" fill="#fdfdfd"/><path d="m7.73 26.02h.78v11.47h-.78z" fill="#fafafa"/><path d="m8.51 26.02h.78v11.47h-.78z" fill="#f8f8f8"/><path d="m9.29 26.02h.78v11.47h-.78z" fill="#f6f6f6"/><path d="m10.07 26.02h.78v11.47h-.78z" fill="#f4f4f4"/><path d="m10.85 26.02h.78v11.47h-.78z" fill="#f3f3f3"/><path d="m11.63 26.02h.78v11.47h-.78z" fill="#f1f1f1"/><path d="m12.41 26.02h.78v11.47h-.78z" fill="#f0f0f0"/><path d="m13.19 26.02h.78v11.47h-.78z" fill="#efefef"/><path d="m13.97 26.02h.78v11.47h-.78z" fill="#eee"/><path d="m14.75 26.02h.78v11.47h-.78z" fill="#ededed"/><path d="m15.53 26.02h.78v11.47h-.78z" fill="#ececec"/><path d="m16.31 26.02h.78v11.47h-.78z" fill="#ececec"/><path d="m17.09 26.02h.78v11.47h-.78z" fill="#ebebeb"/><path d="m17.87 26.02h.78v11.47h-.78z" fill="#ebebeb"/><g fill="#eaeaea"><path d="m18.65 26.02h.78v11.47h-.78z"/><path d="m19.43 26.02h.78v11.47h-.78z"/><path d="m20.21 26.02h.78v11.47h-.78z"/><path d="m20.99 26.02h.78v11.47h-.78z"/><path d="m21.77 26.02h.78v11.47h-.78z"/></g></g><g clip-path="url(#d)"><g fill="#eaeaea"><path d="m25.31 26.02h.78v11.47h-.78z"/><path d="m26.09 26.02h.78v11.47h-.78z"/><path d="m26.87 26.02h.78v11.47h-.78z"/><path d="m27.65 26.02h.78v11.47h-.78z"/><path d="m28.43 26.02h.78v11.47h-.78z"/></g><path d="m29.21 26.02h.78v11.47h-.78z" fill="#ebebeb"/><path d="m29.99 26.02h.78v11.47h-.78z" fill="#ebebeb"/><path d="m30.77 26.02h.78v11.47h-.78z" fill="#ececec"/><path d="m31.55 26.02h.78v11.47h-.78z" fill="#ececec"/><path d="m32.33 26.02h.78v11.47h-.78z" fill="#ededed"/><path d="m33.11 26.02h.78v11.47h-.78z" fill="#eee"/><path d="m33.89 26.02h.78v11.47h-.78z" fill="#efefef"/><path d="m34.67 26.02h.78v11.47h-.78z" fill="#f0f0f0"/><path d="m35.45 26.02h.78v11.47h-.78z" fill="#f1f1f1"/><path d="m36.23 26.02h.78v11.47h-.78z" fill="#f3f3f3"/><path d="m37.01 26.02h.78v11.47h-.78z" fill="#f4f4f4"/><path d="m37.79 26.02h.78v11.47h-.78z" fill="#f6f6f6"/><path d="m38.57 26.02h.78v11.47h-.78z" fill="#f8f8f8"/><path d="m39.35 26.02h.78v11.47h-.78z" fill="#fafafa"/><path d="m40.13 26.02h.78v11.47h-.78z" fill="#fdfdfd"/><path d="m40.91 26.02h.78v11.47h-.78z" fill="#fff"/></g><path d="m6.07 20.38c.09 2 .17 4 .17 7.18a8.59 8.59 0 0 1 .32-1.13c0-.14.08-.29.12-.46a9.73 9.73 0 0 0 .46-3.1 5.2 5.2 0 0 0 -1.07-2.49z" fill-rule="evenodd" opacity=".09"/><g clip-path="url(#e)" opacity=".09"><path d="m5.79 30.76h2.31v.04h-2.31z"/><path d="m5.79 30.79h2.31v.07h-2.31z"/><path d="m5.79 30.86h2.31v.07h-2.31z"/><path d="m5.79 30.93h2.31v.07h-2.31z"/><path d="m5.79 30.99h2.31v.07h-2.31z"/><path d="m5.79 31.06h2.31v.07h-2.31z"/><path d="m5.79 31.13h2.31v.07h-2.31z"/><path d="m5.79 31.2h2.31v.07h-2.31z"/><path d="m5.79 31.27h2.31v.07h-2.31z"/><path d="m5.79 31.33h2.31v.07h-2.31z"/><path d="m5.79 31.4h2.31v.07h-2.31z"/><path d="m5.79 31.47h2.31v.07h-2.31z"/><g fill="#010101"><path d="m5.79 31.54h2.31v.07h-2.31z"/><path d="m5.79 31.6h2.31v.07h-2.31z"/><path d="m5.79 31.67h2.31v.07h-2.31z"/><path d="m5.79 31.74h2.31v.07h-2.31z"/><path d="m5.79 31.81h2.31v.07h-2.31z"/><path d="m5.79 31.87h2.31v.07h-2.31z"/><path d="m5.79 31.94h2.31v.07h-2.31z"/><path d="m5.79 32.01h2.31v.07h-2.31z"/><path d="m5.79 32.08h2.31v.07h-2.31z"/><path d="m5.79 32.14h2.31v.07h-2.31z"/><path d="m5.79 32.21h2.31v.07h-2.31z"/><path d="m5.79 32.28h2.31v.07h-2.31z"/><path d="m5.79 32.35h2.31v.07h-2.31z"/><path d="m5.79 32.41h2.31v.07h-2.31z"/></g><g fill="#020202"><path d="m5.79 32.48h2.31v.07h-2.31z"/><path d="m5.79 32.55h2.31v.07h-2.31z"/><path d="m5.79 32.62h2.31v.07h-2.31z"/><path d="m5.79 32.68h2.31v.07h-2.31z"/><path d="m5.79 32.75h2.31v.07h-2.31z"/><path d="m5.79 32.82h2.31v.07h-2.31z"/><path d="m5.79 32.89h2.31v.07h-2.31z"/><path d="m5.79 32.95h2.31v.07h-2.31z"/></g><path d="m5.79 33.02h2.31v.07h-2.31z" fill="#030303"/><path d="m5.79 33.09h2.31v.07h-2.31z" fill="#030303"/><path d="m5.79 33.16h2.31v.07h-2.31z" fill="#030303"/><path d="m5.79 33.22h2.31v.07h-2.31z" fill="#030303"/><path d="m5.79 33.29h2.31v.07h-2.31z" fill="#030303"/><path d="m5.79 33.36h2.31v.07h-2.31z" fill="#030303"/><path d="m5.79 33.43h2.31v.07h-2.31z" fill="#030303"/><path d="m5.79 33.49h2.31v.07h-2.31z" fill="#040404"/><path d="m5.79 33.56h2.31v.07h-2.31z" fill="#040404"/><path d="m5.79 33.63h2.31v.07h-2.31z" fill="#040404"/><path d="m5.79 33.7h2.31v.07h-2.31z" fill="#040404"/><path d="m5.79 33.77h2.31v.07h-2.31z" fill="#040404"/><path d="m5.79 33.83h2.31v.07h-2.31z" fill="#050505"/><path d="m5.79 33.9h2.31v.07h-2.31z" fill="#050505"/><path d="m5.79 33.97h2.31v.07h-2.31z" fill="#050505"/><path d="m5.79 34.04h2.31v.07h-2.31z" fill="#050505"/><path d="m5.79 34.1h2.31v.07h-2.31z" fill="#060606"/><path d="m5.79 34.17h2.31v.07h-2.31z" fill="#060606"/><path d="m5.79 34.24h2.31v.07h-2.31z" fill="#060606"/><path d="m5.79 34.31h2.31v.07h-2.31z" fill="#060606"/><path d="m5.79 34.37h2.31v.07h-2.31z" fill="#070707"/><path d="m5.79 34.44h2.31v.07h-2.31z" fill="#070707"/><path d="m5.79 34.51h2.31v.07h-2.31z" fill="#070707"/><path d="m5.79 34.58h2.31v.07h-2.31z" fill="#070707"/><path d="m5.79 34.64h2.31v.07h-2.31z" fill="#080808"/><path d="m5.79 34.71h2.31v.07h-2.31z" fill="#080808"/><path d="m5.79 34.78h2.31v.07h-2.31z" fill="#080808"/><path d="m5.79 34.85h2.31v.07h-2.31z" fill="#090909"/><path d="m5.79 34.91h2.31v.07h-2.31z" fill="#090909"/><path d="m5.79 34.98h2.31v.07h-2.31z" fill="#090909"/><path d="m5.79 35.05h2.31v.07h-2.31z" fill="#090909"/><path d="m5.79 35.12h2.31v.07h-2.31z" fill="#0a0a0a"/><path d="m5.79 35.18h2.31v.07h-2.31z" fill="#0a0a0a"/><path d="m5.79 35.25h2.31v.07h-2.31z" fill="#0b0b0b"/><path d="m5.79 35.32h2.31v.07h-2.31z" fill="#0b0b0b"/><path d="m5.79 35.39h2.31v.07h-2.31z" fill="#0b0b0b"/><path d="m5.79 35.45h2.31v.07h-2.31z" fill="#0c0c0c"/><path d="m5.79 35.52h2.31v.07h-2.31z" fill="#0c0c0c"/><path d="m5.79 35.59h2.31v.07h-2.31z" fill="#0c0c0c"/><path d="m5.79 35.66h2.31v.07h-2.31z" fill="#0d0d0d"/><path d="m5.79 35.72h2.31v.07h-2.31z" fill="#0d0d0d"/><path d="m5.79 35.79h2.31v.07h-2.31z" fill="#0e0e0e"/><path d="m5.79 35.86h2.31v.07h-2.31z" fill="#0e0e0e"/><path d="m5.79 35.93h2.31v.07h-2.31z" fill="#0f0f0f"/><path d="m5.79 35.99h2.31v.07h-2.31z" fill="#0f0f0f"/><path d="m5.79 36.06h2.31v.07h-2.31z" fill="#0f0f0f"/><path d="m5.79 36.13h2.31v.07h-2.31z" fill="#101010"/><path d="m5.79 36.2h2.31v.07h-2.31z" fill="#101010"/><path d="m5.79 36.26h2.31v.07h-2.31z" fill="#111"/><path d="m5.79 36.33h2.31v.07h-2.31z" fill="#111"/><path d="m5.79 36.4h2.31v.07h-2.31z" fill="#121212"/><path d="m5.79 36.47h2.31v.07h-2.31z" fill="#121212"/><path d="m5.79 36.54h2.31v.07h-2.31z" fill="#131313"/><path d="m5.79 36.6h2.31v.07h-2.31z" fill="#141414"/><path d="m5.79 36.67h2.31v.07h-2.31z" fill="#141414"/><path d="m5.79 36.74h2.31v.07h-2.31z" fill="#151515"/><path d="m5.79 36.81h2.31v.07h-2.31z" fill="#151515"/><path d="m5.79 36.87h2.31v.07h-2.31z" fill="#161616"/><path d="m5.79 36.94h2.31v.07h-2.31z" fill="#161616"/><path d="m5.79 37.01h2.31v.07h-2.31z" fill="#171717"/><path d="m5.79 37.08h2.31v.07h-2.31z" fill="#181818"/><path d="m5.79 37.14h2.31v.07h-2.31z" fill="#181818"/><path d="m5.79 37.21h2.31v.07h-2.31z" fill="#191919"/><path d="m5.79 37.28h2.31v.07h-2.31z" fill="#191919"/><path d="m5.79 37.35h2.31v.07h-2.31z" fill="#1a1a1a"/><path d="m5.79 37.41h2.31v.07h-2.31z" fill="#1b1b1b"/><path d="m5.79 37.48h2.31v.07h-2.31z" fill="#1b1b1b"/><path d="m5.79 37.55h2.31v.07h-2.31z" fill="#1c1c1c"/><path d="m5.79 37.62h2.31v.07h-2.31z" fill="#1d1d1d"/><path d="m5.79 37.68h2.31v.07h-2.31z" fill="#1e1e1e"/><path d="m5.79 37.75h2.31v.07h-2.31z" fill="#1e1e1e"/><path d="m5.79 37.82h2.31v.07h-2.31z" fill="#1f1f1f"/><path d="m5.79 37.89h2.31v.07h-2.31z" fill="#202020"/><path d="m5.79 37.95h2.31v.07h-2.31z" fill="#202020"/><path d="m5.79 38.02h2.31v.07h-2.31z" fill="#212121"/><path d="m5.79 38.09h2.31v.07h-2.31z" fill="#222"/><path d="m5.79 38.16h2.31v.07h-2.31z" fill="#232323"/><path d="m5.79 38.22h2.31v.07h-2.31z" fill="#242424"/><path d="m5.79 38.29h2.31v.07h-2.31z" fill="#242424"/><path d="m5.79 38.36h2.31v.07h-2.31z" fill="#252525"/><path d="m5.79 38.43h2.31v.07h-2.31z" fill="#262626"/><path d="m5.79 38.49h2.31v.07h-2.31z" fill="#272727"/><path d="m5.79 38.56h2.31v.07h-2.31z" fill="#282828"/><path d="m5.79 38.63h2.31v.07h-2.31z" fill="#292929"/><path d="m5.79 38.7h2.31v.07h-2.31z" fill="#2a2a2a"/><path d="m5.79 38.76h2.31v.07h-2.31z" fill="#2a2a2a"/><path d="m5.79 38.83h2.31v.07h-2.31z" fill="#2b2b2b"/><path d="m5.79 38.9h2.31v.07h-2.31z" fill="#2c2c2c"/><path d="m5.79 38.97h2.31v.07h-2.31z" fill="#2d2d2d"/><path d="m5.79 39.04h2.31v.07h-2.31z" fill="#2e2e2e"/><path d="m5.79 39.1h2.31v.07h-2.31z" fill="#2f2f2f"/><path d="m5.79 39.17h2.31v.07h-2.31z" fill="#303030"/><path d="m5.79 39.24h2.31v.07h-2.31z" fill="#313131"/><path d="m5.79 39.31h2.31v.07h-2.31z" fill="#323232"/><path d="m5.79 39.37h2.31v.07h-2.31z" fill="#333"/><path d="m5.79 39.44h2.31v.07h-2.31z" fill="#343434"/><path d="m5.79 39.51h2.31v.07h-2.31z" fill="#353535"/><path d="m5.79 39.58h2.31v.07h-2.31z" fill="#363636"/><path d="m5.79 39.64h2.31v.07h-2.31z" fill="#373737"/><path d="m5.79 39.71h2.31v.07h-2.31z" fill="#383838"/><path d="m5.79 39.78h2.31v.07h-2.31z" fill="#3a3a3a"/><path d="m5.79 39.85h2.31v.07h-2.31z" fill="#3b3b3b"/><path d="m5.79 39.91h2.31v.07h-2.31z" fill="#3c3c3c"/><path d="m5.79 39.98h2.31v.07h-2.31z" fill="#3d3d3d"/><path d="m5.79 40.05h2.31v.07h-2.31z" fill="#3e3e3e"/><path d="m5.79 40.12h2.31v.07h-2.31z" fill="#3f3f3f"/><path d="m5.79 40.18h2.31v.07h-2.31z" fill="#414141"/><path d="m5.79 40.25h2.31v.07h-2.31z" fill="#424242"/><path d="m5.79 40.32h2.31v.07h-2.31z" fill="#434343"/><path d="m5.79 40.39h2.31v.07h-2.31z" fill="#444"/><path d="m5.79 40.45h2.31v.07h-2.31z" fill="#454545"/><path d="m5.79 40.52h2.31v.07h-2.31z" fill="#474747"/><path d="m5.79 40.59h2.31v.07h-2.31z" fill="#484848"/><path d="m5.79 40.66h2.31v.07h-2.31z" fill="#494949"/><path d="m5.79 40.72h2.31v.07h-2.31z" fill="#4b4b4b"/><path d="m5.79 40.79h2.31v.07h-2.31z" fill="#4c4c4c"/><path d="m5.79 40.86h2.31v.07h-2.31z" fill="#4d4d4d"/><path d="m5.79 40.93h2.31v.07h-2.31z" fill="#4f4f4f"/><path d="m5.79 40.99h2.31v.07h-2.31z" fill="#505050"/><path d="m5.79 41.06h2.31v.07h-2.31z" fill="#515151"/><path d="m5.79 41.13h2.31v.07h-2.31z" fill="#535353"/><path d="m5.79 41.2h2.31v.07h-2.31z" fill="#545454"/><path d="m5.79 41.26h2.31v.07h-2.31z" fill="#565656"/><path d="m5.79 41.33h2.31v.07h-2.31z" fill="#575757"/><path d="m5.79 41.4h2.31v.07h-2.31z" fill="#595959"/><path d="m5.79 41.47h2.31v.07h-2.31z" fill="#5a5a5a"/><path d="m5.79 41.53h2.31v.07h-2.31z" fill="#5c5c5c"/><path d="m5.79 41.6h2.31v.07h-2.31z" fill="#5d5d5d"/><path d="m5.79 41.67h2.31v.07h-2.31z" fill="#5f5f5f"/><path d="m5.79 41.74h2.31v.07h-2.31z" fill="#606060"/><path d="m5.79 41.81h2.31v.07h-2.31z" fill="#626262"/><path d="m5.79 41.87h2.31v.07h-2.31z" fill="#636363"/><path d="m5.79 41.94h2.31v.07h-2.31z" fill="#656565"/><path d="m5.79 42.01h2.31v.07h-2.31z" fill="#676767"/><path d="m5.79 42.08h2.31v.07h-2.31z" fill="#686868"/><path d="m5.79 42.14h2.31v.07h-2.31z" fill="#6a6a6a"/><path d="m5.79 42.21h2.31v.07h-2.31z" fill="#6c6c6c"/><path d="m5.79 42.28h2.31v.07h-2.31z" fill="#6d6d6d"/><path d="m5.79 42.35h2.31v.07h-2.31z" fill="#6f6f6f"/><path d="m5.79 42.41h2.31v.07h-2.31z" fill="#717171"/><path d="m5.79 42.48h2.31v.07h-2.31z" fill="#727272"/><path d="m5.79 42.55h2.31v.07h-2.31z" fill="#747474"/><path d="m5.79 42.62h2.31v.07h-2.31z" fill="#767676"/><path d="m5.79 42.68h2.31v.07h-2.31z" fill="#787878"/><path d="m5.79 42.75h2.31v.07h-2.31z" fill="#7a7a7a"/><path d="m5.79 42.82h2.31v.07h-2.31z" fill="#7b7b7b"/><path d="m5.79 42.89h2.31v.07h-2.31z" fill="#7d7d7d"/><path d="m5.79 42.95h2.31v.07h-2.31z" fill="#7f7f7f"/><path d="m5.79 43.02h2.31v.07h-2.31z" fill="#818181"/><path d="m5.79 43.09h2.31v.07h-2.31z" fill="#838383"/><path d="m5.79 43.16h2.31v.07h-2.31z" fill="#858585"/><path d="m5.79 43.22h2.31v.07h-2.31z" fill="#878787"/><path d="m5.79 43.29h2.31v.07h-2.31z" fill="#898989"/><path d="m5.79 43.36h2.31v.07h-2.31z" fill="#8b8b8b"/><path d="m5.79 43.43h2.31v.07h-2.31z" fill="#8d8d8d"/><path d="m5.79 43.49h2.31v.07h-2.31z" fill="#8f8f8f"/><path d="m5.79 43.56h2.31v.07h-2.31z" fill="#919191"/><path d="m5.79 43.63h2.31v.07h-2.31z" fill="#939393"/><path d="m5.79 43.7h2.31v.07h-2.31z" fill="#959595"/><path d="m5.79 43.76h2.31v.07h-2.31z" fill="#979797"/><path d="m5.79 43.83h2.31v.07h-2.31z" fill="#999"/><path d="m5.79 43.9h2.31v.07h-2.31z" fill="#9b9b9b"/><path d="m5.79 43.97h2.31v.07h-2.31z" fill="#9d9d9d"/><path d="m5.79 44.03h2.31v.07h-2.31z" fill="#a0a0a0"/><path d="m5.79 44.1h2.31v.07h-2.31z" fill="#a2a2a2"/><path d="m5.79 44.17h2.31v.07h-2.31z" fill="#a4a4a4"/><path d="m5.79 44.24h2.31v.07h-2.31z" fill="#a6a6a6"/><path d="m5.79 44.31h2.31v.07h-2.31z" fill="#a9a9a9"/><path d="m5.79 44.37h2.31v.07h-2.31z" fill="#ababab"/><path d="m5.79 44.44h2.31v.07h-2.31z" fill="#adadad"/><path d="m5.79 44.51h2.31v.07h-2.31z" fill="#afafaf"/><path d="m5.79 44.58h2.31v.07h-2.31z" fill="#b2b2b2"/><path d="m5.79 44.64h2.31v.07h-2.31z" fill="#b4b4b4"/><path d="m5.79 44.71h2.31v.07h-2.31z" fill="#b7b7b7"/><path d="m5.79 44.78h2.31v.07h-2.31z" fill="#b9b9b9"/><path d="m5.79 44.85h2.31v.07h-2.31z" fill="#bbb"/><path d="m5.79 44.91h2.31v.07h-2.31z" fill="#bebebe"/><path d="m5.79 44.98h2.31v.07h-2.31z" fill="#c0c0c0"/><path d="m5.79 45.05h2.31v.07h-2.31z" fill="#c3c3c3"/><path d="m5.79 45.12h2.31v.07h-2.31z" fill="#c5c5c5"/><path d="m5.79 45.18h2.31v.07h-2.31z" fill="#c8c8c8"/><path d="m5.79 45.25h2.31v.07h-2.31z" fill="#cacaca"/><path d="m5.79 45.32h2.31v.07h-2.31z" fill="#cdcdcd"/><path d="m5.79 45.39h2.31v.07h-2.31z" fill="#d0d0d0"/><path d="m5.79 45.45h2.31v.07h-2.31z" fill="#d2d2d2"/><path d="m5.79 45.52h2.31v.07h-2.31z" fill="#d5d5d5"/><path d="m5.79 45.59h2.31v.07h-2.31z" fill="#d7d7d7"/><path d="m5.79 45.66h2.31v.07h-2.31z" fill="#dadada"/><path d="m5.79 45.72h2.31v.07h-2.31z" fill="#ddd"/><path d="m5.79 45.79h2.31v.07h-2.31z" fill="#e0e0e0"/><path d="m5.79 45.86h2.31v.07h-2.31z" fill="#e2e2e2"/><path d="m5.79 45.93h2.31v.07h-2.31z" fill="#e5e5e5"/><path d="m5.79 45.99h2.31v.07h-2.31z" fill="#e8e8e8"/><path d="m5.79 46.06h2.31v.07h-2.31z" fill="#ebebeb"/><path d="m5.79 46.13h2.31v.07h-2.31z" fill="#eee"/><path d="m5.79 46.2h2.31v.07h-2.31z" fill="#f0f0f0"/><path d="m5.79 46.26h2.31v.07h-2.31z" fill="#f3f3f3"/><path d="m5.79 46.33h2.31v.07h-2.31z" fill="#f6f6f6"/><path d="m5.79 46.4h2.31v.07h-2.31z" fill="#f9f9f9"/><path d="m5.79 46.47h2.31v.07h-2.31z" fill="#fcfcfc"/></g><path d="m40.71 22.87a10.32 10.32 0 0 0 .47 3.1c0 .17.08.32.12.46a8.59 8.59 0 0 1 .32 1.13c0-3.18.08-5.18.17-7.18a5.21 5.21 0 0 0 -1.08 2.49z" fill-rule="evenodd" opacity=".09"/><g clip-path="url(#f)" opacity=".09"><path d="m39.73 30.79h2.32v.07h-2.32z"/><path d="m39.73 30.86h2.32v.07h-2.32z"/><path d="m39.73 30.93h2.32v.07h-2.32z"/><path d="m39.73 30.99h2.32v.07h-2.32z"/><path d="m39.73 31.06h2.32v.07h-2.32z"/><path d="m39.73 31.13h2.32v.07h-2.32z"/><path d="m39.73 31.2h2.32v.07h-2.32z"/><path d="m39.73 31.27h2.32v.07h-2.32z"/><path d="m39.73 31.33h2.32v.07h-2.32z"/><path d="m39.73 31.4h2.32v.07h-2.32z"/><path d="m39.73 31.47h2.32v.07h-2.32z"/><g fill="#010101"><path d="m39.73 31.54h2.32v.07h-2.32z"/><path d="m39.73 31.6h2.32v.07h-2.32z"/><path d="m39.73 31.67h2.32v.07h-2.32z"/><path d="m39.73 31.74h2.32v.07h-2.32z"/><path d="m39.73 31.81h2.32v.07h-2.32z"/><path d="m39.73 31.87h2.32v.07h-2.32z"/><path d="m39.73 31.94h2.32v.07h-2.32z"/><path d="m39.73 32.01h2.32v.07h-2.32z"/><path d="m39.73 32.08h2.32v.07h-2.32z"/><path d="m39.73 32.14h2.32v.07h-2.32z"/><path d="m39.73 32.21h2.32v.07h-2.32z"/><path d="m39.73 32.28h2.32v.07h-2.32z"/><path d="m39.73 32.35h2.32v.07h-2.32z"/><path d="m39.73 32.41h2.32v.07h-2.32z"/></g><g fill="#020202"><path d="m39.73 32.48h2.32v.07h-2.32z"/><path d="m39.73 32.55h2.32v.07h-2.32z"/><path d="m39.73 32.62h2.32v.07h-2.32z"/><path d="m39.73 32.68h2.32v.07h-2.32z"/><path d="m39.73 32.75h2.32v.07h-2.32z"/><path d="m39.73 32.82h2.32v.07h-2.32z"/><path d="m39.73 32.89h2.32v.07h-2.32z"/><path d="m39.73 32.95h2.32v.07h-2.32z"/></g><path d="m39.73 33.02h2.32v.07h-2.32z" fill="#030303"/><path d="m39.73 33.09h2.32v.07h-2.32z" fill="#030303"/><path d="m39.73 33.16h2.32v.07h-2.32z" fill="#030303"/><path d="m39.73 33.22h2.32v.07h-2.32z" fill="#030303"/><path d="m39.73 33.29h2.32v.07h-2.32z" fill="#030303"/><path d="m39.73 33.36h2.32v.07h-2.32z" fill="#030303"/><path d="m39.73 33.43h2.32v.07h-2.32z" fill="#030303"/><path d="m39.73 33.49h2.32v.07h-2.32z" fill="#040404"/><path d="m39.73 33.56h2.32v.07h-2.32z" fill="#040404"/><path d="m39.73 33.63h2.32v.07h-2.32z" fill="#040404"/><path d="m39.73 33.7h2.32v.07h-2.32z" fill="#040404"/><path d="m39.73 33.77h2.32v.07h-2.32z" fill="#040404"/><path d="m39.73 33.83h2.32v.07h-2.32z" fill="#050505"/><path d="m39.73 33.9h2.32v.07h-2.32z" fill="#050505"/><path d="m39.73 33.97h2.32v.07h-2.32z" fill="#050505"/><path d="m39.73 34.04h2.32v.07h-2.32z" fill="#050505"/><path d="m39.73 34.1h2.32v.07h-2.32z" fill="#060606"/><path d="m39.73 34.17h2.32v.07h-2.32z" fill="#060606"/><path d="m39.73 34.24h2.32v.07h-2.32z" fill="#060606"/><path d="m39.73 34.31h2.32v.07h-2.32z" fill="#060606"/><path d="m39.73 34.37h2.32v.07h-2.32z" fill="#070707"/><path d="m39.73 34.44h2.32v.07h-2.32z" fill="#070707"/><path d="m39.73 34.51h2.32v.07h-2.32z" fill="#070707"/><path d="m39.73 34.58h2.32v.07h-2.32z" fill="#070707"/><path d="m39.73 34.64h2.32v.07h-2.32z" fill="#080808"/><path d="m39.73 34.71h2.32v.07h-2.32z" fill="#080808"/><path d="m39.73 34.78h2.32v.07h-2.32z" fill="#080808"/><path d="m39.73 34.85h2.32v.07h-2.32z" fill="#090909"/><path d="m39.73 34.91h2.32v.07h-2.32z" fill="#090909"/><path d="m39.73 34.98h2.32v.07h-2.32z" fill="#090909"/><path d="m39.73 35.05h2.32v.07h-2.32z" fill="#090909"/><path d="m39.73 35.12h2.32v.07h-2.32z" fill="#0a0a0a"/><path d="m39.73 35.18h2.32v.07h-2.32z" fill="#0a0a0a"/><path d="m39.73 35.25h2.32v.07h-2.32z" fill="#0b0b0b"/><path d="m39.73 35.32h2.32v.07h-2.32z" fill="#0b0b0b"/><path d="m39.73 35.39h2.32v.07h-2.32z" fill="#0b0b0b"/><path d="m39.73 35.45h2.32v.07h-2.32z" fill="#0c0c0c"/><path d="m39.73 35.52h2.32v.07h-2.32z" fill="#0c0c0c"/><path d="m39.73 35.59h2.32v.07h-2.32z" fill="#0c0c0c"/><path d="m39.73 35.66h2.32v.07h-2.32z" fill="#0d0d0d"/><path d="m39.73 35.72h2.32v.07h-2.32z" fill="#0d0d0d"/><path d="m39.73 35.79h2.32v.07h-2.32z" fill="#0e0e0e"/><path d="m39.73 35.86h2.32v.07h-2.32z" fill="#0e0e0e"/><path d="m39.73 35.93h2.32v.07h-2.32z" fill="#0f0f0f"/><path d="m39.73 35.99h2.32v.07h-2.32z" fill="#0f0f0f"/><path d="m39.73 36.06h2.32v.07h-2.32z" fill="#0f0f0f"/><path d="m39.73 36.13h2.32v.07h-2.32z" fill="#101010"/><path d="m39.73 36.2h2.32v.07h-2.32z" fill="#101010"/><path d="m39.73 36.26h2.32v.07h-2.32z" fill="#111"/><path d="m39.73 36.33h2.32v.07h-2.32z" fill="#111"/><path d="m39.73 36.4h2.32v.07h-2.32z" fill="#121212"/><path d="m39.73 36.47h2.32v.07h-2.32z" fill="#121212"/><path d="m39.73 36.54h2.32v.07h-2.32z" fill="#131313"/><path d="m39.73 36.6h2.32v.07h-2.32z" fill="#141414"/><path d="m39.73 36.67h2.32v.07h-2.32z" fill="#141414"/><path d="m39.73 36.74h2.32v.07h-2.32z" fill="#151515"/><path d="m39.73 36.81h2.32v.07h-2.32z" fill="#151515"/><path d="m39.73 36.87h2.32v.07h-2.32z" fill="#161616"/><path d="m39.73 36.94h2.32v.07h-2.32z" fill="#161616"/><path d="m39.73 37.01h2.32v.07h-2.32z" fill="#171717"/><path d="m39.73 37.08h2.32v.07h-2.32z" fill="#181818"/><path d="m39.73 37.14h2.32v.07h-2.32z" fill="#181818"/><path d="m39.73 37.21h2.32v.07h-2.32z" fill="#191919"/><path d="m39.73 37.28h2.32v.07h-2.32z" fill="#191919"/><path d="m39.73 37.35h2.32v.07h-2.32z" fill="#1a1a1a"/><path d="m39.73 37.41h2.32v.07h-2.32z" fill="#1b1b1b"/><path d="m39.73 37.48h2.32v.07h-2.32z" fill="#1b1b1b"/><path d="m39.73 37.55h2.32v.07h-2.32z" fill="#1c1c1c"/><path d="m39.73 37.62h2.32v.07h-2.32z" fill="#1d1d1d"/><path d="m39.73 37.68h2.32v.07h-2.32z" fill="#1e1e1e"/><path d="m39.73 37.75h2.32v.07h-2.32z" fill="#1e1e1e"/><path d="m39.73 37.82h2.32v.07h-2.32z" fill="#1f1f1f"/><path d="m39.73 37.89h2.32v.07h-2.32z" fill="#202020"/><path d="m39.73 37.95h2.32v.07h-2.32z" fill="#202020"/><path d="m39.73 38.02h2.32v.07h-2.32z" fill="#212121"/><path d="m39.73 38.09h2.32v.07h-2.32z" fill="#222"/><path d="m39.73 38.16h2.32v.07h-2.32z" fill="#232323"/><path d="m39.73 38.22h2.32v.07h-2.32z" fill="#242424"/><path d="m39.73 38.29h2.32v.07h-2.32z" fill="#242424"/><path d="m39.73 38.36h2.32v.07h-2.32z" fill="#252525"/><path d="m39.73 38.43h2.32v.07h-2.32z" fill="#262626"/><path d="m39.73 38.49h2.32v.07h-2.32z" fill="#272727"/><path d="m39.73 38.56h2.32v.07h-2.32z" fill="#282828"/><path d="m39.73 38.63h2.32v.07h-2.32z" fill="#292929"/><path d="m39.73 38.7h2.32v.07h-2.32z" fill="#2a2a2a"/><path d="m39.73 38.76h2.32v.07h-2.32z" fill="#2a2a2a"/><path d="m39.73 38.83h2.32v.07h-2.32z" fill="#2b2b2b"/><path d="m39.73 38.9h2.32v.07h-2.32z" fill="#2c2c2c"/><path d="m39.73 38.97h2.32v.07h-2.32z" fill="#2d2d2d"/><path d="m39.73 39.04h2.32v.07h-2.32z" fill="#2e2e2e"/><path d="m39.73 39.1h2.32v.07h-2.32z" fill="#2f2f2f"/><path d="m39.73 39.17h2.32v.07h-2.32z" fill="#303030"/><path d="m39.73 39.24h2.32v.07h-2.32z" fill="#313131"/><path d="m39.73 39.31h2.32v.07h-2.32z" fill="#323232"/><path d="m39.73 39.37h2.32v.07h-2.32z" fill="#333"/><path d="m39.73 39.44h2.32v.07h-2.32z" fill="#343434"/><path d="m39.73 39.51h2.32v.07h-2.32z" fill="#353535"/><path d="m39.73 39.58h2.32v.07h-2.32z" fill="#363636"/><path d="m39.73 39.64h2.32v.07h-2.32z" fill="#373737"/><path d="m39.73 39.71h2.32v.07h-2.32z" fill="#383838"/><path d="m39.73 39.78h2.32v.07h-2.32z" fill="#3a3a3a"/><path d="m39.73 39.85h2.32v.07h-2.32z" fill="#3b3b3b"/><path d="m39.73 39.91h2.32v.07h-2.32z" fill="#3c3c3c"/><path d="m39.73 39.98h2.32v.07h-2.32z" fill="#3d3d3d"/><path d="m39.73 40.05h2.32v.07h-2.32z" fill="#3e3e3e"/><path d="m39.73 40.12h2.32v.07h-2.32z" fill="#3f3f3f"/><path d="m39.73 40.18h2.32v.07h-2.32z" fill="#414141"/><path d="m39.73 40.25h2.32v.07h-2.32z" fill="#424242"/><path d="m39.73 40.32h2.32v.07h-2.32z" fill="#434343"/><path d="m39.73 40.39h2.32v.07h-2.32z" fill="#444"/><path d="m39.73 40.45h2.32v.07h-2.32z" fill="#454545"/><path d="m39.73 40.52h2.32v.07h-2.32z" fill="#474747"/><path d="m39.73 40.59h2.32v.07h-2.32z" fill="#484848"/><path d="m39.73 40.66h2.32v.07h-2.32z" fill="#494949"/><path d="m39.73 40.72h2.32v.07h-2.32z" fill="#4b4b4b"/><path d="m39.73 40.79h2.32v.07h-2.32z" fill="#4c4c4c"/><path d="m39.73 40.86h2.32v.07h-2.32z" fill="#4d4d4d"/><path d="m39.73 40.93h2.32v.07h-2.32z" fill="#4f4f4f"/><path d="m39.73 40.99h2.32v.07h-2.32z" fill="#505050"/><path d="m39.73 41.06h2.32v.07h-2.32z" fill="#515151"/><path d="m39.73 41.13h2.32v.07h-2.32z" fill="#535353"/><path d="m39.73 41.2h2.32v.07h-2.32z" fill="#545454"/><path d="m39.73 41.26h2.32v.07h-2.32z" fill="#565656"/><path d="m39.73 41.33h2.32v.07h-2.32z" fill="#575757"/><path d="m39.73 41.4h2.32v.07h-2.32z" fill="#595959"/><path d="m39.73 41.47h2.32v.07h-2.32z" fill="#5a5a5a"/><path d="m39.73 41.53h2.32v.07h-2.32z" fill="#5c5c5c"/><path d="m39.73 41.6h2.32v.07h-2.32z" fill="#5d5d5d"/><path d="m39.73 41.67h2.32v.07h-2.32z" fill="#5f5f5f"/><path d="m39.73 41.74h2.32v.07h-2.32z" fill="#606060"/><path d="m39.73 41.81h2.32v.07h-2.32z" fill="#626262"/><path d="m39.73 41.87h2.32v.07h-2.32z" fill="#636363"/><path d="m39.73 41.94h2.32v.07h-2.32z" fill="#656565"/><path d="m39.73 42.01h2.32v.07h-2.32z" fill="#676767"/><path d="m39.73 42.08h2.32v.07h-2.32z" fill="#686868"/><path d="m39.73 42.14h2.32v.07h-2.32z" fill="#6a6a6a"/><path d="m39.73 42.21h2.32v.07h-2.32z" fill="#6c6c6c"/><path d="m39.73 42.28h2.32v.07h-2.32z" fill="#6d6d6d"/><path d="m39.73 42.35h2.32v.07h-2.32z" fill="#6f6f6f"/><path d="m39.73 42.41h2.32v.07h-2.32z" fill="#717171"/><path d="m39.73 42.48h2.32v.07h-2.32z" fill="#727272"/><path d="m39.73 42.55h2.32v.07h-2.32z" fill="#747474"/><path d="m39.73 42.62h2.32v.07h-2.32z" fill="#767676"/><path d="m39.73 42.68h2.32v.07h-2.32z" fill="#787878"/><path d="m39.73 42.75h2.32v.07h-2.32z" fill="#7a7a7a"/><path d="m39.73 42.82h2.32v.07h-2.32z" fill="#7b7b7b"/><path d="m39.73 42.89h2.32v.07h-2.32z" fill="#7d7d7d"/><path d="m39.73 42.95h2.32v.07h-2.32z" fill="#7f7f7f"/><path d="m39.73 43.02h2.32v.07h-2.32z" fill="#818181"/><path d="m39.73 43.09h2.32v.07h-2.32z" fill="#838383"/><path d="m39.73 43.16h2.32v.07h-2.32z" fill="#858585"/><path d="m39.73 43.22h2.32v.07h-2.32z" fill="#878787"/><path d="m39.73 43.29h2.32v.07h-2.32z" fill="#898989"/><path d="m39.73 43.36h2.32v.07h-2.32z" fill="#8b8b8b"/><path d="m39.73 43.43h2.32v.07h-2.32z" fill="#8d8d8d"/><path d="m39.73 43.49h2.32v.07h-2.32z" fill="#8f8f8f"/><path d="m39.73 43.56h2.32v.07h-2.32z" fill="#919191"/><path d="m39.73 43.63h2.32v.07h-2.32z" fill="#939393"/><path d="m39.73 43.7h2.32v.07h-2.32z" fill="#959595"/><path d="m39.73 43.76h2.32v.07h-2.32z" fill="#979797"/><path d="m39.73 43.83h2.32v.07h-2.32z" fill="#999"/><path d="m39.73 43.9h2.32v.07h-2.32z" fill="#9b9b9b"/><path d="m39.73 43.97h2.32v.07h-2.32z" fill="#9d9d9d"/><path d="m39.73 44.03h2.32v.07h-2.32z" fill="#a0a0a0"/><path d="m39.73 44.1h2.32v.07h-2.32z" fill="#a2a2a2"/><path d="m39.73 44.17h2.32v.07h-2.32z" fill="#a4a4a4"/><path d="m39.73 44.24h2.32v.07h-2.32z" fill="#a6a6a6"/><path d="m39.73 44.31h2.32v.07h-2.32z" fill="#a9a9a9"/><path d="m39.73 44.37h2.32v.07h-2.32z" fill="#ababab"/><path d="m39.73 44.44h2.32v.07h-2.32z" fill="#adadad"/><path d="m39.73 44.51h2.32v.07h-2.32z" fill="#afafaf"/><path d="m39.73 44.58h2.32v.07h-2.32z" fill="#b2b2b2"/><path d="m39.73 44.64h2.32v.07h-2.32z" fill="#b4b4b4"/><path d="m39.73 44.71h2.32v.07h-2.32z" fill="#b7b7b7"/><path d="m39.73 44.78h2.32v.07h-2.32z" fill="#b9b9b9"/><path d="m39.73 44.85h2.32v.07h-2.32z" fill="#bbb"/><path d="m39.73 44.91h2.32v.07h-2.32z" fill="#bebebe"/><path d="m39.73 44.98h2.32v.07h-2.32z" fill="#c0c0c0"/><path d="m39.73 45.05h2.32v.07h-2.32z" fill="#c3c3c3"/><path d="m39.73 45.12h2.32v.07h-2.32z" fill="#c5c5c5"/><path d="m39.73 45.18h2.32v.07h-2.32z" fill="#c8c8c8"/><path d="m39.73 45.25h2.32v.07h-2.32z" fill="#cacaca"/><path d="m39.73 45.32h2.32v.07h-2.32z" fill="#cdcdcd"/><path d="m39.73 45.39h2.32v.07h-2.32z" fill="#d0d0d0"/><path d="m39.73 45.45h2.32v.07h-2.32z" fill="#d2d2d2"/><path d="m39.73 45.52h2.32v.07h-2.32z" fill="#d5d5d5"/><path d="m39.73 45.59h2.32v.07h-2.32z" fill="#d7d7d7"/><path d="m39.73 45.66h2.32v.07h-2.32z" fill="#dadada"/><path d="m39.73 45.72h2.32v.07h-2.32z" fill="#ddd"/><path d="m39.73 45.79h2.32v.07h-2.32z" fill="#e0e0e0"/><path d="m39.73 45.86h2.32v.07h-2.32z" fill="#e2e2e2"/><path d="m39.73 45.93h2.32v.07h-2.32z" fill="#e5e5e5"/><path d="m39.73 45.99h2.32v.07h-2.32z" fill="#e8e8e8"/><path d="m39.73 46.06h2.32v.07h-2.32z" fill="#ebebeb"/><path d="m39.73 46.13h2.32v.07h-2.32z" fill="#eee"/><path d="m39.73 46.2h2.32v.07h-2.32z" fill="#f0f0f0"/><path d="m39.73 46.26h2.32v.07h-2.32z" fill="#f3f3f3"/><path d="m39.73 46.33h2.32v.07h-2.32z" fill="#f6f6f6"/><path d="m39.73 46.4h2.32v.07h-2.32z" fill="#f9f9f9"/><path d="m39.73 46.47h2.32v.07h-2.32z" fill="#fcfcfc"/><path d="m39.73 46.53h2.32v.07h-2.32z" fill="#fff"/><path d="m39.73 54.98v-8.38h2.32" fill="#fff" fill-rule="evenodd"/></g></svg>