<svg viewBox="0 0 34.67 24.27" xmlns="http://www.w3.org/2000/svg"><path d="m34.42.4c-.57-.09-7.77-.15-8.37-.15h-13.91a11.89 11.89 0 1 0 0 23.77h13.91c.6 0 7.8-.06 8.37-.14z" fill="#5c88c1" stroke="#e5e5e5" stroke-miterlimit="10" stroke-width=".5"/><path d="m26.34 12.36a.15.15 0 0 1 0-.07v-.12-.07a.5.5 0 0 0 0-.12.06.06 0 0 0 0 0 .7.7 0 0 0 -.19-.29l-5.41-4.85a.68.68 0 0 0 -.95.06.66.66 0 0 0 .06.94l4.09 3.62h-9.94a.67.67 0 1 0 0 1.34h10l-4.11 3.63a.66.66 0 0 0 -.05.94.66.66 0 0 0 .5.23.7.7 0 0 0 .44-.17l5.41-4.79s0 0 0 0a1.1 1.1 0 0 0 .09-.14s.05-.13.06-.14z" fill="#fff"/></svg>