<svg viewBox="0 0 34.67 24.27" xmlns="http://www.w3.org/2000/svg"><path d="m.25 23.88c.58.12 7.75.12 8.38.12h13.91a11.89 11.89 0 0 0 0-23.77h-13.91c-.63.02-7.8.08-8.38.17z" fill="#5c88c1" stroke="#e5e5e5" stroke-miterlimit="10" stroke-width=".5"/><path d="m8.34 11.92s0 0 0 .06a.5.5 0 0 0 0 .12s0 0 0 0 0 .07 0 .11a.06.06 0 0 1 0 0 .64.64 0 0 0 .19.29l5.42 4.79a.66.66 0 0 0 .94-.06.67.67 0 0 0 -.06-.94l-4.08-3.62h9.9a.67.67 0 1 0 0-1.34h-9.93l4.1-3.63a.66.66 0 0 0 .06-.94.67.67 0 0 0 -.5-.23.7.7 0 0 0 -.45.17l-5.41 4.93s0 0 0 0a.6.6 0 0 0 -.09.13.43.43 0 0 0 -.09.16z" fill="#fff"/></svg>