<svg viewBox="0 0 32.83 20.89" xmlns="http://www.w3.org/2000/svg"><path d="m10.45 20.77a10.33 10.33 0 0 1 0-20.65h11.93a10.33 10.33 0 0 1 0 20.65z" fill="#e2e2e2"/><g fill="#fff"><path d="m22.38.25a10.2 10.2 0 1 1 0 20.39h-11.93a10.2 10.2 0 1 1 0-20.39zm0-.25h-11.93a10.45 10.45 0 1 0 0 20.89h11.93a10.45 10.45 0 1 0 0-20.89z"/><path d="m16.19 16.91h.08.12.08.12a.7.7 0 0 0 .29-.19l4.79-5.41a.67.67 0 1 0 -1-.89l-3.62 4.09v-9.9a.67.67 0 0 0 -1.34 0v9.92l-3.63-4.11a.66.66 0 0 0 -.94-.05.66.66 0 0 0 -.23.5.67.67 0 0 0 .17.44l4.79 5.41a.55.55 0 0 0 .14.09z" opacity=".64"/></g></svg>