<svg viewBox="0 0 11.39 11.4" xmlns="http://www.w3.org/2000/svg"><path d="m9.83 1.23h-1.29v-.77a.43.43 0 1 0 -.85 0v.77h-4v-.77a.45.45 0 0 0 -.41-.46.45.45 0 0 0 -.43.46v.77h-1.28a1.62 1.62 0 0 0 -1.57 1.68v3.44a.43.43 0 0 0 .43.43.43.43 0 0 0 .43-.43v-.95h9.68v4.32a.75.75 0 0 1 -.71.77h-8.26a.75.75 0 0 1 -.71-.77v-.17a.43.43 0 0 0 -.43-.43.43.43 0 0 0 -.43.43v.17a1.62 1.62 0 0 0 1.57 1.68h8.26a1.62 1.62 0 0 0 1.56-1.68v-6.81a1.62 1.62 0 0 0 -1.56-1.68zm.71 3.26h-9.68v-1.58a.75.75 0 0 1 .71-.77h1.28v1.07a.43.43 0 1 0 .86 0v-1.07h4v1.07a.43.43 0 1 0 .85 0v-1.07h1.27a.75.75 0 0 1 .71.77z" fill="#0a0a16"/></svg>