<svg viewBox="0 0 13.36 13.36" xmlns="http://www.w3.org/2000/svg"><path d="m3.34 6.55a.08.08 0 0 1 0 0s0 0 0 .07a0 0 0 0 0 0 0s0 0 0 .07a.34.34 0 0 0 .11.31l3.17 2.78a.39.39 0 0 0 .52-.59l-2.39-2.12h4.9a.38.38 0 0 0 .35-.39.39.39 0 0 0 -.39-.39h-4.88l2.41-2.12a.41.41 0 0 0 0-.56.41.41 0 0 0 -.29-.13.35.35 0 0 0 -.26.1l-3.14 2.8s0 0 0 0a.35.35 0 0 0 0 .08 0 0 0 0 1 -.11.09z" fill="#fff"/><path d="m11.24 2.26a6.35 6.35 0 1 1 -4.56-1.94 6.4 6.4 0 0 1 2.32.46" fill="none" stroke="#fff" stroke-linecap="round" stroke-miterlimit="10" stroke-width=".65"/></svg>