<svg viewBox="0 0 13.36 13.36" xmlns="http://www.w3.org/2000/svg"><path d="m10 6.55s0 0 0 0a.25.25 0 0 1 0 .07.15.15 0 0 1 0 .07.42.42 0 0 1 -.09.31l-3.17 2.78a.41.41 0 0 1 -.56 0 .39.39 0 0 1 0-.55l2.43-2.16h-4.9a.39.39 0 0 1 -.4-.39.4.4 0 0 1 .4-.39h4.91l-2.4-2.12a.41.41 0 0 1 0-.56.43.43 0 0 1 .3-.13.39.39 0 0 1 .26.1l3.17 2.8a0 0 0 0 1 0 0 .35.35 0 0 1 .05.08 0 0 0 0 1 0 .09z" fill="#fff"/><path d="m2.11 2.26a6.41 6.41 0 1 0 2.21-1.48" fill="none" stroke="#fff" stroke-linecap="round" stroke-miterlimit="10" stroke-width=".65"/></svg>