<svg viewBox="0 0 17.14 19.8" xmlns="http://www.w3.org/2000/svg"><path d="m16.68 5.4a1.7 1.7 0 0 1 .06 1.86 1.64 1.64 0 0 1 -.16 2.29 1.55 1.55 0 0 1 -.17 2.06 1.85 1.85 0 0 1 -1 2.14 1.8 1.8 0 0 0 -.08.21 2.1 2.1 0 0 1 -1.55 1.39 2.69 2.69 0 0 0 -1.08.38 2 2 0 0 1 -1.38.15l-.47-.1c0 .06-.07.11-.09.16a3.19 3.19 0 0 1 -.52 1 1.54 1.54 0 0 0 -.28.85c0 .32 0 .63-.06.94a1.7 1.7 0 0 1 -.2.73.61.61 0 0 1 -1.07.1 1.53 1.53 0 0 1 -.27-.85l-.09-1.16a3.5 3.5 0 0 0 -.26-1 6.08 6.08 0 0 1 -.41-1.38 2.69 2.69 0 0 1 .37-1.8 1.53 1.53 0 0 1 1.35-.75 3.57 3.57 0 0 1 .65.06h.28a1.12 1.12 0 0 1 1.13-.07 2.19 2.19 0 0 1 .43-.22 2.41 2.41 0 0 1 .5-.07 1.52 1.52 0 0 1 .69-1.41 1 1 0 0 1 .06-.74c.11-.23.25-.44.4-.7a1.56 1.56 0 0 1 .21-1.66 1.71 1.71 0 0 1 -.14-1.81 1.85 1.85 0 0 1 -.16-1.3l-.47-.65a4 4 0 0 1 -.59.25 4.22 4.22 0 0 1 -.65.1 1.66 1.66 0 0 1 -.85.74 3 3 0 0 1 -1.15.12l-.19.13a1.82 1.82 0 0 1 -1.31.35c-.24 0-.46-.1-.7-.14a.77.77 0 0 0 -.3 0 2.19 2.19 0 0 1 -2.09-.67l-.07-.09a1.47 1.47 0 0 1 -1.41-.75h-.14-.14a1.5 1.5 0 0 1 -.31 1.55 1.61 1.61 0 0 1 .3 1.86 1.82 1.82 0 0 1 .66.84 2.35 2.35 0 0 1 .04 1.06c.11.06.22.14.33.19a1.75 1.75 0 0 1 .83.89 3.09 3.09 0 0 1 .27 1.41s0 0 0 .06a1.78 1.78 0 0 1 .49 1.79 4.19 4.19 0 0 1 -.29.91 1.7 1.7 0 0 0 -.15.8.59.59 0 0 1 -.06.4.37.37 0 0 1 -.28-.25 1.4 1.4 0 0 1 -.14-.88c0-.15.06-.29.09-.44a.74.74 0 0 0 -.77-1 1.57 1.57 0 0 0 -.37 0 3 3 0 0 1 -1.29 0 2 2 0 0 1 -1.66-1.71 3.34 3.34 0 0 1 0-1.18c0-.05 0-.09 0-.16a1.94 1.94 0 0 1 -.61-2.11 2.09 2.09 0 0 1 -.08-2.12 2 2 0 0 1 .22-2.33 1.09 1.09 0 0 1 -.08-.15 1.65 1.65 0 0 1 .55-2.28 2.83 2.83 0 0 1 .92-.4 1.63 1.63 0 0 1 1.59-.84 1.75 1.75 0 0 1 1.57 1 1.56 1.56 0 0 1 1.37 1.05 1.65 1.65 0 0 1 1.55.58 1.8 1.8 0 0 1 .7-.33 1.35 1.35 0 0 1 .75.17 1.56 1.56 0 0 1 .55-.65 1.59 1.59 0 0 1 .92-.05 2.5 2.5 0 0 1 1.4-1.13 2.82 2.82 0 0 1 1.79.13 2.07 2.07 0 0 1 1-.18 1.66 1.66 0 0 1 1.61 1.61 2.9 2.9 0 0 1 0 .51c0 .16-.07.33-.11.52a1.91 1.91 0 0 1 .07 2.17z" fill="#fff"/></svg>