<svg viewBox="0 0 11.99 11.99" xmlns="http://www.w3.org/2000/svg"><g fill="#5ba4ba"><path d="m6 12a6 6 0 1 1 0-12 5.93 5.93 0 0 1 3.71 1.29.28.28 0 0 1 0 .39.27.27 0 0 1 -.39 0 5.44 5.44 0 1 0 1.37 1.6.28.28 0 0 1 .1-.38.29.29 0 0 1 .38.11 6 6 0 0 1 -5.17 8.99z"/><g stroke="#5ba4ba" stroke-miterlimit="10" stroke-width=".13"><path d="m10.16 1.88a.11.11 0 0 0 -.13 0 3 3 0 0 1 -2.77 1c-.31 0-.62 0-.94 0h-.12a3.85 3.85 0 0 0 -1.4.42 3.26 3.26 0 0 0 -1.61 1.95 3.12 3.12 0 0 0 .18 2.23l-.17.26a3.1 3.1 0 0 0 -.52 1.59.12.12 0 0 0 .12.12h1.27a.12.12 0 0 0 .12-.12.12.12 0 0 0 -.12-.13h-1l.41-.41a.12.12 0 0 0 0-.09 7.55 7.55 0 0 1 .12-.94 2.07 2.07 0 0 0 .77.15 2.22 2.22 0 0 0 1.87-1c.67-1 .69-1 1.25-1.32.25-.14.59-.33 1.11-.66a3.07 3.07 0 0 0 1.66-2.93.13.13 0 0 0 -.1-.1zm-6.85 6.76-.31.36a3.06 3.06 0 0 1 .4-1.1c0 .25-.07.49-.09.74zm5.24-4a.92.92 0 0 1 -.36-.13.13.13 0 0 0 -.18 0 .14.14 0 0 0 0 .18.75.75 0 0 0 .2.1c-.35.22-.6.36-.79.46a2.64 2.64 0 0 0 -.64.45 1.28 1.28 0 0 1 -.67-.09.13.13 0 0 0 -.11.12.13.13 0 0 0 0 .17 1.24 1.24 0 0 0 .59.1l-.42.6a1.37 1.37 0 0 1 -1.17.09.13.13 0 0 0 -.12.22 1.38 1.38 0 0 0 .59.14 1.42 1.42 0 0 0 .43-.05 1.87 1.87 0 0 1 -2.16.52 2.58 2.58 0 0 1 .09-.35 3.44 3.44 0 0 1 2.81-2.54 9.43 9.43 0 0 0 2.16-.88.11.11 0 0 0 .07-.11.11.11 0 0 0 -.06-.11.15.15 0 0 0 -.13 0 9.14 9.14 0 0 1 -2.11.85 3.7 3.7 0 0 0 -3 2.69v.11a2.83 2.83 0 0 1 -.1-1.88 1.3 1.3 0 0 0 .14.32.13.13 0 0 0 .18 0 .12.12 0 0 0 0-.17 1.6 1.6 0 0 1 -.18-.6 3 3 0 0 1 .89-1.05 2.09 2.09 0 0 0 -.18.85.13.13 0 0 0 .13.13.12.12 0 0 0 .12-.13 2.07 2.07 0 0 1 .36-1.13 3.55 3.55 0 0 1 1.07-.36 2.38 2.38 0 0 0 -.18.3.12.12 0 0 0 0 .13.13.13 0 0 0 .18.05.12.12 0 0 0 .1-.07 2.32 2.32 0 0 1 .31-.44 8.42 8.42 0 0 1 .87 0h.31a1.55 1.55 0 0 0 -.08.23.11.11 0 0 0 0 .12.13.13 0 0 0 .12 0 .14.14 0 0 0 .09-.09 1.42 1.42 0 0 1 .1-.29 2.89 2.89 0 0 0 2.18-.78 2.92 2.92 0 0 1 -1.45 2.35z"/><path d="m8.61 9.45a.12.12 0 0 0 .13-.12.13.13 0 0 0 -.13-.13h-4a.12.12 0 0 0 -.12.13.12.12 0 0 0 .12.12z"/></g></g></svg>