<svg enable-background="new 0 0 512 512" viewBox="0 0 512 512" xmlns="http://www.w3.org/2000/svg"><path d="m494.9 237.2c-7.3-11.5-21.1-15.6-31.2-12.7-65.3 19.1-65.3 19.8-71.5 18.9-7.7-1.1-13.4-5.9-16.4-12.9-43.1-108.2-40.3-101.3-40.8-102.1-6.8-13.2-21.4-18.4-32.5-15.2-116.8 32.6-110.5 31.2-114.5 31.1-11.5 0-18.7-7.9-21.1-18.8-15.3-67.9-14.2-63-14.6-64.3-10.6-27.7-48.7-24.7-60.6 5.1-38.4 92.5-64.4 155.1-64.4 155.2-12.4 29.9-8.6 20.6-9.3 22.5-9.7 24.5-2.7 52 18.8 63.5l283.4 152.2c22 11.9 49.4 1.2 63.4-19.7l109.1-162.1c8.9-12.7 9.8-28.7 2.2-40.7zm-369.8-168.5c.8 0 1.5.1 2.1 1.4l13.8 61.4c6.9 30.6 34.3 45 60.1 37.7l107.8-30.1c1-.1 1.7.3 2.2 1.2 42.1 105.6 40 100.4 40.2 100.6 6.6 15.7 20.2 26.6 37.4 29 13.3 1.9 16.4-.4 81.7-19.5 1.2-.1 1.7.3 2.2 1.1 1.5 2.3 1.6 6.8-1.6 11.2-.1.1 3.2-4.7-89 132.3l-325.4-174.5c60.4-145.5 59.9-144.1 59.9-144.2 2.1-5.7 6.4-7.6 8.6-7.6zm207.8 367.6-283.6-152.3c-8.7-4.7-11.5-17.6-6.6-30.2l3.6-8.6 320.7 172.1-5.3 7.8c-7.7 11.1-20.2 15.9-28.8 11.2z" stroke="#000" stroke-miterlimit="10" stroke-width="22"/></svg>