<svg viewBox="0 0 15.17 14.72" xmlns="http://www.w3.org/2000/svg"><path d="m14 14.72h-12.83a1.17 1.17 0 0 1 -1.04-1.72l6.42-12.37a1.17 1.17 0 0 1 2.08 0l.93 1.81a.5.5 0 0 1 -.21.67.51.51 0 0 1 -.68-.21l-.93-1.81c-.08-.16-.22-.16-.31 0l-6.43 12.38a.16.16 0 0 0 0 .17.16.16 0 0 0 .14.08h12.86a.17.17 0 0 0 .15-.25l-4.25-8.21a.5.5 0 0 1 .21-.67.51.51 0 0 1 .68.21l4.21 8.2a1.17 1.17 0 0 1 -1 1.71z" fill="#f1842b"/><path d="m7 9.64v-4.64a.62.62 0 0 1 1.21 0v4.64a.62.62 0 1 1 -1.21 0zm.62 2.74a.62.62 0 0 1 -.62-.62v-.23a.62.62 0 1 1 1.24 0v.23a.62.62 0 0 1 -.65.62z" fill="#fff"/></svg>