<svg viewBox="0 0 10.06 12.47" xmlns="http://www.w3.org/2000/svg"><g fill="#0a0a16"><path d="m8.36 12.47h-6.66a1.7 1.7 0 0 1 -1.7-1.7v-6a.4.4 0 0 1 .8 0v6a.9.9 0 0 0 .9.9h6.66a.9.9 0 0 0 .9-.9v-9.07a.9.9 0 0 0 -.9-.9h-6.66a.9.9 0 0 0 -.9.9.4.4 0 0 1 -.8 0 1.7 1.7 0 0 1 1.7-1.7h6.66a1.7 1.7 0 0 1 1.7 1.7v9.07a1.7 1.7 0 0 1 -1.7 1.7z"/><path d="m7.8 3.65h-5.65a.4.4 0 0 1 0-.8h5.65a.4.4 0 1 1 0 .8z"/><path d="m7.8 6.62h-5.65a.4.4 0 0 1 0-.8h5.65a.4.4 0 0 1 0 .8z"/><path d="m7.8 9.44h-5.65a.4.4 0 1 1 0-.8h5.65a.4.4 0 1 1 0 .8z"/></g></svg>