<svg height="22.75161mm" viewBox="0 0 123.61043 22.75161" width="123.61044mm" xmlns="http://www.w3.org/2000/svg"><path d="m62.656544 165.21097c.0013.002.0024.005.0036.007l-.001-.007zm.0036.007 1.094507 8.94002c-.02117-.0134-.04055-.0294-.06201-.0424l.07286.13126.155548 1.27124c-.02487.0841-.04608.16932-.0646.25528h-.495039l-.771012-.58911.463537-.83767c-.314722.002-.63799.0235-.933794.14004-.07705.0304-.142245.0719-.20257.11782l-.155546-.1974.922425-2.76676c-.353801.00026-.730586.0614-1.012341.29197-.499533.40879-.523835 1.07127-.519867 1.70016l-.484208-.61443c.01429.11175.07049.21215.114205.31419.114035.266.238971.52641.370519.78341-.000129.006.000135.012 0 .0176-.0026.10239-.02116.18226-.05013.24857-.0042.00026-.0081.00082-.0124.001-.205528.0181-.410943.0399-.6165.0651-.06456-.23052-.136541-.45886-.224277-.68264-.188516-.48085-.423855-.95719-.756542-1.35392l1.226281-3.67937c-.192749.19305-.362289.40786-.517282.63201-.673523.97402-1.092173 2.09751-1.45624 3.21789-.250852.77197-.457131 1.55815-.626835 2.35231-.14015.0428-.279223.0892-.417547.13746l-.0801-.061c-.05847-.27841-.121619-.55572-.191204-.83147-.293344-1.16212-.647909-2.33319-1.249019-3.37396l.25218-.84853c-.200448.10225-.38084.23311-.545702.38293-.31242-.45815-.688005-.89318-1.188041-1.14825l.562239 1.89135c-.02487.0364-.05279.0714-.077.10801-.633307.9583-1.016198 2.05203-1.320333 3.15794-.265827.005-.534474.0308-.786516.11783-.180049-.89574-.408709-1.78153-.690914-2.64997-.05942-.18288-.12386-.36485-.187068-.54725.01191-.0271.02619-.0529.03772-.0801.04368-.10204.100022-.20244.114204-.3142l-.199987.25374c-.313823-.88648-.685267-1.75589-1.220598-2.53008-.155019-.22414-.325047-.43895-.517797-.632l1.257287 3.77237-2.242757 2.84738c-.108585-.0747-.223183-.14105-.343648-.19586-.0368-.0168-.0739-.0325-.112655-.0444l.312126.42323-.387573.49196c-.118876-.19305-.243293-.3826-.376722-.56586-.276781-.38014-.61138-.72803-.98857-1.01647l.943095-7.70237c-.748427 1.49677-1.213001 3.12086-1.500683 4.76508-.116946.6684-.205131 1.3397-.272335 2.0128-.04831.12161-.09282.24462-.137976.36742-.146552-.0592-.296855-.10912-.450102-.14883-.185473-.18499-.382172-.35852-.591695-.51108-1.29024-.93944-2.837988-1.5208-4.415751-1.70636-.162031-.0191-.325043-.0332-.488343-.0336l1.121379.81546 4.16202 3.02669c-.120596.0647-.236234.13882-.347783.21807-.2649-.18823-.55545-.34202-.86713-.43563l.40566.82114c-.193807.18639-.36993.38959-.530717.60564h-1.449524c-.08403-.12187-.172204-.24041-.264067-.35605l.61495-.84594c.03342-.0405.06802-.0798.100769-.12092l.02791-.0563.444418-.61082c-.762767.0202-1.473858.3107-2.081527.75293-.08998-.067-.181895-.13178-.278019-.18965l.06305.1142.09147.16537c-.23675.18475-.456952.3917-.655257.6165-.02794-.13335-.05542-.26657-.0863-.39946-.262678-1.13022-.574212-2.3336-1.389579-3.20291l.590662 4.13308h-.13901c-.186584-.18406-.388499-.35146-.602547-.50126l.188102-.92552c-.189203.22597-.363052.46349-.522965.71003-.116999-.0684-.237404-.13085-.359668-.18965-.191506-.90553-.443075-1.79928-.771529-2.66392l.08578-.25683c-.05958.00004-.120026.005-.180351.009-.146447-.36621-.306433-.72711-.483175-1.08056l.138493 1.12965c-.176477.0439-.344354.11659-.487309.23358-.610288.49944-.511979 1.37699-.518831 2.1084-.0045-.00005-.0089-.00052-.01344-.00052l.01344.0109v.0816c-.01164.49923-.385901.50805-.673344.63511-.256011-.0895-.515765-.16818-.77773-.23927-.02434-.11169-.048-.22354-.0739-.33486l.185519-.15348c-.07377.00079-.147462.004-.221175.008-.142795-.59705-.306467-1.18889-.496094-1.7725-.364067-1.12038-.782719-2.24387-1.456242-3.21789-.15502-.22415-.324532-.43896-.517281-.63201l1.894458 5.68389c-.205079.0334-.407955.0798-.607715.13695-.440611-.0742-.883448-.13113-1.326017-.17002-.04313-.004-.08653-.006-.129708-.009-.182747-.3864-.397266-.75711-.641821-1.10794l.280603-.50643c-.207804.001-.418204.0124-.622701.0522-.01402-.0171-.02663-.0352-.04083-.0522l.01189.0579c-.06583.0138-.131096.0303-.195337.0511-.0093.003-.01772.008-.02687.0114l-1.096574-1.39164c.01429.11174.07049.21216.114205.31419.189203.44139.407599.86788.642338 1.28571-.194416.18328-.310983.44063-.309025.71468.0027.29778.137212.80439-.339514.77929-.132167-.007-.289984.006-.414445.0615v2.23139.30799.57258 10.20764h125.210447v-5.49217-.48318-2.53007-4.12482c-.21422-.45058-.4966-.86783-.87798-1.18339l.87798-.63872v-1.42627c-.75378.28692-1.47179.66918-2.12338 1.1436-.38836.28278-.742.6261-1.03405 1.01338-.008-.2353-.018-.47039-.0305-.70539l.43615-.33331c-.15054.0584-.29763.12453-.44545.18862-.0657-1.14316-.18033-2.28295-.37827-3.41426-.28768-1.64422-.75172-3.26834-1.50017-4.76509l.89452 7.30602-.0103.0491c-.30004.32174-.53135.68905-.71727 1.08107.0536-1.13016-.007-2.26808-.0884-3.39411l-.87178 4.28553-1.19838-1.52084c.014.11175.0705.21217.11421.3142.25347.59124.55786 1.15655.88883 1.70739-.27829.1993-.55047.40736-.81907.61908.004-.16327.004-.32662-.007-.48989-.0122-.1751-.0392-.37728-.1819-.49868-.0418-.0356-.0903-.0476-.14056-.0512.0953.37311.16189.75311.20878 1.13636-.008.006-.015.012-.0227.0181h-.23823c-.0528-.37014-.11442-.73885-.18294-1.10639.0757-.0321.15716-.054.23513-.0486-.0739-.28929-.16289-.57455-.27233-.85369-.0885-.22569-.19191-.44784-.30593-.66404-.0945-.37151-.19881-.74061-.31161-1.10691l1.08728-3.26234c-.19275.19305-.36279.40786-.5178.63201-.35923.5195-.64427 1.08202-.88884 1.66346-.31763-.90451-.69337-1.79241-1.2392-2.58175-.15502-.22415-.32453-.43896-.51728-.63201l1.39165 4.17494c-.069.19759-.13814.39502-.20257.59325-.3389 1.04302-.59916 2.11119-.7922 3.19153h-.18552c-.0787-.45637-.17454-.90953-.28267-1.3596.1103-.64295.14852-1.29784.0997-1.94872l-.39997.81029c-.24964-.85714-.55907-1.699-1.00407-2.46962l.25269-.84905c-.20044.10225-.38132.23311-.54622.38293-.31242-.45815-.68803-.89267-1.18804-1.14774l.56224 1.89033c-.0251.0365-.0527.0718-.077.10852-.72051 1.09026-1.12103 2.35509-1.44435 3.61476l-1.1498-2.3275c-.0645-.22135-.13184-.44218-.20309-.66146-.0594-.18289-.12389-.36485-.18707-.54725.0119-.0271.0262-.0529.0377-.0801.0437-.10204.10003-.20244.11421-.3142l-.19999.25374c-.31384-.88646-.68575-1.75588-1.22111-2.53008-.15502-.22414-.32453-.43895-.51728-.632l1.25728 3.77237-1.13688 1.44333c-.0309-.18197-.0831-.36119-.17001-.5333l-.14366.25941c-.29178-1.44206-.73007-2.85865-1.38907-4.17649l.67025 5.4746-.53227.9617-.0734.0935c-.11895-.19316-.24318-.38299-.37672-.56638-.27691-.38032-.61114-.72847-.98857-1.01699l.94309-7.70185c-.74845 1.49677-1.21248 3.12086-1.50017 4.76508-.11702.66891-.20562 1.34074-.27285 2.01435-.0481.12112-.0925.24357-.13746.36587-.14697-.0594-.29743-.10906-.45113-.14883-.18542-.18489-.38124-.3586-.59066-.51108-1.29024-.93944-2.83854-1.52079-4.41627-1.70636-.16206-.0191-.32507-.0332-.48834-.0336l1.12189.81597 4.16151 3.02618c-.14711.0789-.28823.16918-.42168.26923-.35423.26554-.65572.58712-.91829.93999h-.92294l-.33435-.7524c-.0921.0458-.20657.0899-.31161.0827.1983-.2107.39088-.42665.57154-.65319l.0512-.10387-.46974.35863.2651-.35915c-.0388.0119-.0759.0276-.11265.0444-.14602.0664-.28232.15091-.41083.24598-.10261-.52594-.15662-1.06174-.17983-1.59835-.00022.009.00026.0277 0 .0357-.0164.49303-.0711.98661-.0372 1.48001.005.0751.0145.15439.0331.23099-.0767.0683-.14625.14396-.21549.22015-.15346-.1577-.31658-.30617-.49248-.4408-.10218-.0782-.20807-.15117-.31832-.21756l.063.11369.48369.87436c-.0217.0311-.0469.0603-.0677.092-.0135.0207-.0246.0431-.0377.0641l-.37052.28319h-.72036c-.20814-.41151-.45236-.80383-.73226-1.17099l-1.17409-5.77484c-.13208 1.82826-.21276 3.68874.16795 5.49476.004.019.009.0373.0134.0563-1.11332-.89433-2.30528-1.70319-3.60288-2.30063-.006-.29303-.0632-.58189-.20103-.85473l-.34468.6227c-.0554-.0224-.10913-.0481-.16485-.0698l.14315.10904-.90951 1.64227-.25063.45269c-1.10064-.83687-2.28045-1.57178-3.55947-2.10013l.13642-.10387c-.0647.0251-.12704.055-.1912.0811-.0641-.0261-.12616-.0561-.19068-.0811l.13642.10387c-.80105.3309-1.56341.74209-2.29133 1.21026l-1.03405-1.86707c-.38216.75681-.16618 1.63854.154 2.38177.009.0211.0227.0411.0326.062-.35714.25811-.70563.52767-1.04697.80512-.0844.0187-.16834.0397-.25166.0625l-.0997-.41962c-.0138.15276-.0249.30682-.0367.46044-.0473.0143-.0947.0278-.14159.0434-.0697-.0921-.13916-.18413-.21343-.27285l.0661.32556c-.23267.0854-.45895.1871-.67644.30489l-.24237-.43822c.0909-.10454.18016-.2109.26665-.31936l.0512-.10387-.38809.29663-.16433-.29663c-.0519.10416-.0911.20982-.12195.31626-.0228-.028-.0435-.0575-.0667-.0853l.0393.19378c-.0101.0438-.0194.0877-.0264.13178l-.51728.39532.14676-.72088c-.21027.25116-.40103.51694-.57516.79323l-.0238-.0103-.31729-.13901-.17002-.71676-1.55442-6.55205c-.16764 1.83705-.20088 3.73812.3483 5.51387.13018.42093.30097.84801.53381 1.23145-.0472.0327-.0965.0623-.14211.0972-.0539.0412-.10438.0861-.15606.1297-.35822-.10824-.72239-.19795-1.08934-.27388-.0193-.01-.0377-.0205-.0574-.0295-.0368-.0168-.0739-.0325-.11265-.0444l.0336.0455c-.0778-.0153-.15604-.0279-.23409-.0419l-.004-.003v.003c-.0832-.0149-.16618-.031-.2496-.0444.0132-.0616.0241-.12436.0294-.18914l-.33072.14469c-.30948-.0439-.6198-.0813-.92966-.10852-.22862-.0201-.4577-.0355-.6873-.0362l.0512.0222.92242.40411-.66921.29301c0-.00053-.003-.001-.003-.002-.0557-.0417-.11338-.0805-.17156-.11886-.094-.19976-.24365-.36788-.47336-.45837-.2958-.11653-.61854-.13861-.93327-.14056l.47749.86248c-.0579-.0487-.11439-.0991-.17519-.14469-.15788-.11835-.32657-.22256-.50333-.31058-.0564-.21867-.12151-.43506-.1943-.64853l1.74098-3.52537c-.43207.12967-.82435.37072-1.16272.66611-.48181.42058-.86313.93752-1.16995 1.49706-.30681-.55947-.68771-1.07654-1.16944-1.49706-.33839-.29539-.73066-.53644-1.16272-.66611l1.74046 3.52485c-.0308.0904-.0594.18148-.0873.27285-.15042.0206-.29895.0537-.4408.10955-.49193.1938-.62811.73797-.59893 1.20406.009.14411-.0167.24244-.0636.31316h-1.575092c-.0161-.26629-.04041-.53185-.07131-.79685l1.966282-.86093c-.2296.00079-.45867.0161-.68729.0362-.45763.0402-.916111.0997-1.371493.17776-.0251-.14814-.04848-.29644-.07958-.4439-.271381-1.28738-.819952-2.52459-1.668632-3.53673l.846976 4.1646c-.37764.0909-.750488.19937-1.116727.32711l-.866616-.66249.778764-3.82922c-.848648 1.01214-1.397251 2.24935-1.668632 3.53673-.131529.62392-.205055 1.25443-.243395 1.88774h-.467154l1.103291-5.42447c-.84868 1.01214-1.397222 2.24935-1.668631 3.53673-.0723.34315-.123505.68861-.165365 1.03508-.17603-.2804-.368707-.55051-.581877-.80512l.222726 1.09554c-.294111.0212-.661913.0636-.640273-.34726.0145-.27527-.0537-.6651-.425812-.6227-.750282.0856-1.312627-.73629-2.005047-1.03456-.527979-.22744-1.125691-.39794-1.69912-.34314 0-.50765-.0578-1.01458-.203089-1.51618l-1.383379 4.14962c-.151519-.19929-.317434-.38631-.497642-.55966l.40566-.82166c-.3116.0936-.601785.24749-.866614.43564-.152871-.10863-.314688-.20406-.484209-.28422l.07493-.15142c-.0777.0233-.153754.0514-.228925.0816-.0752-.0302-.151157-.0583-.228928-.0816l.07493.15142c-.0803.038-.158914.0792-.235645.12402-.0668-.0454-.133022-.0914-.20102-.13539l.135908.1726c-.0628.0387-.123362.0803-.183451.12299-.08914-.0633-.181457-.12198-.276469-.17622l.671277-1.50999c-.10451.0569-.194286.13772-.280088.21911-.328824.31192-.57147.69884-.768426 1.10743-.07009-.0277-.140624-.0542-.212908-.076l.128675.26045c-.04522.10222-.09126.20418-.131776.30748-.109434.27915-.198953.56441-.272851.85369.04675-.003.09417.003.14211.0171-.05339.0721-.106521.1444-.15658.2191h-.03979c.01773-.0788.03425-.1579.05426-.23616-.04061.003-.07971.0122-.11524.0351l-.895551-4.40076c-.07162.99128-.124817 1.99158-.100769 2.98793 0 .00022.000035.00024-.0026.00052-.18079.0822-.347922.18935-.501777.31419l-.665594-4.6576c-.07834 1.50274-.142226 3.01965-.117305 4.53099-.0061-.005-.01175-.01-.01757-.0145-.102182-.0782-.208592-.15118-.318844-.21756l.342615.61857c.0053.19386.01711.38726.02584.58084l-.21911.16744-1.174088-3.52279c-.173461.59899-.224351 1.20544-.196887 1.81178-.151104-.21734-.319911-.42208-.505913-.61133.432568-.68014.823516-1.38334 1.141016-2.1239.04368-.10203.100023-.20244.114205-.3142l-1.642277 2.08463c-.07906-.0652-.157467-.13178-.239779-.19172-1.29024-.93943-2.838013-1.52079-4.41575-1.70636-.162057-.0191-.325067-.0332-.488341-.0336l.05116.0372 4.186306 3.04478-.218075.27698.02377-.11834c-.07427.0887-.14368.18079-.213426.27286-.52247-.17425-1.073195-.26718-1.623156-.27286l.318326.26355c-.02662-.0106-.05285-.022-.07958-.0325l.128158.0982c-.255108.13356-.478549.31881-.675928.5302-.161687-.0631-.324779-.12218-.489376-.17725.32131-.53337.522676-1.13283.539501-1.76681l-1.527553 1.11104c-.06059.006-.121036.0131-.181385.0212-.03493-.4459-.146167-.86817-.502296-1.15962-.281781-.23059-.65854-.29171-1.012341-.29197l.524 1.57251c-.365207-.0558-.732047-.10012-1.098124-.13229-.228627-.0201-.457692-.0355-.687298-.0362l.564825.24753-.367419.28061-.164333-.29714c-.08353.16776-.13699.33903-.167947.51211-.148537-.20401-.316508-.39214-.513148-.55139l.175183-.52555.560689-1.68206c-.353774.00026-.730586.0609-1.012341.29145-.635238.51984-.501211 1.45381-.518832 2.20142-.009.38345-.232344.47676-.465603.55707-.201031-.075-.404082-.14467-.609267-.20774-.06763-.10852-.138715-.21493-.211873-.31988l.280604-.50643c-.207142.001-.416973.0145-.621152.0543-.01455-.0178-.02764-.0367-.04237-.0543l.01188.0594c-.09562.0201-.190171.0446-.281635.0806-.192778.0759-.329282.20699-.424265.36483-.158009-.0309-.316542-.0596-.475424-.0853.01323-.0617.02408-.12422.02946-.18914l-.33073.1447c-.209497-.0297-.419033-.0551-.628901-.077l4.024561-2.92696c-.163271.00052-.325765.0145-.487825.0336-1.577737.18558-3.126028.76693-4.416269 1.70636-.01614.0118-.03096.0257-.04702.0377l-.07442-.0941c.0056.0435.02063.0842.03566.12506-.354172.2697-.67836.58715-.948262.94516-.05075-1.42865-.171047-2.85309-.418062-4.26485-.287192-1.64157-.750219-3.26309-1.49655-4.75785zm67.320956 7.82019c.007-.29079-.0131-1.03437-.015-.77256-.003.25673.004.51482.015.77256zm-12.34964-1.11569 2.0283 1.55029 1.31207 1.00252-.0227.0408c-.24944-.0383-.49961-.0692-.74983-.0961-.0304-.10237-.0679-.20413-.11782-.30438l-.15296.27596c-.0289-.003-.0579-.006-.0868-.009-.20548-.0181-.41126-.0309-.61753-.0341l.005-.002c-.0124.00004-.0249.00082-.0372.001-.0127-.00013-.0246-.001-.0372-.001l.005.002c-.20625.003-.4126.016-.61805.0341-.37312.0328-.74665.0775-1.1188.13488-.0888-.0428-.17733-.0863-.26717-.12713v-.00051c-.12516-.0569-.25121-.11179-.37827-.16485l.0811-.11007c-.0388.0119-.0764.0287-.11318.0455-.0193.009-.0374.0191-.0563.0284-.0593-.0243-.11803-.05-.17777-.0734l.12868.0982c-.19098.0999-.36672.22612-.52555.37259l-.58498-1.05627zm-65.837836.18551.229443.68885c-.05413.0421-.105963.0869-.155546.13384-.459184.43554-.755254 1.01538-.984436 1.59991-.01932.0492-.03458.0998-.05271.14934-.07146-.0561-.146579-.10728-.223759-.15503l.0987-.17828c-.0639.0385-.123315.0834-.184484.12609-.05099-.0285-.10275-.0557-.156063-.0801.521863-.73576 1.011711-1.49117 1.428853-2.28462zm87.275286 0 .22945.68885c-.0542.0421-.10597.0868-.15555.13384-.0767.0727-.14743.15088-.21549.231l-.20826-.42117c.12198-.2079.2378-.41939.34985-.63252zm-16.10444.20516 1.15083.87953 1.57872 1.20613c-.0594.0723-.11618.14621-.1726.22066-.52247-.17425-1.0732-.26717-1.62316-.27285l.21704.17932.94413.78134c-.0908.15253-.17668.3077-.25683.46612h-.0263c-.11678-.0729-.23506-.14168-.35295-.20102-.69687-.35072-1.43361-.60974-2.18902-.79943-.0851-.0716-.16924-.14379-.25528-.21446.2278-.31109.49454-.61698.63924-.95291.17399-.40394.31308-.84888.34623-1.29243zm-67.284261.17725.905372 3.04633c-.0254.0125-.05171.0229-.077.0357-.117978.0594-.236083.12807-.352949.20102h-1.043865l.04548-.15347c-.08848.0451-.171524.098-.252698.15347h-.05116c-.03098-.0613-.06251-.122-.09508-.18241zm87.274771 0 .23151.77876-1.16324 2.35593zm-83.591274.30748.754991 1.69963c-.251301.0363-.502031.077-.751374.12609l.07596-.22789c-.08273.0829-.159165.17158-.234095.26148-.168196.0352-.33623.072-.502812.11369zm79.971854.10955.52659 1.58026-.14832.26769-.63148-1.27899zm-87.275286.00052.610816 1.83141c-.02937.0355-.05784.0717-.08165.1111l-.623218-.47594.0155-.0279c-.0095.006-.01797.0128-.02739.0186l-.02429-.0186.01292.0264c-.09599.0597-.190311.12251-.280086.19121-.17579.13456-.339096.28267-.492477.44028-.0093-.0103-.01902-.0203-.02842-.0305zm86.503246.0884c0 .21368.008.42721.0243.64027-.17063.28348-.3099.58783-.42994.89401-.10943.27914-.19844.56442-.27234.85369.0616-.004.12565.007.18759.0295l-.17363.31367c-.009-.0981-.0175-.19605-.0274-.29404.004-.0165.009-.0326.0134-.0491-.006.00053-.0123-.0008-.0181 0-.0373-.35841-.0824-.71617-.13333-1.07332.007-.0272.0144-.0545.0207-.0816.28261-.40362.55334-.81402.80874-1.233zm8.00261.0212.91829 2.7559h-.43667l-.61805-.51159.28887-.8661c-.19274.19305-.3628.40785-.51779.632-.16616.24027-.31665.48952-.45476.74569h-.0987zm-108.788188.0971.173633 1.41645c-.198384-.0536-.400356-.0952-.603581-.12557zm51.397897.30386 1.311547.72605c-.0488.0305-.0954.0642-.142626.0971-.0523-.0293-.105429-.0567-.160197-.0816-.0368-.0168-.07391-.0331-.112655-.045l.153477.20825c-.005.004-.01.006-.01447.0103-.175982.1347-.338937.283-.492477.4408-.19145-.2106-.407739-.39791-.655257-.53537.049-.27269.09029-.54607.112655-.8201zm-57.777352.56431c.123746.19317.250229.38478.379822.57464l.172599.84852c-.212038-.36384-.47948-.69013-.820105-.93947zm83.332373.15709c.21463.29117.45307.5739.59376.87592-.46682.15417-.9244.33545-1.36477.55707-.1179.0593-.23617.12813-.35295.20102h-.0263c-.08-.15821-.16572-.31326-.25632-.4656l.0734-.061 1.08727-.90021c-.009.00009-.0179.00031-.0269.00052l.21498-.16433zm-24.22332.0165.19482.108.521415.28836c-.0792.0712-.155274.14546-.229444.22169-.167259-.18395-.353142-.35003-.563272-.48008zm6.138126.0842c.194631.24255.403064.4724.617533.69712-.282311.10692-.560131.22526-.831991.35811zm-13.520105.0217c0 .03.0026.06.0026.0899l-.158644.12093zm33.606729.0227.37517.28681c-.23091.0406-.46081.0868-.68936.13901zm37.19308.0134.19017.80047c-.2077-.0415-.4218-.0529-.63304-.0538l.40308.72812h-1.97921l.006-.0114zm-74.943742.0243.267684.19482c-.07303.10096-.144113.20354-.211873.30799-.09837-.0575-.199146-.11049-.301273-.16123.08263-.11334.164023-.22746.245462-.34158zm64.519052.003h.00052l.0103.0357-.0134-.0243c0-.004.003-.008.003-.0114zm-24.30911.0367.60617.2651-.26252.47387c-.25871.0416-.51697.0893-.77359.14418-.22465-.13746-.45311-.26926-.6842-.39533l.03-.0134.33176-.14521zm-46.912375.005.545704.23926.06666.0289c-.262175.12606-.513125.27411-.748792.4439l-.171563-.30955c.09118-.1048.179921-.21112.266649-.31987zm-20.324857.0279.02739.0548c.164306.20603.337099.4041.516248.59686-.07326.20426-.09701.43166-.08372.64389.0026.0299 0 .0559 0 .0822h-.718302c-.0581-.11875-.120375-.23538-.19327-.34674-.0209-.0318-.04582-.0612-.0677-.0925zm73.766032.0227.79065.60461c-.007.0113-.0153.0222-.0227.0336-.2606-.15241-.53546-.2802-.81958-.38447zm-36.693359.01.450617.61081c-.19584.23067-.372584.47817-.535885.73432h-.252698c.13136-.44289.247875-.89213.337966-1.34513zm-38.702548.0222.077.10387c-.0048.004-.0097.006-.01447.0103-.139646.1069-.269474.22443-.394807.34623.111919-.15273.222477-.30629.332279-.46043zm40.009444.0196.368453.49972.05116.0698c-.164751.19408-.316026.39995-.457338.61288-.0702-.15755-.150312-.31093-.245461-.4563-.0209-.0317-.0459-.0608-.0677-.092zm-13.426054.046.236162.18035.06511.0501.391708.32401-.339513.43099c-.09591-.0574-.192643-.11177-.288872-.1602-.1651-.0831-.3325-.15993-.501777-.23306zm6.225977.008c.01878.41803.05527.83466.110069 1.24953h-.156062c-.111601-.17508-.22987-.34585-.35605-.51004l-.03824-.26665c.149754-.15499.29918-.30999.440283-.47284zm26.18134.0346c.0774.11963.16244.23283.25374.34107-.12309-.0452-.24741-.0864-.37207-.12713zm-23.30038.0207.06925.14004c-.0335-.0253-.0675-.0495-.101285-.0744zm-32.228523.0584c-.02696.10265-.05786.20487-.08372.30747-.0058.0233-.01098.0469-.01654.0703-.02619-.0182-.052-.0376-.07906-.0548zm12.390459.006c.03863.0703.07503.14168.114721.21136l-.593246.25941c-.01005-.0334-.0209-.0665-.03359-.0987zm-35.145142.003.267684 1.1281h-.891918l.341064-.6165zm48.417201.0176.451651.32866-.176734.31936c-.112738-.0958-.230817-.18449-.351917-.26923zm-46.837969.004.390157.17156.06615.0289c-.07205.0346-.143151.0705-.213424.10852zm58.873409.03 1.619538.8971c.0641.0602.128143.12022.192755.17983h-1.514121v-.001c-.0539-.0353-.114276-.0457-.176217-.0481.007.0162.0122.0328.0186.0491h-.323495c.0962-.0271.20303-.0528.30489-.0491-.0767-.18358-.168736-.36092-.278535-.52865-.0206-.0317-.0459-.0608-.0677-.092zm-40.97476.004.212907.28836c-.04109.13084-.07822.26255-.112138.39532.06559-.005.134451.008.199988.0331-.09186.11563-.180035.23418-.264067.35605h-.02377c.02667-.1303.05493-.26032.08785-.38912-.05016.004-.09886.0157-.14056.0512-.06101.0519-.09748.12021-.124024.19327-.03778-.0683-.0764-.1364-.119372-.20205-.02064-.0317-.04587-.0608-.0677-.092zm20.414773.00052.06408.27078.0739.31161-.0739.0563-.270266.2067c-.0217-.0107-.04393-.0199-.06563-.0305zm67.836172.11317c.0718.32461.16362.64459.2713.9586h-.58653c.12038-.31414.22601-.6342.31523-.9586zm4.64622 0c.0342.12445.0707.24848.10956.37155l-.28991.58705h-.0909c.10768-.31401.19955-.63399.2713-.9586zm-106.200229.015.297656.24598.280086.23202c-.09062.15237-.176252.30737-.256315.46561h-.02635c-.11684-.073-.234972-.14164-.35295-.20102-.05403-.0272-.109854-.0504-.164331-.0765zm83.069859.008.29404.12868c-.0963.0101-.19285.0184-.28887.03-.00005-.053-.003-.10582-.005-.15865zm-34.39066.003.176217.22428c-.0153.0159-.03203.0304-.04703.0465-.0564-.0606-.117043-.11725-.176733-.17467l.04393-.0889zm21.12326.0109 1.26245.55293c-.0954.11952-.18684.24224-.27388.36846h-1.44953c-.065-.0873-.13292-.17231-.20309-.25528.26004-.18419.49367-.40624.66405-.66611zm-22.127852.0155.03462.0698c-.0395.038-.07874.0764-.116787.11576zm-23.287465.045c.01243.0211.02566.0418.03824.063-.09602.22135-.125431.47841-.110588.71572.0026.0299 0 .0559 0 .0822h-.214456zm78.413817.0103.2837.85111h-.0744l-.28991-.58704c.0277-.0877.0553-.17567.0806-.26407zm-28.64683.0827c0 .12836.0164.25698.0362.3855-.046.0352-.0907.0722-.13539.10904l-.2713-.11886c.12644-.1224.24826-.24934.37052-.37568zm6.33243.0139.47956.3669c-.3345.0879-.66455.19093-.98858.31006.003-.0272.004-.0547.004-.0806 0-.0825-.005-.24306-.007-.37207zm-57.511734.0269c-.135972.22408-.220009.47046-.27957.7276h-.917756l.07958-.23822zm42.883164.0264.34624.70124h-.69247zm-35.87894.0109.534334.23409c0 .0482-.000031.0961.0026.14315.009.14411-.0167.24243-.06356.31315h-.117822l-.444418-.56379c.03178-.041.0606-.0835.08888-.1266zm63.08038.0212c.0578.22619.12806.44898.20722.66921h-.0873c-.10642-.15434-.21827-.30455-.33745-.44855.0725-.0736.14681-.1455.21756-.22066zm-76.757582.0351.08372.28164c-.0127.0554-.02659.11041-.03876.16588l-.205672-.15709zm63.576482.14625c-.0296.1652-.07.32808-.11989.48782h-.19379l-.15658-.28215.35398-.15503zm3.42046.032-.22944.41444-.0227.0413h-.0889c.0309-.11281.0558-.2258.0749-.33951l.0367-.016zm-86.39059.008.807186.35346.03152.0946h-1.380277l.236678-.19585zm64.694757.0129.08889.43511h-.151917l-.338998-.2589zm47.590893.0124c.003.021.003.0416.005.0625.0172.12164.0424.24157.0734.35966h-.21963zm-65.948943.0408.077.0558c.02566.10888.05345.21724.08165.32556h-.212391c.02593-.12696.04514-.25409.05375-.38137zm52.722873.008c-.0278.12424-.0562.24843-.0816.3731h-.10232zm-11.5905.0103h.00051l.82838.36276h-.84595c.0153-.047.0246-.0986.0171-.16226-.008-.0685-.006-.13493 0-.2005zm-31.797027.047.233061.31574h-.407728zm1.275892 0 .233061.31574h-.407728zm-12.944948.0403.33228.27492h-.502812l.01344-.0651c.05249-.0697.104627-.13945.157094-.20929zm23.961843.0594c-.009.0719-.0209.14343-.0284.21549h-.091zm-27.029872.0227.439767.19276h-.49661c-.03495-.0119-.06912-.0248-.103354-.0377.05353-.0516.109027-.10101.160197-.15503zm59.523492 0 .0537.0393c-.00016-.007 0-.013 0-.0196l.12557.17312h-.20205zm-67.840812.007c.03971.0626.08207.12379.122473.18604h-.366387c.08406-.0581.165595-.1203.243914-.18604zm1.687235.0362.171048.0749.171566.0749h-.425296zm2.725415.009.03359.14107h-.05323c-.02619-.0163-.05175-.034-.07803-.0496.03228-.0308.06557-.0605.09767-.0915zm41.767992.0155.0258.12557h-.17777zm-14.890565.0351c.0324.0301.06465.0604.09715.0904h-.303858zm-48.060114.006.06253.0847h-.109554zm1.276408 0 .06253.0847h-.109554zm57.450751.00052.062.0842h-.10853zm21.00441 0 .0465.0842h-.10852zm-39.444622.0362c-.0106.0161-.02061.0324-.03101.0486h-.193787c.071-.02.148194-.0402.224793-.0486z" fill="#71bf8d" transform="translate(-30.597304 -164.67643)"/></svg>