<svg viewBox="0 0 7.79 7.79" xmlns="http://www.w3.org/2000/svg"><path d="m5.7 3.35a.31.31 0 0 1 -.3-.35.15.15 0 0 0 -.15-.15.15.15 0 0 0 -.15.15.31.31 0 0 1 -.31.31.3.3 0 0 1 -.3-.31.76.76 0 0 1 1.51 0 .31.31 0 0 1 -.3.35zm-2.38-.35a.76.76 0 0 0 -1.52 0 .3.3 0 1 0 .6 0 .16.16 0 0 1 .16-.15.15.15 0 0 1 .15.15.3.3 0 0 0 .3.31.31.31 0 0 0 .31-.31zm2.59 4.23a.31.31 0 0 0 .09-.42.3.3 0 0 0 -.42-.1 3.25 3.25 0 0 1 -1.7.47 3.3 3.3 0 1 1 2.74-1.46.31.31 0 0 0 .51.34 3.89 3.89 0 1 0 -7.13-2.17 3.89 3.89 0 0 0 3.89 3.9 3.87 3.87 0 0 0 2.02-.56zm-.71-2.8a.29.29 0 0 0 -.2.12 1.56 1.56 0 0 1 -1.11.45 1.53 1.53 0 0 1 -1.06-.42.29.29 0 0 0 -.24-.12.3.3 0 0 0 -.31.3.29.29 0 0 0 .1.22 2.14 2.14 0 0 0 3 0 .29.29 0 0 0 .1-.22.3.3 0 0 0 -.28-.33z" fill="#a0a0a0"/></svg>