<svg viewBox="0 0 12.27 16.95" xmlns="http://www.w3.org/2000/svg" xmlns:xlink="http://www.w3.org/1999/xlink"><linearGradient id="a" gradientUnits="userSpaceOnUse" x1="2.95" x2="9.15" y1="2.9" y2="2.9"><stop offset="0" stop-color="#ebebeb"/><stop offset=".47" stop-color="#eee"/><stop offset=".84" stop-color="#f8f8f8"/><stop offset="1" stop-color="#fff"/></linearGradient><linearGradient id="b" x1="0" x2="3.65" xlink:href="#a" y1="4.45" y2="4.45"/><linearGradient id="c" x1="8.34" x2="11.4" xlink:href="#a" y1="6.87" y2="6.87"/><path d="m12.25 3.45a5.28 5.28 0 0 0 -.34-.89 4.42 4.42 0 0 0 -.39-.56c-.1-.11-.19-.23-.36-.23a17.62 17.62 0 0 1 -2.79 1.1 1 1 0 0 1 -1-.32.24.24 0 0 0 -.19-.1 2.57 2.57 0 0 0 -1.6.55.46.46 0 0 0 -.12.57c.15.38.1.53-.27.68a2.11 2.11 0 0 0 -.87.75 9.63 9.63 0 0 1 -.63.94c-.07.08 0 .12 0 .17a6.46 6.46 0 0 1 1.6 2.67l.13.22.22.81c.07.1 0 .24.1.35a1.14 1.14 0 0 1 0 .52l-.25-.75a3.19 3.19 0 0 0 -.3-.85l-.19-.49a1.88 1.88 0 0 0 -.22-.45 5.42 5.42 0 0 0 -1.43-2 .79.79 0 0 0 -.91-.09 3.7 3.7 0 0 0 -1.44 1.38 4.94 4.94 0 0 0 -.5 1 2.26 2.26 0 0 0 -.15 1.71 1.36 1.36 0 0 1 0 .17 1.8 1.8 0 0 1 .08.21 5.48 5.48 0 0 0 .47 1.14 12.63 12.63 0 0 0 4.24 4.76 2.42 2.42 0 0 0 3.17-.12 7.3 7.3 0 0 0 1.86-2.17 13.66 13.66 0 0 0 1.3-2.86l.09-.39a1.15 1.15 0 0 1 0-.26 1.15 1.15 0 0 0 0 .26 2.66 2.66 0 0 0 .17-1.08 1.51 1.51 0 0 0 0-.67 1.13 1.13 0 0 0 -.13-.54c-.14-.39-.14-.39-.52-.27l-.2.08c-.09 0-.19 0-.27 0a8.54 8.54 0 0 1 -1.34.09 1.36 1.36 0 0 1 -1.18-.67 2.09 2.09 0 0 0 -.2 1 .69.69 0 0 0 0 .4v.18a11.45 11.45 0 0 1 0 2.19 7.18 7.18 0 0 1 -1 2.73s0-.07 0-.1c.09-.21.17-.42.25-.63a8 8 0 0 0 .48-3.88 4.63 4.63 0 0 1 0-1.7c.07-.18.14-.37.23-.55a4.75 4.75 0 0 1 1.34-1.46c.9-.74 1.9-1.35 2.86-2a.43.43 0 0 0 .2-.55zm-.15.25s-.08 0-.11-.06a3.54 3.54 0 0 1 -.79-1.57s0-.11 0-.14.07 0 .1.05a3.62 3.62 0 0 1 .81 1.58c.02.07.05.12-.01.14z" fill="#fff"/><path d="m3.33 5.71c.06.13.13.11.2 0s.14-.21.2-.32a3 3 0 0 1 1.41-1.39c.13-.05.13-.14.09-.25a.78.78 0 0 1 .35-1.07 3 3 0 0 1 1.49-.48.46.46 0 0 1 .46.21.58.58 0 0 0 .47.2 2.46 2.46 0 0 0 1.1-.25c.09 0 .05-.08 0-.13a4 4 0 0 0 -.49-.42c-.07 0-.13-.1-.09-.2.09-.28.17-.57.26-.85s0-.28-.19-.33a2.3 2.3 0 0 1 -.5-.18c-.2-.1-.27 0-.34.15s-.19.44-.29.66c0 .06 0 .17-.16.15s-.09-.11-.1-.21c0-.29-.07-.58-.1-.87 0-.13 0-.17-.18-.16s-.47 0-.71 0-.21.1-.21.23 0 .47 0 .71 0 .19-.11.21-.16-.05-.2-.12-.08-.2-.13-.29-.12-.42-.29-.48-.35.11-.53.18c-.39.16-.39.16-.29.57a1.76 1.76 0 0 0 .09.2c.08.17 0 .25-.14.31a1.48 1.48 0 0 0 -.66.41 3.46 3.46 0 0 0 -.41 3.81z" fill="url(#a)"/><path d="m.33 8.09.4-.75.09-.13a3.1 3.1 0 0 1 2.18-1.56c-.06-.2-.12-.39-.17-.59a3.53 3.53 0 0 1 .69-3.33.24.24 0 0 0 .06-.09c.16-.42.07-.62-.34-.78a4.7 4.7 0 0 0 -1.45 0c-.34.06-.39.11-.44.44l-.06.31c-.14.72-.29 1.39-.46 2.11a4.49 4.49 0 0 1 -.24.79 10.3 10.3 0 0 0 -.51 1.66 2.9 2.9 0 0 0 .12 1.77c.02.06.01.17.13.15zm1.34-7.09a3.49 3.49 0 0 1 1.67 0c.05 0 .12 0 .12.08s-.07.09-.12.1a3 3 0 0 1 -.84.1 2.93 2.93 0 0 1 -.84-.1s-.11 0-.12-.08.07-.05.13-.1z" fill="url(#b)"/><path d="m10.65 5.54a.14.14 0 0 0 -.21 0 7.52 7.52 0 0 0 -1.89 1.57.62.62 0 0 0 .38 1.09 4.09 4.09 0 0 0 2.19-.2.35.35 0 0 0 .28-.37 3.6 3.6 0 0 0 -.4-1.63z" fill="url(#c)"/></svg>