<svg enable-background="new 0 0 10.8 10.8" viewBox="0 0 10.8 10.8" xmlns="http://www.w3.org/2000/svg"><circle cx="5.4" cy="5.4" fill="#d8a31e" r="5.1"/><g fill="#fff"><path d="m5 8.7c-.2 0-.3 0-.5-.1-.1 0-.2-.1-.3-.1s-.1-.1-.2-.1c-.1-.1-.2-.3-.2-.4-.1-.2-.1-.4-.1-.6s.1-.5.2-.7l.3-.5c.1-.2.2-.4.2-.5s0-.1 0-.2-.1-.2-.2-.2c-.2 0-.3 0-.5.1-.1 0-.2 0-.2 0-.1-.1-.1-.2 0-.3s.2-.2.3-.2c.1-.1.2-.1.3-.2l.3-.1c.2 0 .4-.1.6 0 .2 0 .3 0 .5.1s.3.2.4.3c.2.2.3.5.3.8 0 .2 0 .4-.1.6l-.1.3c-.1.2-.2.4-.3.5s-.1.3-.2.4v.2c0 .1 0 .2.1.2.2 0 .3 0 .5-.1.1-.1.2 0 .3.1s0 .2-.1.3-.2.2-.3.2c-.2.1-.4.2-.6.2z"/><path d="m6.8 3.1c0 .6-.5 1-1 .9s-1-.5-.9-1c0-.5.5-.9 1-.9.5-.1.9.4.9 1z"/></g></svg>