<svg enable-background="new 0 0 11.3 11.3" viewBox="0 0 11.3 11.3" xmlns="http://www.w3.org/2000/svg"><g fill="#fff"><path d="m5.3 9c-.2 0-.4 0-.5-.1-.1 0-.2-.1-.3-.1l-.2-.2c-.2-.1-.2-.2-.3-.3 0-.2 0-.4 0-.6 0-.3.1-.5.2-.7l.3-.5c0-.2.1-.4.2-.5 0-.1 0-.1 0-.2s-.1-.2-.2-.2c-.2 0-.3 0-.5.1-.1 0-.2 0-.2 0-.1-.1-.1-.2 0-.3s.1-.2.2-.2c.1-.1.2-.2.3-.2l.3-.1c.2-.1.4-.1.6-.1s.3 0 .5.1c.1.1.3.2.4.3.2.2.3.5.3.8 0 .2 0 .4-.1.6l-.1.3c-.1.2-.2.4-.3.6s-.1.2-.2.3v.2c0 .1.1.2.2.2.2 0 .3 0 .5-.1.1-.1.2 0 .3.1s0 .2-.1.3-.2.2-.3.3c-.2.1-.4.1-.6.2z"/><path d="m7.1 3.3c0 .6-.4 1-1 1s-1-.4-1-1 .4-1 1-1 1 .5 1 1z"/></g></svg>