<svg viewBox="0 0 29.9 56.2" xmlns="http://www.w3.org/2000/svg" xmlns:xlink="http://www.w3.org/1999/xlink"><linearGradient id="a" gradientTransform="matrix(-1 0 0 1 2994.91 0)" gradientUnits="userSpaceOnUse" x1="2977.25" x2="2990.39" y1="29.76" y2="29.76"><stop offset="0" stop-color="#f29122"/><stop offset="1" stop-color="#f3a519"/></linearGradient><linearGradient id="b" x1="2979.82" x2="2987.81" xlink:href="#a" y1="24.84" y2="24.84"/><path d="m29.9 0v56.2a20.87 20.87 0 0 0 -19.6-20.85 11.92 11.92 0 0 0 -1.8-.13h-.17a9 9 0 0 1 0-17.86h5.46s2 0 3.1 0a9.16 9.16 0 0 0 3.11-.62 8.92 8.92 0 0 0 5.75-7.33v-9.41z" fill="#edf1f4"/><path d="m11.09 32.32c-3.27 0-6.57-.85-6.57-2.73 0-1.07 1.1-1.91 3.09-2.37a.37.37 0 0 1 .45.28.37.37 0 0 1 -.28.45c-1.57.37-2.51 1-2.51 1.64 0 1.11 2.56 2 5.82 2s5.82-.87 5.82-2c0-.67-.95-1.28-2.54-1.64a.38.38 0 0 1 .17-.74c2 .47 3.12 1.31 3.12 2.38 0 1.88-3.3 2.73-6.57 2.73z" fill="url(#a)"/><path d="m11.09 29.86a1.25 1.25 0 0 1 -1-.49c-1.37-1.81-3-4.25-3-5.67a4 4 0 0 1 5.46-3.61.37.37 0 0 1 .22.48.36.36 0 0 1 -.48.22 3.49 3.49 0 0 0 -1.2-.22 3.2 3.2 0 0 0 -3.25 3.13c0 .93 1 2.83 2.85 5.22a.54.54 0 0 0 .81 0c1.81-2.38 2.84-4.28 2.84-5.21a3 3 0 0 0 -.83-2.08.38.38 0 0 1 0-.53.37.37 0 0 1 .53 0 3.76 3.76 0 0 1 1 2.59c0 1.42-1.63 3.87-3 5.67a1.27 1.27 0 0 1 -.95.5zm0-4.39a1.84 1.84 0 1 1 1.91-1.83 1.85 1.85 0 0 1 -1.91 1.83zm0-2.92a1.09 1.09 0 1 0 1.13 1.09 1.11 1.11 0 0 0 -1.13-1.09z" fill="url(#b)"/></svg>