<svg viewBox="0 0 29.9 56.2" xmlns="http://www.w3.org/2000/svg" xmlns:xlink="http://www.w3.org/1999/xlink"><linearGradient id="a" gradientTransform="matrix(-1 0 0 1 3175.58 0)" gradientUnits="userSpaceOnUse" x1="3159.02" x2="3170.41" y1="26.07" y2="26.07"><stop offset="0" stop-color="#f29122"/><stop offset="1" stop-color="#f3a519"/></linearGradient><path d="m29.9 0v56.2a20.87 20.87 0 0 0 -19.6-20.85 11.92 11.92 0 0 0 -1.8-.13h-.17a9 9 0 0 1 0-17.86h5.46s2 0 3.1 0a9.16 9.16 0 0 0 3.11-.62 8.92 8.92 0 0 0 5.75-7.33v-9.41z" fill="#edf1f4"/><path d="m5.17 23.28v6.81a1.62 1.62 0 0 0 1.56 1.68h8.27a1.62 1.62 0 0 0 1.57-1.68v-.17a.43.43 0 1 0 -.86 0v.17a.75.75 0 0 1 -.71.77h-8.27a.75.75 0 0 1 -.73-.77v-4.32h9.7v.95a.43.43 0 0 0 .86 0v-3.44a1.62 1.62 0 0 0 -1.56-1.68h-1.29v-.77a.43.43 0 1 0 -.86 0v.77h-4v-.77a.43.43 0 1 0 -.85 0v.77h-1.27a1.62 1.62 0 0 0 -1.56 1.68zm.85 0a.75.75 0 0 1 .71-.77h1.27v1.07a.43.43 0 1 0 .85 0v-1.07h4v1.07a.43.43 0 1 0 .86 0v-1.07h1.29a.75.75 0 0 1 .71.77v1.58h-9.71z" fill="url(#a)"/></svg>