<svg viewBox="0 0 29.9 56.2" xmlns="http://www.w3.org/2000/svg" xmlns:xlink="http://www.w3.org/1999/xlink"><linearGradient id="a" gradientTransform="matrix(-1 0 0 -1 2900.85 -1867)" gradientUnits="userSpaceOnUse" x1="2884.71" x2="2895.35" y1="-1893.22" y2="-1892.76"><stop offset="0" stop-color="#f29122"/><stop offset="1" stop-color="#f3a519"/></linearGradient><linearGradient id="b" x1="7.44" x2="14.08" xlink:href="#a" y1="22.86" y2="23.15"/><linearGradient id="c" x1="7.44" x2="14.08" xlink:href="#a" y1="25.83" y2="26.12"/><linearGradient id="d" x1="7.44" x2="14.08" xlink:href="#a" y1="28.65" y2="28.94"/><path d="m29.9 0v56.2a20.87 20.87 0 0 0 -19.6-20.85 11.92 11.92 0 0 0 -1.8-.13h-.17a9 9 0 0 1 0-17.86h5.46s2 0 3.1 0a9.16 9.16 0 0 0 3.11-.62 8.92 8.92 0 0 0 5.75-7.33v-9.41z" fill="#edf1f4"/><path d="m14.15 32.33h-6.66a1.81 1.81 0 0 1 -1.8-1.8v-6a.51.51 0 0 1 .5-.5.5.5 0 0 1 .5.5v6a.8.8 0 0 0 .8.8h6.66a.8.8 0 0 0 .8-.8v-9.08a.79.79 0 0 0 -.8-.79h-6.66a.79.79 0 0 0 -.8.79.5.5 0 0 1 -.5.5.5.5 0 0 1 -.5-.5 1.8 1.8 0 0 1 1.8-1.79h6.66a1.8 1.8 0 0 1 1.85 1.79v9.08a1.81 1.81 0 0 1 -1.85 1.8z" fill="url(#a)"/><path d="m13.59 23.51h-5.65a.5.5 0 0 1 0-1h5.65a.5.5 0 0 1 0 1z" fill="url(#b)"/><path d="m13.59 26.48h-5.65a.5.5 0 0 1 -.5-.5.5.5 0 0 1 .5-.5h5.65a.5.5 0 0 1 .5.5.5.5 0 0 1 -.5.5z" fill="url(#c)"/><path d="m13.59 29.3h-5.65a.5.5 0 0 1 -.5-.5.5.5 0 0 1 .5-.5h5.65a.5.5 0 0 1 .5.5.5.5 0 0 1 -.5.5z" fill="url(#d)"/></svg>