<svg viewBox="0 0 11.99 11.99" xmlns="http://www.w3.org/2000/svg"><g fill="#5ba4ba"><path d="m6.18 12a6 6 0 1 1 3.39-10.82.27.27 0 0 1 0 .38.26.26 0 0 1 -.38.06 5.35 5.35 0 0 0 -3.36-1.07 5.45 5.45 0 1 0 4.82 2.62.27.27 0 0 1 .47-.28 5.92 5.92 0 0 1 .88 2.92 6 6 0 0 1 -5.82 6.19z"/><g stroke="#5ba4ba" stroke-miterlimit="10" stroke-width=".13"><path d="m9.13 2h-4.71a1.05 1.05 0 0 0 -1.06 1v4.3a1.07 1.07 0 0 0 -.94 1.17 1 1 0 0 0 1.06.94h3.83a1.05 1.05 0 0 0 1.06-1.02v-4.29h.76a1.06 1.06 0 0 0 0-2.1zm-2.57 7.14h-3.08a.75.75 0 1 1 0-1.49h3.08a1.06 1.06 0 0 0 0 1.49zm1.5-6.14v5.39a.75.75 0 1 1 -.75-.74.16.16 0 1 0 0-.32h-3.63v-4.33a.75.75 0 0 1 .74-.75h3.95a1.06 1.06 0 0 0 -.31.75zm.94.79h-.6v-.26h.6zm.31 0v-.4a.15.15 0 0 0 -.15-.15h-.79v-.24a.75.75 0 1 1 .91.73z"/><path d="m7 3.54h-2.3a.16.16 0 0 0 -.16.15.16.16 0 0 0 .16.16h2.3a.16.16 0 0 0 .16-.16.16.16 0 0 0 -.16-.15z"/><path d="m7 4.66h-2.3a.16.16 0 0 0 -.16.15.16.16 0 0 0 .16.19h2.3a.16.16 0 0 0 .16-.16.16.16 0 0 0 -.16-.18z"/><path d="m7 5.78h-2.3a.16.16 0 0 0 -.16.15.16.16 0 0 0 .16.16h2.3a.16.16 0 0 0 .16-.16.16.16 0 0 0 -.16-.15z"/></g></g></svg>