<svg viewBox="0 0 54.6 36.56" xmlns="http://www.w3.org/2000/svg"><path d="m0 .32a66.28 66.28 0 0 0 3.44 12.27 21.81 21.81 0 0 0 3.09 5.47 9.49 9.49 0 0 0 2.27 2.07 6.3 6.3 0 0 0 1.37.63c.24.07.47.16.72.22l.74.09a9.21 9.21 0 0 0 5.65-2 33.3 33.3 0 0 0 4.72-4.23c2.91-3.08 5.55-6.43 8.57-9.51a24.85 24.85 0 0 1 5.06-4.09 9 9 0 0 1 3.08-1.16 6.21 6.21 0 0 1 3.38.39 10.4 10.4 0 0 1 4.66 4.61 28.16 28.16 0 0 1 1.45 2.92c.37 1 .8 2 1.1 3 2.55 8.22 3.49 16.76 4.17 25.24-.56-4.22-1.06-8.46-1.87-12.64a85 85 0 0 0 -3-12.35 31.36 31.36 0 0 0 -2.6-5.73 9.62 9.62 0 0 0 -4.26-4.21 6.34 6.34 0 0 0 -5.7.76 23.92 23.92 0 0 0 -4.82 4c-3 3-5.65 6.33-8.62 9.43a34.68 34.68 0 0 1 -4.83 4.3 13.53 13.53 0 0 1 -2.9 1.57 7.93 7.93 0 0 1 -3.31.5l-.84-.13c-.27-.07-.53-.17-.8-.26a7.78 7.78 0 0 1 -1.51-.73 10.49 10.49 0 0 1 -2.41-2.3 21.71 21.71 0 0 1 -3-5.69 61.45 61.45 0 0 1 -3-12.44z"/><path d="m53.25 34c-.7-.06-1.35-.36-1.37-.19-.06.56 1.53 2.59 1.6 2.68 0-.1 1.25-2.39 1.08-2.93 0-.16-.58.21-1.22.4"/></svg>