<svg viewBox="0 0 13.19 12.54" xmlns="http://www.w3.org/2000/svg"><g fill="#0a0a16"><path d="m6.59 12.54c-3.28 0-6.59-.85-6.59-2.75 0-1.08 1.12-1.93 3.14-2.4a.4.4 0 0 1 .48.3.39.39 0 0 1 -.3.48c-1.58.36-2.52.97-2.52 1.62 0 1.08 2.6 2 5.79 2s5.8-.87 5.8-2c0-.65-.93-1.25-2.49-1.61a.4.4 0 0 1 -.3-.48.39.39 0 0 1 .48-.3c2 .46 3.11 1.31 3.11 2.39 0 1.9-3.31 2.75-6.6 2.75z"/><path d="m6.59 10.09a1.28 1.28 0 0 1 -1-.51c-1.37-1.8-3-4.25-3-5.67a3.84 3.84 0 0 1 1-2.62.4.4 0 1 1 .58.54 3.07 3.07 0 0 0 -.82 2.08c0 .92 1 2.81 2.84 5.19a.5.5 0 0 0 .81 0c1.8-2.38 2.84-4.27 2.84-5.19a3.17 3.17 0 0 0 -3.25-3.11 3.21 3.21 0 0 0 -1.18.2.4.4 0 0 1 -.51-.21.4.4 0 0 1 .23-.52 4 4 0 0 1 1.46-.27 4 4 0 0 1 4 3.91c0 1.42-1.63 3.87-3 5.67a1.28 1.28 0 0 1 -1 .51zm0-4.39a1.88 1.88 0 0 1 -1.9-1.86 1.91 1.91 0 0 1 3.81 0 1.89 1.89 0 0 1 -1.91 1.86zm0-2.92a1.08 1.08 0 0 0 -1.1 1.06 1.11 1.11 0 0 0 2.21 0 1.08 1.08 0 0 0 -1.11-1.06z"/></g></svg>