<svg viewBox="0 0 71.91 24.35" xmlns="http://www.w3.org/2000/svg"><path d="m71.66.29c-37.81-.09-45 0-45.61 0h-13.91a11.89 11.89 0 1 0 0 23.77h13.91c.6 0 7.8.09 45.61 0z" fill="#5c88c1" stroke="#e5e5e5" stroke-miterlimit="10" stroke-width=".5"/><text fill="#f5f5f5" font-family="Gotham-Black, Gotham Black" font-size="9" font-weight="800" transform="translate(11.42 15.11)"><tspan letter-spacing="-.07em">A</tspan><tspan letter-spacing="-.03em" x="6.51" y="0">v</tspan><tspan x="11.86" y="0">anti</tspan></text><path d="m64.19 12.68a.17.17 0 0 0 0-.07.45.45 0 0 0 0-.11v-.1a.5.5 0 0 0 0-.12.08.08 0 0 0 0 0 .7.7 0 0 0 -.19-.28l-5.41-4.84a.67.67 0 0 0 -.89 1l4.09 3.61h-9.9a.67.67 0 0 0 0 1.34h9.92l-4.11 3.64a.67.67 0 0 0 -.05.94.66.66 0 0 0 .5.23.67.67 0 0 0 .44-.17l5.41-4.75s0 0 0 0a.51.51 0 0 0 .09-.13s.09-.18.1-.19z" fill="#fff"/></svg>