<svg viewBox="0 0 394.07 393.12" xmlns="http://www.w3.org/2000/svg"><path d="m232.85 91.31c-.16.14-.68.52-1.13 1-44.12 44.12-88.39 88.09-132.3 132.42-.53.53-1 1.08-1.51 1.62l-21.85 21.81a17.59 17.59 0 0 0 0 24.86l44.87 44.87a17.61 17.61 0 0 0 24.86 0l10.45-10.45-2.4-2.28-3.65-3.48c-.67-.63-1.32-1.24-1.94-1.88-2.87-2.94-5.85-5.82-8.43-9-2.14-2.63-2-5.71-.09-8.55s4.64-4.25 7.87-3.37a14.17 14.17 0 0 1 5.65 3.44c4.82 4.56 9.42 9.34 13.87 13.82l26.47-26.52c-4.72-4.66-9.71-9.43-14.52-14.37-3.81-3.91-4.05-8.36-.92-11.75s8.24-3.33 12.33.67c4.9 4.8 9.67 9.75 14.07 14.21l26.53-26.62c-4.62-4.54-9.62-9.29-14.43-14.24-4-4.14-4-9-.2-12.27 3.3-2.81 7.8-2.5 11.44 1.09 4.93 4.85 9.7 9.85 14 14.26l26.72-26.5c-4.47-4.4-9.42-8.87-13.82-13.83-1.76-2-3.41-5.21-3.1-7.61s2.78-5.08 5-6.35c3-1.7 6.23-.25 8.65 2.2 4.93 5 9.79 10 14.48 14.82l22.49-22.5-69.43-69.49zm-38.22 82.15a12.39 12.39 0 0 1 -3.58 7.16q-28.89 29.12-58 58c-4.08 4.06-8.6 4.23-12 .84s-3.32-8 .71-12q30-30.13 60.11-60.15c2.66-2.66 8.44-3 11-.14a7.75 7.75 0 0 1 1.76 6.29zm13.5-13.2a8.24 8.24 0 0 1 -7.92-7.94 8 8 0 0 1 7.93-7.85 7.86 7.86 0 0 1 7.85 7.85 8.08 8.08 0 0 1 -7.86 7.94z" fill="none"/><path d="m46.48 336.05 10.59 10.59a5.1 5.1 0 0 0 7.21 0l31.39-31.38-2.29-2.26-6.31-6.36-6.62-6.67v.05l-2.53-2.53-31.44 31.35a5.1 5.1 0 0 0 0 7.21z" fill="none"/><path d="m181.86 167.3q-30.08 30.06-60.11 60.15c-4 4.05-4.13 8.64-.71 12s8 3.22 12-.84q29.07-28.92 58-58a12.39 12.39 0 0 0 3.58-7.16 7.75 7.75 0 0 0 -1.74-6.3c-2.58-2.87-8.36-2.51-11.02.15z"/><path d="m208.14 144.47a8 8 0 0 0 -7.93 7.85 8.24 8.24 0 0 0 7.92 7.94 8.08 8.08 0 0 0 7.86-7.94 7.86 7.86 0 0 0 -7.85-7.85z"/><path d="m389.06 89.92c-6.9-8.22-14.79-15.64-22.52-23.13a7.58 7.58 0 0 0 -11.09.31c-2.88 3.09-2.91 7.27.08 10.84 1.45 1.73 3.12 3.27 4.71 4.88 4.88 4.9 9.83 9.73 14.62 14.73 2.73 2.86 3.94 6.3 2.46 10.25a9.22 9.22 0 0 1 -7.67 6.18c-4 .61-6.85-1.49-9.47-4.11q-16.51-16.5-33-33-21.48-21.44-42.91-42.87c-2.63-2.61-4.77-5.48-4.27-9.42a9.2 9.2 0 0 1 6-7.8c4.07-1.61 7.62-.33 10.59 2.54 2.71 2.62 5.36 5.29 8 8l.11.11c2.28 2.29 4.57 4.58 6.9 6.82a6.14 6.14 0 0 0 .47.42l16.95 16.68a8 8 0 0 0 6 2.9h.17a8.18 8.18 0 0 0 7.74-8.09 7.86 7.86 0 0 0 -2.21-5.18c-.13-.13-.25-.26-.39-.39l-18.28-18.52c-.93-1-1.86-1.9-2.81-2.83l-.24-.24c-2-2-4.1-4-6-6.09-5.5-5.91-11.47-11.02-19.6-12.91h-8c-1 .35-2 .75-3 1.05-14.5 4.39-22.26 19.49-16.69 33.55 1.57 3.94 4.51 7.5 7.41 10.7 5.15 5.66 10.76 10.91 15.79 15.94l-30.82 30.86-.49.49c-7.84-7.87-15.89-16-24-24l-.3-.31a40.17 40.17 0 0 0 -4.66-4.28 7.5 7.5 0 0 0 -10.15.83 7.72 7.72 0 0 0 -.63 10.17c1.11 1.53 2.44 2.9 4 4.71l.12.15c-.63.55-1.24 1-1.82 1.55l-133.29 133.31-22.13 22.13a33.61 33.61 0 0 0 0 47.48l4.41 4.41.23.23-31.38 31.38a17.1 17.1 0 0 0 0 24.19l1 1s0 0 0 0l-37.24 37.34a6 6 0 1 0 8.48 8.48l37.28-37.27 1 1.05a17.13 17.13 0 0 0 24.19 0l31.38-31.39 1.1 1.1 4.36 4.36a33.62 33.62 0 0 0 47.49 0l20.4-20.41 134.68-134.62c.57-.81 1.08-1.68 1.65-2.48l.45.38a59.81 59.81 0 0 0 5.28 4.37 7.71 7.71 0 0 0 11.2-3c2-3.95.54-7.23-2.29-10.09-.91-.91-1.82-1.81-2.72-2.72q-8.07-8.12-16.18-16.2c-2.79-2.77-5.66-5.48-8.3-8l.57-.58 31.44-31.56a27.07 27.07 0 0 0 2.87 4.08c5.65 5.63 11.1 11.53 17.21 16.61 9.52 7.9 24.21 6.64 33.15-2.22 8.76-8.77 10.4-23.58 2.61-32.85zm-324.78 256.72a5.1 5.1 0 0 1 -7.21 0l-10.59-10.59a5.1 5.1 0 0 1 0-7.21l31.38-31.39 2.53 2.55.06-.05c2.23 2.24 4.41 4.45 6.61 6.67l8.61 8.66zm238.08-185.82c-7.16 7.17-14.57 14.58-22.5 22.5-4.68-4.8-9.55-9.84-14.47-14.82-2.43-2.45-5.65-3.9-8.65-2.2-2.25 1.27-4.71 4-5 6.35s1.33 5.62 3.1 7.61c4.4 5 9.35 9.43 13.82 13.83l-26.73 26.5c-4.31-4.41-9.08-9.41-14-14.26-3.64-3.59-8.14-3.9-11.44-1.09-3.79 3.23-3.83 8.13.2 12.27 4.81 5 9.81 9.7 14.43 14.24l-26.54 26.62c-4.4-4.46-9.16-9.41-14.07-14.21-4.09-4-9.09-4.18-12.32-.67s-2.89 7.84.91 11.75c4.82 4.94 9.81 9.71 14.53 14.37l-26.47 26.52c-4.46-4.48-9-9.26-13.87-13.82a14.23 14.23 0 0 0 -5.65-3.44c-3.23-.88-6 .53-7.87 3.37s-2.05 5.92.08 8.55c2.59 3.18 5.57 6.06 8.44 9 .62.64 1.27 1.25 1.94 1.88 1.12 1.06 2.33 2.15 3.72 3.46h-.08l2.39 2.28-10.45 10.45a17.59 17.59 0 0 1 -24.85 0l-44.91-44.86a17.61 17.61 0 0 1 0-24.86l21.85-21.83c.5-.54 1-1.09 1.52-1.62 43.9-44.33 88.17-88.3 132.3-132.42.45-.44 1-.82 1.13-1zm-12.82-37.31-19.14-19.13 30.21-30.13 19.21 19.23z"/><path d="m87.07 306.6-6.62-6.67z"/></svg>