<svg viewBox="0 0 20.25 19.95" xmlns="http://www.w3.org/2000/svg"><path d="m13.9 14a.62.62 0 0 0 -.62.62v3.27a.86.86 0 0 1 -.85.86h-10.34a.86.86 0 0 1 -.85-.86v-9.63a.85.85 0 0 1 .85-.85h3.27a.62.62 0 0 0 0-1.24h-3.27a2.1 2.1 0 0 0 -2.09 2.09v9.6a2.1 2.1 0 0 0 2.09 2.14h10.34a2.1 2.1 0 0 0 2.09-2.09v-3.32a.62.62 0 0 0 -.62-.59z"/><path d="m19.52 1.38-.66-.65a2.5 2.5 0 0 0 -3.53 0l-9.9 9.91a.61.61 0 0 0 -.15.24l-1.28 4.7a.58.58 0 0 0 .14.55.56.56 0 0 0 .54.14l4.69-1.27a.61.61 0 0 0 .24-.15l9.91-9.9a2.52 2.52 0 0 0 0-3.57zm-14.21 13.56.8-2.89 2.09 2.09zm3.94-1.33-2.61-2.61 8.1-8.11 2.62 2.62zm9.48-9.48-.59.59-2.61-2.61.59-.59a1.37 1.37 0 0 1 2 0l.65.65a1.39 1.39 0 0 1 -.04 1.96z"/></svg>