<svg viewBox="0 0 15.17 14.72" xmlns="http://www.w3.org/2000/svg"><path d="m9.12 2.67-.94-1.81a.67.67 0 0 0 -1.18 0l-6.42 12.38a.67.67 0 0 0 .59 1h12.83a.67.67 0 0 0 .6-1l-4.26-8.24" fill="none" stroke="#bb1541" stroke-linecap="round" stroke-miterlimit="10"/><g fill="#fff"><path d="m7.39 11.81h-.13a.42.42 0 0 0 -.48.48v.17a.42.42 0 0 0 .48.48h.13a.42.42 0 0 0 .48-.48v-.17a.42.42 0 0 0 -.48-.48z"/><path d="m9.55 6.86a2.28 2.28 0 0 0 -.85-.81 2.36 2.36 0 0 0 -1.19-.3 2.54 2.54 0 0 0 -1 .2 2.38 2.38 0 0 0 -.81.55.46.46 0 0 0 -.15.33.48.48 0 0 0 .21.38.5.5 0 0 0 .68-.1 1.58 1.58 0 0 1 1.06-.4 1.4 1.4 0 0 1 1 .36 1.22 1.22 0 0 1 .41.93 1.27 1.27 0 0 1 -.46 1.06 1.76 1.76 0 0 1 -1.14.34.46.46 0 0 0 -.31.14.48.48 0 0 0 -.14.35v.76a.47.47 0 0 0 .14.35.49.49 0 0 0 .69 0 .46.46 0 0 0 .13-.35v-.37a.17.17 0 0 1 .13-.16 2.47 2.47 0 0 0 1.42-.68 1.94 1.94 0 0 0 .49-1.44 2.17 2.17 0 0 0 -.31-1.14z"/><path d="m9.34 9.44a2.47 2.47 0 0 1 -1.42.68.17.17 0 0 0 -.13.16v.37a.46.46 0 0 1 -.13.35.49.49 0 0 1 -.66 0 .47.47 0 0 1 -.14-.35v-.76a.48.48 0 0 1 .14-.35.46.46 0 0 1 .34-.14 1.76 1.76 0 0 0 1.14-.34 1.27 1.27 0 0 0 .43-1.06 1.22 1.22 0 0 0 -.41-.93 1.4 1.4 0 0 0 -1-.36 1.58 1.58 0 0 0 -1.06.4.5.5 0 0 1 -.68.1.48.48 0 0 1 -.21-.38.46.46 0 0 1 .15-.33 2.38 2.38 0 0 1 .82-.5 2.54 2.54 0 0 1 1-.2 2.36 2.36 0 0 1 1.19.3 2.28 2.28 0 0 1 .85.81 2.17 2.17 0 0 1 .3 1.09 1.94 1.94 0 0 1 -.52 1.44z"/><path d="m7.87 12.46a.42.42 0 0 1 -.48.48h-.13a.42.42 0 0 1 -.48-.48v-.17a.42.42 0 0 1 .48-.48h.13a.42.42 0 0 1 .48.48z"/></g></svg>