<svg viewBox="0 0 383.42 383.38" xmlns="http://www.w3.org/2000/svg"><path d="m372.12 247.19a11.23 11.23 0 0 0 -11.23 11.23v81.74c0 13-7.69 20.75-20.64 20.76-9.23 0-18.47 0-27.7 0a8.53 8.53 0 0 1 -1.32-.33v-4.49q0-54.07 0-108.15c0-18.46-8-32.28-25.12-39.77a43.92 43.92 0 0 0 -17-3.45c-51.53-.27-103.06-.23-154.59-.15-24.53 0-42.31 18.24-42.35 43.21q-.08 53.88 0 107.77v5.3c-11.32 0-22.17.45-33-.13-9.71-.53-16.66-9.06-16.68-19.25q-.06-42.1 0-84.21c0-63.49.37-127-.12-190.47-.35-43.93.4-45.19 44.5-44.19h5.29v4.64c0 28.19-.11 56.39 0 84.58.07 18.14 8 31.81 24.71 39.3a47.07 47.07 0 0 0 18.48 3.67c42.91.31 85.84.21 128.76.15 25.15 0 42.86-17.65 43-42.86.14-28.2.05-56.39.07-84.58v-4.59c4.87-.76 8.53-.3 12.24 3.5 19.43 19.91 39.22 39.47 58.95 59.09a7.89 7.89 0 0 1 2.6 6.17q0 23.11 0 46.23a11.23 11.23 0 0 0 11.23 11.23 11.22 11.22 0 0 0 11.22-11.22q0-25.78.07-51.57a16.9 16.9 0 0 0 -5.49-12.92q-34.12-33.87-68-68a17 17 0 0 0 -12.91-5.38c-84.45.1-168.9.27-253.35 0-24.48-.14-40.97 17.28-43.2 35.06 0 .33-.35.63-.54.94v311.4c2.25 5.72 3.78 11.87 6.89 17.07 6 10.08 15.46 15.87 27 18.15a15.41 15.41 0 0 1 2 .71h311.52c3.54-1.07 7.27-1.76 10.6-3.29 16.4-7.56 25.12-20.5 25.27-38.58.24-29.55.07-34.2.07-63.76v-19.33a11.23 11.23 0 0 0 -11.23-11.23zm-277.52-219.61v-4.72h170v35.86c0 17.46.06 34.92 0 52.38 0 14-7.48 21.36-21.59 21.37q-63.81 0-127.62 0c-13 0-20.78-7.73-20.8-20.68q-.05-42.12.01-84.21zm194.15 328.59v4.57h-193.94c-.07-1.32-.18-2.63-.18-3.94q0-54.27 0-108.53c0-13.71 7.6-21.28 21.32-21.28h151.6c13.49 0 21.22 7.62 21.23 21q0 54.11-.03 108.18z"/></svg>