<svg viewBox="0 0 5.46 6.99" xmlns="http://www.w3.org/2000/svg" xmlns:xlink="http://www.w3.org/1999/xlink"><linearGradient id="a" gradientUnits="userSpaceOnUse" x2="5.46" y1="3.49" y2="3.49"><stop offset="0" stop-color="#f39222"/><stop offset="1" stop-color="#f3a618"/></linearGradient><path d="m3.35 0a1.88 1.88 0 0 0 -1.21 3.1.34.34 0 0 1 0 .41l-2.09 3.07a.25.25 0 0 0 .06.36.29.29 0 0 0 .13.06.25.25 0 0 0 .24-.12l2.1-3.08a.32.32 0 0 1 .42-.13 1.84 1.84 0 0 0 1.39-.08 1.87 1.87 0 0 0 1-1.08 1.89 1.89 0 0 0 -2.04-2.51zm.54 3.2a1.36 1.36 0 1 1 .92-.76 1.29 1.29 0 0 1 -.92.77z" fill="url(#a)"/></svg>