<svg viewBox="0 0 65.78 30.22" xmlns="http://www.w3.org/2000/svg" xmlns:xlink="http://www.w3.org/1999/xlink"><linearGradient id="a" gradientUnits="userSpaceOnUse" x1="4.69" x2="65.78" y1="15.11" y2="15.11"><stop offset="0" stop-color="#b8b6b7"/><stop offset="1" stop-color="#dddede"/></linearGradient><linearGradient id="b" x1="6.73" x2="65.57" xlink:href="#a" y1="20.97" y2="20.97"/><linearGradient id="c" x1="0" x2="56.65" xlink:href="#a" y1="17.15" y2="17.15"/><path d="m65.78 15.09v4.31a10.39 10.39 0 0 1 -.21 2.1 10.81 10.81 0 0 1 -8.92 8.57 10.51 10.51 0 0 1 -1.69.13h-44.14a10.69 10.69 0 0 1 -4.09-.8 10.86 10.86 0 0 1 -2-1.11 42.85 42.85 0 0 1 18.87-4.19c11.19 0 9.53-24.1 17.3-24.1 10.53 0 13.67 15.09 24.88 15.09z" fill="url(#a)" opacity=".23"/><path d="m65.57 21.5a10.81 10.81 0 0 1 -8.92 8.57 10.51 10.51 0 0 1 -1.69.13h-44.14a10.69 10.69 0 0 1 -4.09-.8c2.59-.76 6.83-1.31 13.68-1.31 21.84 0 21.41-16.38 29.15-16.38 6.04.02 4.96 9.71 16.01 9.79z" fill="url(#b)" opacity=".23"/><path d="m56.65 30.09a10.51 10.51 0 0 1 -1.69.13h-44.14a10.82 10.82 0 0 1 -10.82-10.82v-5.85c8.38 0 11.33-9.13 18-9.47 9.09-.46 12.67 24.39 22 24.39a94.65 94.65 0 0 1 16.63 1.53z" fill="url(#c)" opacity=".23"/></svg>