<svg viewBox="0 0 65.78 30.22" xmlns="http://www.w3.org/2000/svg"><path d="m40.9 0c-5.54 0-6.29 12.26-10.31 19.29a37 37 0 0 0 3.6 5.71c8.46-4.75 9.8-13.24 15.37-13.24 6 0 5 9.69 16 9.77a10.39 10.39 0 0 0 .21-2.1v-4.34c-11.2 0-14.34-15.09-24.87-15.09z" fill="#d7d8d8"/><path d="m49.56 11.73c-5.56 0-6.91 8.49-15.37 13.27 1.69 2.11 3.57 3.5 5.76 3.5a94.65 94.65 0 0 1 16.68 1.5v.14a10.81 10.81 0 0 0 8.92-8.57c-11.03-.15-9.95-9.84-15.99-9.84z" fill="#cdd3d3"/><path d="m30.59 19.29c-3.81-7-7.24-15.47-12.56-15.2-6.7.33-9.65 9.46-18 9.46v5.85a10.8 10.8 0 0 0 4.69 8.91 42.85 42.85 0 0 1 18.88-4.21c3.21 0 5.4-1.98 6.99-4.81z" fill="#d7d8d8"/><path d="m34.19 25a37 37 0 0 1 -3.6-5.68c-1.62 2.83-3.78 4.81-7 4.81a42.85 42.85 0 0 0 -18.9 4.18 9.85 9.85 0 0 0 1.51.87l.52.24c2.59-.76 6.83-1.31 13.68-1.31 6.13 0 10.5-1.28 13.79-3.11z" fill="#cdd3d3"/><path d="m40 28.47c-2.19 0-4.07-1.39-5.76-3.5-3.29 1.86-7.66 3.14-13.78 3.14-6.85 0-11.09.55-13.68 1.31a9.84 9.84 0 0 0 1.42.47l.49.11.27.05h.04l.54.08h.22.45.66 44.13a10.51 10.51 0 0 0 1.69-.13v-.14a94.65 94.65 0 0 0 -16.69-1.39z" fill="#c8cccc"/></svg>