<svg viewBox="0 0 65.78 32.61" xmlns="http://www.w3.org/2000/svg" xmlns:xlink="http://www.w3.org/1999/xlink"><linearGradient id="a" gradientUnits="userSpaceOnUse" x2="63.69" y1="20.99" y2="20.99"><stop offset="0" stop-color="#b8b6b7"/><stop offset="1" stop-color="#dddede"/></linearGradient><linearGradient id="b" x1="4.69" x2="65.78" xlink:href="#a" y1="19.13" y2="19.13"/><linearGradient id="c" x2="65.78" xlink:href="#a" y1="16.3" y2="16.3"/><path d="m63.69 28.33a10.56 10.56 0 0 1 -8.5 4.28h-44.6a10.6 10.6 0 0 1 -10.59-10.61c4.31 0 7.82-1.62 11.12-3.7 5.91-3.73 11.14-8.93 19-8.93a12.17 12.17 0 0 1 3.3.46 19.14 19.14 0 0 1 5.74 2.82c7.84 5.43 14.84 15.68 24.53 15.68z" fill="url(#a)" opacity=".23"/><path d="m65.78 13.61v8.39a10.6 10.6 0 0 1 -10.59 10.6h-44.6a10.51 10.51 0 0 1 -5.9-1.8c3.53 0 7.44-2.29 11.46-5.5 5.85-4.64 11.91-11.22 17.27-15.46 3.16-2.5 6.08-4.19 8.58-4.19a13.93 13.93 0 0 1 4.09.57c6.12 1.78 8.53 7.39 19.69 7.39z" fill="url(#b)" opacity=".23"/><path d="m65.78 3.51v18.49a10.6 10.6 0 0 1 -10.59 10.6h-44.6a10.6 10.6 0 0 1 -10.59-10.6v-22c7.33 0 8.27 10.64 11.12 18.31 1.16 3.15 2.65 5.8 5 7a6.68 6.68 0 0 0 3 .69c6 0 13.1-6.73 20-13.34 2.34-2.25 4.67-4.49 6.92-6.44 4.16-3.59 8.05-6.22 11.41-6.22a12.45 12.45 0 0 1 8.33 3.51z" fill="url(#c)" opacity=".23"/></svg>