<svg viewBox="0 0 65.79 31.28" xmlns="http://www.w3.org/2000/svg" xmlns:xlink="http://www.w3.org/1999/xlink"><linearGradient id="a" gradientUnits="userSpaceOnUse" x2="65.79" y1="15.64" y2="15.64"><stop offset="0" stop-color="#b8b6b7"/><stop offset="1" stop-color="#dddede"/></linearGradient><linearGradient id="b" x2="63.45" xlink:href="#a" y1="16.09" y2="16.09"/><linearGradient id="c" x1="13.98" x2="65.78" xlink:href="#a" y1="17.57" y2="17.57"/><path d="m65.79 5.43v15.26.43a10.6 10.6 0 0 1 -10.6 10.16h-44.6a10.59 10.59 0 0 1 -10.59-10.59v-16.28a21.55 21.55 0 0 0 4.88-.48c5.02-1.14 5.7-3.93 10.2-3.93 3.6 0 5 8.89 8.86 15.32a14.5 14.5 0 0 0 4.62 5.09 9.29 9.29 0 0 0 5 1.42c5.52 0 8.58-3.16 11.95-6.7 2.69-2.82 5.56-5.89 10-7.8a25.5 25.5 0 0 1 10.28-1.9z" fill="url(#a)" opacity=".23"/><path d="m55.19 31.28h-44.6a10.59 10.59 0 0 1 -10.59-10.59v-19.78c1.86 0 3.39 1.25 4.88 3 3.68 4.37 7.12 11.89 14.42 11.89a21.28 21.28 0 0 0 4.64-.48c6.53-1.41 8.94-5.55 13.94-5.55a4.26 4.26 0 0 1 1.74.42c1.79.81 3.77 2.7 5.93 4.94 5 5.15 10.84 12.17 17.4 12.17a4.1 4.1 0 0 1 .5 0 10.58 10.58 0 0 1 -8.26 3.98z" fill="url(#b)" opacity=".23"/><path d="m65.78 21.12a10.6 10.6 0 0 1 -10.59 10.16h-41.19c3.52-.92 8.93-5.62 14.58-10.87 3.74-3.48 7.58-7.19 11.06-10.22 4.22-3.67 7.9-6.33 10.22-6.33 1.87 0 3.8 1.39 5.74 3.47 3.45 3.67 6.94 9.67 10.18 13.79z" fill="url(#c)" opacity=".23"/></svg>