<svg viewBox="0 0 47.81 46.74" xmlns="http://www.w3.org/2000/svg"><path d="m47.39 36.3c0-5.85.42-14.71.42-19.89 0-11.47-11.44-6.54-17.54-14.78a6.79 6.79 0 0 1 -.88-1.63h-10.92a6.83 6.83 0 0 1 -.89 1.63c-6.09 8.24-17.33 3.77-17.53 14.78-.05 5.18.42 14.04.42 19.89a56.77 56.77 0 0 1 -.47 7.76v.27a15.89 15.89 0 0 0 7.67 2.38v-.25c0-1.36 0-2.8 0-4.11.06-3 .26-5.31.47-7.65a8.31 8.31 0 0 1 -2-4.18 8.87 8.87 0 0 1 -.09-1.28 9.32 9.32 0 0 1 .13-1.51.94.94 0 0 1 0-.16 8.59 8.59 0 0 1 .32-1.13 8.25 8.25 0 0 1 15.41-.44 8.41 8.41 0 0 1 .64 3.22 8.23 8.23 0 0 1 -13.55 6.34 31.54 31.54 0 0 1 1.37 7.23 16 16 0 0 1 -.36 3.7l-.06.25h27.94l-.06-.25a16 16 0 0 1 -.36-3.7 31 31 0 0 1 1.37-7.23 8.24 8.24 0 1 1 -5.29-14.56 8.25 8.25 0 0 1 7.75 5.43 8.59 8.59 0 0 1 .32 1.13.94.94 0 0 1 0 .16 9.32 9.32 0 0 1 .13 1.51 7.63 7.63 0 0 1 -.1 1.28 8.2 8.2 0 0 1 -2 4.18c.2 2.34.41 4.67.46 7.65v4.08.25a11.62 11.62 0 0 0 7.56-3.23c0-.11 0-.22 0-.33a63.93 63.93 0 0 1 -.28-6.81z" fill="#fff"/><path d="m14.31 21a8.25 8.25 0 1 0 8.24 8.24 8.25 8.25 0 0 0 -8.24-8.24z" fill="#fcfcfc"/><path d="m11.85 26.74a2.5 2.5 0 1 1 -2.5 2.5 2.5 2.5 0 0 1 2.5-2.5z" fill-rule="evenodd" opacity=".04"/><path d="m11.85 28.44a.81.81 0 0 1 .81.8.82.82 0 0 1 -.81.81.81.81 0 0 1 -.8-.81.8.8 0 0 1 .8-.8z" fill-rule="evenodd" opacity=".09"/><path d="m33.55 21a8.25 8.25 0 1 0 8.24 8.24 8.23 8.23 0 0 0 -8.24-8.24z" fill="#fcfcfc"/><path d="m35.87 26.74a2.5 2.5 0 1 0 2.5 2.5 2.5 2.5 0 0 0 -2.5-2.5z" fill-rule="evenodd" opacity=".04"/><path d="m35.87 28.44a.8.8 0 0 0 -.81.8.81.81 0 0 0 .81.81.8.8 0 0 0 .8-.81.8.8 0 0 0 -.8-.8z" fill-rule="evenodd" opacity=".09"/><path d="m22 27.3a8.25 8.25 0 0 1 -15.84 3.22 8.31 8.31 0 0 0 2 4.18 7.93 7.93 0 0 0 .88.86 8.23 8.23 0 0 0 13.53-6.32 8.41 8.41 0 0 0 -.66-3.24 10.71 10.71 0 0 1 .09 1.3z" fill="#eaeaea"/><path d="m34.1 35.55a8.24 8.24 0 0 1 -8.24-8.25 7.71 7.71 0 0 1 .14-1.3 8.24 8.24 0 0 0 12.88 9.54 8 8 0 0 0 .89-.86 8.2 8.2 0 0 0 2-4.18 8.23 8.23 0 0 1 -7.67 5.05z" fill="#eaeaea"/><path d="m6.07 20.38c.09 2 .17 4 .17 7.18a8.59 8.59 0 0 1 .32-1.13c0-.14.08-.29.12-.46a9.73 9.73 0 0 0 .46-3.1 5.2 5.2 0 0 0 -1.07-2.49z" fill-rule="evenodd" opacity=".09"/><g fill="#282828"><path d="m5.94 43.08c0 1.14 0 2.26-.06 3.37l.86.08h.94c0-1.66-.07-3.32 0-4.92.07-2.26.24-4.59.43-6.94a8.29 8.29 0 0 1 -1.9-3.91c-.06 3.6-.21 8.08-.27 12.32z" opacity=".11"/><path d="m40.71 22.87a10.32 10.32 0 0 0 .47 3.1c0 .17.08.32.12.46a8.59 8.59 0 0 1 .32 1.13c0-3.18.08-5.18.17-7.18a5.21 5.21 0 0 0 -1.08 2.49z" fill-rule="evenodd" opacity=".11"/><path d="m40.22 46.63 1.78-.23c0-1.08 0-2.18-.05-3.29-.09-4.24-.22-8.73-.28-12.32a8.19 8.19 0 0 1 -1.89 3.91c.19 2.34.37 4.68.44 6.94.01 1.75 0 3.46 0 4.99z" opacity=".11"/></g></svg>