<svg viewBox="0 0 6.12 6.12" xmlns="http://www.w3.org/2000/svg"><path d="m5.62 2.41v1.31a1.9 1.9 0 0 1 -1.9 1.9h-1.31a1.9 1.9 0 0 1 -1.91-1.9v-1.31a1.9 1.9 0 0 1 1.9-1.91h1.32a1.9 1.9 0 0 1 1.9 1.91z" fill="#3775bf"/><path d="m5.65 1a1.75 1.75 0 0 0 -.34-.39 2.38 2.38 0 0 0 -1.59-.61h-1.32a2.41 2.41 0 0 0 -2.4 2.41v1.31a2.4 2.4 0 0 0 2.4 2.4h1.32a2.39 2.39 0 0 0 2.4-2.4v-1.31a2.35 2.35 0 0 0 -.47-1.41zm0 2.73a1.9 1.9 0 0 1 -1.9 1.9h-1.34a1.9 1.9 0 0 1 -1.91-1.91v-1.31a1.9 1.9 0 0 1 1.9-1.91h1.32a1.83 1.83 0 0 1 1.28.5 1.44 1.44 0 0 1 .33.4 1.87 1.87 0 0 1 .28 1z" fill="#3365ad"/><path d="m5 1a1.44 1.44 0 0 1 .33.4l-2.94 4.08a.25.25 0 0 1 -.41 0l-1.41-1.9a.25.25 0 0 1 .4-.3l1.21 1.63z" fill="#eaeaea"/></svg>