<svg viewBox="0 0 181.69 191.32" xmlns="http://www.w3.org/2000/svg"><path d="m177.91 29a11.41 11.41 0 0 0 -4.58-.85c-14.8-.11-29.61-.13-44.41-.17-1 0-1.94 0-3.13 0 0-3.13 0-5.94 0-8.75-.09-10.81-7.87-18.94-18.64-19.11q-16.47-.25-32.94.04c-10.51.19-18.21 8.3-18.32 18.84v9c-1.51 0-2.59 0-3.66 0q-22.33 0-44.66.09c-4.51.02-7.51 2.83-7.57 6.91s3 7.08 7.58 7.17c3 .06 6 .13 9 0 2-.1 2.55.59 2.65 2.51.55 9.72 1.23 19.43 1.86 29.14 1.91 29.58 3.91 59.18 5.81 88.84 1.1 17.34 12.77 28.59 30.15 28.6q24.95 0 49.9 0c7.32 0 14.65.25 22-.2a27.72 27.72 0 0 0 25.81-24.86c1.11-12.3 1.79-24.64 2.52-37a6.76 6.76 0 0 0 -6.75-7.17 7.32 7.32 0 0 0 -7.31 6.86q-1 16.61-2.06 33.22c-.58 9.47-6.27 15-15.72 15q-34.69.06-69.37 0c-9.11 0-14.94-5.61-15.47-14.74q-2.6-44.65-5.23-89.37c-.54-9.22-1.16-18.44-1.73-27.65 0-.9 0-1.8 0-2.75h114.7v3.23q-.81 13.27-1.64 26.56a7 7 0 0 0 6.69 7.47 7 7 0 0 0 7.35-6.6q.87-14.28 1.73-28.57c.13-2.12.9-2.64 2.86-2.56 3.24.13 6.5.14 9.73 0a6.95 6.95 0 0 0 2.85-13.13zm-66.13-1.18h-41.84c0-3.25-.16-6.4.06-9.52.16-2.34 2-3.6 4.87-3.61h25.2 7c3 .08 4.64 1.64 4.71 4.61.06 2.7 0 5.44 0 8.48z"/><path d="m111.77 109.69q0-18.34 0-36.67c0-3.5 1.61-6.06 4.4-7.14 4.81-1.87 9.54 1.44 9.58 6.79.06 9.65 0 19.29 0 28.94q0 22.32 0 44.64c0 4.25-2.52 7.22-6.33 7.65-4.24.47-7.63-2.83-7.64-7.55 0-12.22 0-24.44 0-36.66z"/><path d="m55.89 109.47c0-12.22 0-24.44 0-36.66 0-5.2 4.23-8.48 9-7.12 3.08.88 5 3.54 5 7.22q0 23.94 0 47.87 0 12.6 0 25.19c0 4.76-2.89 8-7 8s-6.93-3.27-6.94-8.07q-.07-18.22-.06-36.43z"/><path d="m83.84 109.68c0-12.3 0-24.6 0-36.91 0-5.18 4.27-8.46 9-7.07 3.14.92 4.95 3.61 4.95 7.49q0 29.55 0 59.1v14s-3 7.75-7.07 7.69-6.9-3.2-6.91-7.61c0-12.21 0-24.43 0-36.65z"/></svg>