<svg viewBox="0 0 14.18 14.18" xmlns="http://www.w3.org/2000/svg"><path d="m14.08 6.7a7.07 7.07 0 0 0 -6.55-5.83v-.46a.41.41 0 0 0 -.41-.41.41.41 0 0 0 -.42.41v.46a6.9 6.9 0 0 0 -3.2 1 .43.43 0 0 0 -.22.36.42.42 0 0 0 .42.41.47.47 0 0 0 .2-.06 6.08 6.08 0 0 1 1.64-.69 10 10 0 0 0 -1.3 4.29 4.33 4.33 0 0 0 -1.75-.33 4.88 4.88 0 0 0 -1.37.15 5.77 5.77 0 0 1 .88-1.73.35.35 0 0 0 0-.11.42.42 0 0 0 -.41-.43.4.4 0 0 0 -.35.21 6.9 6.9 0 0 0 -1.14 2.76.83.83 0 0 0 -.1.39.41.41 0 0 0 .41.41.48.48 0 0 0 .47-.38s0-.06 0-.08a2.82 2.82 0 0 1 1.6-.37 2.38 2.38 0 0 1 1.66.43.42.42 0 0 0 .42.4.41.41 0 0 0 .44-.39 3.49 3.49 0 0 1 1.7-.43v5.84a1.67 1.67 0 0 0 3.33 0v-.42a.42.42 0 0 0 -.84 0v.42a.83.83 0 0 1 -1.66 0v-5.84a3.34 3.34 0 0 1 1.65.42.41.41 0 0 0 .41.39.42.42 0 0 0 .41-.39 2.38 2.38 0 0 1 1.66-.43 2.82 2.82 0 0 1 1.6.37s0 0 0 .07a.48.48 0 0 0 .47.39.41.41 0 0 0 .41-.41.83.83 0 0 0 -.06-.39zm-7-.86a6.09 6.09 0 0 0 -2 .31c.3-2.8 1.28-4.46 2-4.46s1.69 1.75 2 4.45a6 6 0 0 0 -1.96-.3zm4.57 0a4.33 4.33 0 0 0 -1.75.33 10.18 10.18 0 0 0 -1.22-4.28 6.25 6.25 0 0 1 4.38 4.11 4.88 4.88 0 0 0 -1.37-.16z" fill="#0a0a16"/></svg>