<svg viewBox="0 0 12.5 9.37" xmlns="http://www.w3.org/2000/svg"><path d="m10.08 4.68h.09a2.33 2.33 0 0 1 1.83.85 2.26 2.26 0 0 1 .47.94 2.23 2.23 0 0 1 .06.77 2.36 2.36 0 0 1 -.37 1.06 2.33 2.33 0 0 1 -1.16.93 2.46 2.46 0 0 1 -.86.14h-2.65a2.88 2.88 0 0 1 -.82-.1 1.59 1.59 0 0 1 -1.12-1 1.53 1.53 0 0 1 -.08-.52v-2.5h-.07l-.83.83a.4.4 0 0 1 -.44.1.39.39 0 0 1 -.13-.57c.17-.18.35-.35.52-.52l1-1a.4.4 0 0 1 .36-.13.43.43 0 0 1 .3.04l1.12 1.16.42.42a.4.4 0 0 1 -.09.63.38.38 0 0 1 -.43 0l-.61-.6c-.09-.09-.18-.19-.28-.28h-.06v2.5a.77.77 0 0 0 .48.74 1.36 1.36 0 0 0 .56.11h2.85a1.54 1.54 0 0 0 1.2-.54 1.64 1.64 0 0 0 .36-.79 1.52 1.52 0 0 0 -.32-1.2 1.48 1.48 0 0 0 -.83-.55 2.63 2.63 0 0 0 -.74 0h-.19a.4.4 0 0 1 -.41-.6 5.47 5.47 0 0 0 .16-.9 3.14 3.14 0 0 0 -.11-1 3 3 0 0 0 -1-1.57 3 3 0 0 0 -1-.56 3 3 0 0 0 -1.42-.16 3.1 3.1 0 0 0 -1.91 1 3 3 0 0 0 -.67 1.19 2.85 2.85 0 0 0 -.14.92v.36a.43.43 0 0 1 -.34.41 4.5 4.5 0 0 0 -.51.08 1.9 1.9 0 0 0 -1.27.97 1.75 1.75 0 0 0 -.2 1.14 2.05 2.05 0 0 0 .8 1.38 1.78 1.78 0 0 0 .76.33h1.91a.39.39 0 0 1 .06.78h-1.81a2 2 0 0 1 -.52-.08 2.54 2.54 0 0 1 -.9-.45 2.71 2.71 0 0 1 -.88-1.12 2.31 2.31 0 0 1 -.22-.72 3.25 3.25 0 0 1 0-.54 2.53 2.53 0 0 1 .34-1.1 2.7 2.7 0 0 1 1.42-1.26c.17-.1.36-.1.53-.1s0 0 0-.05a3.56 3.56 0 0 1 .08-.8 4 4 0 0 1 .21-.67 3.81 3.81 0 0 1 1.06-1.48 4 4 0 0 1 1.09-.7 4.3 4.3 0 0 1 .95-.3 3.79 3.79 0 0 1 1 0l.61.11a3.66 3.66 0 0 1 .85.33 3.93 3.93 0 0 1 .68.47 4.13 4.13 0 0 1 .74.82 4.08 4.08 0 0 1 .47 1c0 .2.09.4.13.6a3.79 3.79 0 0 1 0 1 2.36 2.36 0 0 1 0 .28s-.08.03-.08.07z" fill="#fff"/></svg>