<svg viewBox="0 0 26.38 16.79" xmlns="http://www.w3.org/2000/svg" xmlns:xlink="http://www.w3.org/1999/xlink"><linearGradient id="a" gradientUnits="userSpaceOnUse" x1="13.01" x2="13.01" y1="1.43" y2="16.72"><stop offset="0" stop-color="#ebebeb"/><stop offset=".47" stop-color="#eee"/><stop offset=".84" stop-color="#f8f8f8"/><stop offset="1" stop-color="#fff"/></linearGradient><path d="m14.48 16.71s-1.92 0-2.59 0-.81.12-1-.49-.23-3.5-.31-4.95-1.03-3.27-1.48-5.11-.16-3.43.53-3.88a6.78 6.78 0 0 1 3.66-.84c1.45.07 3.2.46 3.66 1.29s.05 2.67-.54 4.42a14.87 14.87 0 0 0 -1.06 4.85 29 29 0 0 1 -.08 3.89c-.15.61.1.67-.79.87" fill="url(#a)"/><path d="m6.84 7.69c0 1-1 1.73-2.32 1.7s-2.31-.74-2.31-1.65 1-1.65 2.31-1.65 2.29.57 2.32 1.6" fill="#ececec"/><path d="m19.63 7.78c0-1 1.05-1.73 2.32-1.69s2.31.74 2.31 1.65-1 1.65-2.31 1.65-2.29-.58-2.32-1.61" fill="#ececec"/><path d="m24.23.17a6.2 6.2 0 0 0 -4.64.89c-1.18.67-2.11 1.11-3.87 2a2 2 0 0 1 -2.13-.27 3.93 3.93 0 0 1 -2.93.21c-1.76-.83-2.66-1.27-3.87-1.94a6.2 6.2 0 0 0 -4.64-.89 3.07 3.07 0 0 0 -2.15 3.34 3.94 3.94 0 0 0 1.51 3.06c.23.27.59.47.62.91.05.72.36.85.36.85a1 1 0 0 1 -.16-.57 2.57 2.57 0 0 1 .07-.56 2.3 2.3 0 0 1 .2.46 7.33 7.33 0 0 1 .19.82s-.06-.48-.09-.8a2.13 2.13 0 0 1 0-.61 2.67 2.67 0 0 1 .3.33c.17.23.37.56.37.56s-.16-.4-.2-.54a1.32 1.32 0 0 1 -.08-.37 1 1 0 0 1 .28.17c.21.16.52.44.52.44l-.33-.48a2.14 2.14 0 0 1 -.19-.41 2.25 2.25 0 0 1 .35.11l.47.26a3.61 3.61 0 0 1 -.19-.32 1 1 0 0 1 -.12-.27 1.2 1.2 0 0 1 .35.09l.46.28a5.24 5.24 0 0 1 -.42-.45 1.49 1.49 0 0 1 -.14-.31.85.85 0 0 1 .27 0l.56.11a1.69 1.69 0 0 0 -.76-.42c-1.2-.31-1.43-.21-2.2-.96a2.9 2.9 0 0 1 -.64-2.57 2.26 2.26 0 0 1 2.44-1.43c1.61 0 4 1.88 5 2.45s1.39.37 2.4 1.65c.84 1.08 1.4 3.79 1.63 5.86s-.3 2.6-.82 2.82-.37-.15-.59.3.44 2.74.44 2.74l1.26.08 1.33-.08s.67-2.3.45-2.74-.08-.08-.59-.3-1-.74-.82-2.82.81-4.78 1.66-5.85c1-1.28 1.5-1.16 2.39-1.65s3.46-2.41 5.04-2.46a2.26 2.26 0 0 1 2.49 1.43 2.86 2.86 0 0 1 -.64 2.57c-1.14 1-1.34.53-2.32 1.07-.47.25-.45.29-.45.29l.34-.08a.9.9 0 0 1 .28 0 1.29 1.29 0 0 1 -.15.31 4.14 4.14 0 0 1 -.41.45l.46-.28a1.13 1.13 0 0 1 .35-.09 1 1 0 0 1 -.12.27 3.61 3.61 0 0 1 -.25.32l.46-.26a2.25 2.25 0 0 1 .38-.12 2.14 2.14 0 0 1 -.19.41l-.33.48s.31-.28.52-.44a1 1 0 0 1 .27-.17 1.48 1.48 0 0 1 -.07.37c0 .14-.2.54-.2.54s.2-.33.37-.56a2.67 2.67 0 0 1 .29-.33 2.13 2.13 0 0 1 0 .61c0 .28-.09.8-.09.8s.09-.52.18-.82a2.73 2.73 0 0 1 .25-.46 2.57 2.57 0 0 1 .07.56 2.46 2.46 0 0 1 -.1.71 1.69 1.69 0 0 0 .3-1c0-.44.39-.64.62-.91a3.94 3.94 0 0 0 1.51-3.06 3.07 3.07 0 0 0 -2.17-3.33" fill="#fff"/></svg>