<svg viewBox="0 0 47.08 32.13" xmlns="http://www.w3.org/2000/svg" xmlns:xlink="http://www.w3.org/1999/xlink"><linearGradient id="a" gradientUnits="userSpaceOnUse" x1="23.61" x2="23.61" y2="10.6"><stop offset=".03" stop-color="#fff"/><stop offset=".32" stop-color="#fff" stop-opacity=".99"/><stop offset=".48" stop-color="#fefefe" stop-opacity=".96"/><stop offset=".61" stop-color="#fdfdfd" stop-opacity=".91"/><stop offset=".72" stop-color="#fbfbfb" stop-opacity=".84"/><stop offset=".82" stop-color="#f8f8f8" stop-opacity=".74"/><stop offset=".92" stop-color="#f5f5f5" stop-opacity=".63"/><stop offset="1" stop-color="#f2f2f2" stop-opacity=".5"/></linearGradient><path d="m33.29 0a4.35 4.35 0 0 1 -.64 2.26c-.65.46-.82-.26-.82-.26s-.19 3.89-2 5.21l-.31.28-.48.42-.92.77-.74.57-.09.07a3.15 3.15 0 0 1 -.73.42s-.74.78-2.94.78-2.93-.78-2.93-.78a3.68 3.68 0 0 1 -.9-.55l-.29-.22-.59-.47-.17-.14c-.74-.62-1.38-1.2-1.38-1.2-1.78-1.32-2-5.21-2-5.21s-.13.69-.82.23a4.47 4.47 0 0 1 -.62-2.18z" fill="#fff"/><path d="m47.08 21.52v3.87.33a6 6 0 0 1 -.08.74 5.6 5.6 0 0 1 -.12.59 6.74 6.74 0 0 1 -6.53 5.08h-33.61a6.74 6.74 0 0 1 -6.48-4.89 6.44 6.44 0 0 1 -.26-1.59 2.26 2.26 0 0 1 0-.26v-3.73c3.31-4 9.39-3.86 9.39-3.86s6.58-2.15 7.49-3.47.46-7.09.46-7.09.64.58 1.38 1.2l.17.14.59.47.29.22a3.68 3.68 0 0 0 .9.55s.73.78 2.93.78 2.94-.78 2.94-.78a3.15 3.15 0 0 0 .73-.42l.09-.06.74-.57.92-.77.48-.42.31-.28s-.45 5.76.46 7.09 7.5 3.47 7.5 3.47 5.98-.21 9.31 3.66z" fill="#fff"/><path d="m33.29 0a4.35 4.35 0 0 1 -.64 2.26c-.65.46-.82-.26-.82-.26s-.19 3.89-2 5.21l-.31.28-.48.42-.92.77-.74.57-.09.07a3.15 3.15 0 0 1 -.73.42s-.74.78-2.94.78-2.93-.78-2.93-.78a3.68 3.68 0 0 1 -.9-.55l-.29-.22-.59-.47-.17-.14c-.74-.62-1.38-1.2-1.38-1.2-1.78-1.32-2-5.21-2-5.21s-.13.69-.82.23a4.47 4.47 0 0 1 -.62-2.18z" fill="url(#a)"/><path d="m47.08 24.84v.55.33a6 6 0 0 1 -.08.74c-8.89-5.28-16.33-6.26-18.53-3.55-2.73 3.32-2.07 9.22-2.07 9.22h-2.79a21.41 21.41 0 0 1 .48-5.52 3.73 3.73 0 0 0 -.15-.38c-1.11-2.5-9-4.75-23.93-.58a2.26 2.26 0 0 1 0-.26v-1.39c3.66-1.1 13.11-4 18.38-3.18.39.06.79.14 1.17.23-.07-2.18-.27-7.57-.66-12.45-.1-1.15-.21-2.28-.32-3.32 0-.07 0-.17 0-.27-.09-1-.18-3.28-.28-5h.78c.11 2.09.21 5 .32 6s.26 2.18.4 3.27c.58 4.63 1.24 9.18 1.89 11.85a1.36 1.36 0 0 0 .74.9 9.5 9.5 0 0 1 1.51.89 8.48 8.48 0 0 1 1.18 1 7.8 7.8 0 0 1 1.88-2.45 1.18 1.18 0 0 0 .39-.58.92.92 0 0 0 0-.29c0-1.34 0-3.59 0-6.14 0-1.65 0-3.43-.06-5.14 0-.31 0-.61 0-.91 0-1.85-.11-5.84-.2-8.39h.53c0 1.56.06 3.53.09 3.94.12 1.54.23 3.16.34 4.78v.06c.32 4.68.56 9.27.48 11.31a.25.25 0 0 0 .35.23c5.25-2.08 15.71 3.26 18.16 4.5z" fill="#ddd"/><path d="m47.07 25.72a6 6 0 0 1 -.08.74 5.6 5.6 0 0 1 -.12.59c-7.38-3-15.19-5.18-18.41-4.14a8.49 8.49 0 0 0 -4.52 3.32 11.21 11.21 0 0 0 -1.81 5.9h-2.5a21 21 0 0 1 1-4.18 2.78 2.78 0 0 0 -.7-3c-1.69-1.55-9.55-1-19.68 2.29a6.44 6.44 0 0 1 -.25-1.59 2.26 2.26 0 0 1 0-.26c3.94-1.6 13.16-5.09 17.88-3.91a.31.31 0 0 0 .37-.22 3.17 3.17 0 0 0 .13-.43c.54-2.14.52-7.46.34-12.36 0-1.09-.09-2.17-.15-3.18 0-.07 0-.17 0-.27 0-1-.06-3.28-.1-5h.8c0 2.1.08 5.05.12 6s.08 2 .11 3.05c.16 5.37.19 10.41.1 13a8.4 8.4 0 0 1 2.18 1.39 1.21 1.21 0 0 0 1.66-.06c.16-.16.32-.32.49-.46a9.22 9.22 0 0 1 1.61-1.16s1-6.1 1.75-12.35c0-.34.07-.66.11-1 .16-1.52.31-3 .42-4.45 0-.41.06-2.38.08-3.94h.78c-.17 3-.34 7.17-.51 8.71v.09c-.27 2.47-.5 4.23-.68 5.64a29.65 29.65 0 0 0 -.35 6.15.3.3 0 0 0 .3.28h.1c5.34-1.74 14.46 2.85 15.17 3.09s2.74 1.08 4.36 1.72z" fill="#e0e0e0"/></svg>