<svg enable-background="new 0 0 512 512" viewBox="0 0 512 512" xmlns="http://www.w3.org/2000/svg"><path d="m316.3 195.7c-4.2-4.2-10.9-4.2-15.1 0s-4.2 10.9 0 15.1c12.1 12.1 18.8 28.1 18.8 45.2 0 35.3-28.7 64-64 64-17.1 0-33.2-6.7-45.2-18.8-4.2-4.2-10.9-4.2-15.1 0-4.2 4.1-4.2 10.9 0 15.1 16.1 16.1 37.5 25 60.3 25 47.1 0 85.3-38.3 85.3-85.3 0-22.8-8.8-44.3-25-60.3z"/><path d="m270.9 172.1c-4.8-.9-9.8-1.5-14.9-1.5-47.1 0-85.3 38.3-85.3 85.3 0 5.1.6 10 1.5 14.9.9 5.2 5.4 8.8 10.5 8.8.6 0 1.2 0 1.9-.2 5.8-1 9.7-6.6 8.6-12.4-.7-3.6-1.2-7.3-1.2-11.2 0-35.3 28.7-64 64-64 3.8 0 7.5.5 11.2 1.1 5.7 1.2 11.3-2.9 12.4-8.6.9-5.6-2.9-11.1-8.7-12.2z"/><path d="m509.5 249.1c-2.4-2.9-60.1-70.2-139.7-111.4-5.2-2.7-11.7-.7-14.4 4.6-2.7 5.2-.7 11.7 4.6 14.4 61.3 31.7 110.3 81.3 127 99.4-25.4 27.5-125.5 128-231 128-35.8 0-71.9-8.6-107.3-25.7-5.2-2.6-11.7-.3-14.2 5-2.6 5.3-.3 11.7 5 14.2 38.3 18.4 77.5 27.7 116.5 27.7 131.4 0 248.6-136.6 253.5-142.4 3.4-4 3.3-9.8 0-13.8z"/><path d="m326 118.9c-24.3-8.2-47.8-12.3-70-12.3-131.4.1-248.6 136.7-253.5 142.5-3.1 3.7-3.4 9-.6 13 1.5 2.1 36.7 52.2 97.9 92.8 1.8 1.2 3.8 1.8 5.9 1.8 3.4 0 6.8-1.7 8.9-4.8 3.3-4.9 1.9-11.5-3-14.8-44.9-29.8-75.6-65.9-87.1-80.5 24.5-26.7 125.2-128.6 231.5-128.6 19.9 0 41.1 3.8 63.2 11.2 5.6 2 11.6-1.1 13.5-6.7s-1.1-11.7-6.7-13.6z"/><path d="m444.9 67.1c-4.2-4.2-10.9-4.2-15.1 0l-362.7 362.7c-4.2 4.2-4.2 10.9 0 15.1 2.1 2.1 4.8 3.1 7.6 3.1s5.5-1 7.5-3.1l362.7-362.7c4.1-4.1 4.1-10.9 0-15.1z"/></svg>