<svg viewBox="0 0 11.99 11.99" xmlns="http://www.w3.org/2000/svg"><g fill="#5ba4ba"><path d="m6 12a6 6 0 1 1 0-12 5.93 5.93 0 0 1 3.71 1.29.28.28 0 0 1 0 .39.27.27 0 0 1 -.39 0 5.44 5.44 0 1 0 1.37 1.6.28.28 0 0 1 .1-.38.29.29 0 0 1 .38.11 6 6 0 0 1 -5.17 8.99z"/><path d="m9.26 7.4-.55-4.16a.8.8 0 0 0 -.88-.69.82.82 0 0 0 -.68.73 4.16 4.16 0 0 1 -2.48 1.28l-1.67.23a.78.78 0 0 0 -.68.88l.13 1a.78.78 0 0 0 .89.67l.16 1.2a.8.8 0 0 0 .89.68.79.79 0 0 0 .67-.88l-.06-.34v-.25-.05-.2-.33h.52.61a3.56 3.56 0 0 1 1.66.6.79.79 0 0 0 1.53-.29zm-4.94 1.3a.26.26 0 0 1 -.32-.22l-.13-1.17.52-.07.14 1.17a.24.24 0 0 1 -.21.29zm-1.07-1.83a.28.28 0 0 1 -.25-.23l-.13-1a.25.25 0 0 1 .23-.29l1.6-.21.2 1.56zm2.12-.26-.2-1.61a4.36 4.36 0 0 0 2.05-1.08l.42 3.21a4.22 4.22 0 0 0 -2.27-.52zm3.15 1.15a.26.26 0 0 1 -.3-.23l-.54-4.15a.28.28 0 0 1 .22-.31.26.26 0 0 1 .29.23l.55 4.16a.27.27 0 0 1 -.22.3z"/></g></svg>