<svg viewBox="0 0 77.88 141.53" xmlns="http://www.w3.org/2000/svg" xmlns:xlink="http://www.w3.org/1999/xlink"><clipPath id="a" transform="translate(1.56 -5.29)"><path d="m0 0h75.62v150.35h-75.62z"/></clipPath><clipPath id="b" transform="translate(1.56 -5.29)"><path d="m46.28 37.84c-3.28 5.44-4.72 6.84-11.7 15 .16-1.09.5-1.12-.43-2.91-6 11.49-15.14 10.87-19.48 21.7l.33-6.54-5.5 11.66c-2.89 6.08-6.5 16.65-5.59 23.4-.81-1.5-1.61-5.66-1.64-9.15-3.83 15.45 1.77 27.63 8.88 39.24l28.94-56.74c2.36-3.87 6.26-7.09 9.26-10.49a64.4 64.4 0 0 0 6.91-10.46 61.69 61.69 0 0 0 5.88-19.3 23.79 23.79 0 0 0 -5.14-19.54c-2 .13-3.31.34-4.84-.74-1.79-1.25-2.16-2.4-4.16-4.15 3.16 8.43 2.84 21.45-1.73 29"/></clipPath><linearGradient id="c" gradientTransform="matrix(209.27 0 0 -209.27 351974.6 152321.65)" gradientUnits="userSpaceOnUse" x1="-1681.87" x2="-1681.57" y1="727.55" y2="727.55"><stop offset="0" stop-color="#1c5287"/><stop offset="1" stop-color="#1b65af"/></linearGradient><clipPath id="d" transform="translate(1.56 -5.29)"><path d="m37.62 9.22a22.36 22.36 0 0 1 -4.17 1.45c-.81 7.16-1.76 14.14-.35 20.34a42.51 42.51 0 0 0 7.95 16.07l6 10.49c4.22 9.66 6.55 20.42 4.75 30.81a15.21 15.21 0 0 0 -2.42-7 33.78 33.78 0 0 1 -2.82 16.94l-14.51 19.83 11 11.84a33.2 33.2 0 0 0 29.36-22.24 29.46 29.46 0 0 1 -7.63 6.25 38 38 0 0 0 10.22-20.6 48.63 48.63 0 0 0 -2-23.07 15.92 15.92 0 0 1 -.5 8.86c.66-11.68-7.65-22.66-8.34-24.81a16.87 16.87 0 0 1 .57 4.36 43 43 0 0 0 -14.51-24.65 15.7 15.7 0 0 1 .54 1.73 80.38 80.38 0 0 0 -5.13-9.26 17.94 17.94 0 0 1 -2.73-6.43 51.76 51.76 0 0 1 -.74-14.84 15.78 15.78 0 0 1 -4.54 3.93"/></clipPath><linearGradient id="e" gradientTransform="matrix(148.37 0 0 -148.37 249155.97 108115.15)" gradientUnits="userSpaceOnUse" x1="-1679.06" x2="-1678.77" y1="728.27" y2="728.27"><stop offset="0" stop-color="#f8d459"/><stop offset="1" stop-color="#e8b21c"/></linearGradient><clipPath id="f" transform="translate(1.56 -5.29)"><path d="m13.81 139.25-5.81 2.36a.17.17 0 0 0 .12.31l.94-.12a.2.2 0 0 1 .14.37l-1.05.57a.19.19 0 0 0 .14.36l1.39-.28a.2.2 0 0 1 .13.37l-1.67 1a.19.19 0 0 0 .12.36c3.06-.69 6.69-1.18 10-4.6 2.41-2.5 2.54-3.31 1.7-3.31-1.51 0-6.16 2.63-6.16 2.63"/></clipPath><linearGradient id="g" gradientTransform="matrix(0 -11.7 -11.7 0 6783.31 -19352.58)" x1="-1665.97" x2="-1665.68" xlink:href="#c" y1="578.45" y2="578.45"/><clipPath id="h" transform="translate(1.56 -5.29)"><path d="m35.19 141.32c3 2.79 4.5 3 7.56 3.72a.19.19 0 0 0 .12-.36l-1.51-1a.2.2 0 0 1 .13-.37l1.23.25a.19.19 0 0 0 .14-.36l-.82-.57a.19.19 0 0 1 .14-.36l.75.12a.17.17 0 0 0 .12-.31l-3.4-1.5s-4.78-2.45-6.32-2.45c-.85 0-.7.76 1.86 3.14"/></clipPath><linearGradient id="i" gradientTransform="matrix(10.4 0 0 10.4 16797.39 -8891.78)" x1="-1612" x2="-1611.71" xlink:href="#c" y1="868.79" y2="868.79"/><clipPath id="j" transform="translate(1.56 -5.29)"><path d="m45.72 115.55a.57.57 0 0 0 .18-.12z"/></clipPath><linearGradient id="k" gradientTransform="matrix(0 -.06 -.06 0 -1516.53 -379.1)" gradientUnits="userSpaceOnUse" x1="-7775.73" x2="-7775.44" y1="-24561.65" y2="-24561.65"><stop offset="0" stop-color="#f0f1f2"/><stop offset="1" stop-color="#c8c8c8"/></linearGradient><clipPath id="l" transform="translate(1.56 -5.29)"><path d="m7.15 59.46h39.13v80.8h-39.13z"/></clipPath><clipPath id="m" transform="translate(1.56 -5.29)"><path d="m6.06 98.76a14.11 14.11 0 0 0 1.11 5 16.62 16.62 0 0 0 8.39 8.47 14.76 14.76 0 0 0 2.13.74l.3.07h.15l.31.06c.2 0 .4.06.6.08a2.39 2.39 0 0 0 1.89-.65 2.19 2.19 0 0 0 .47-2.31 4.24 4.24 0 0 0 -1.13-1.71c-.68-.67-1.49-1.2-2-1.7 0 0 0 0-.05 0a72.94 72.94 0 0 1 -10.74-12.53 10 10 0 0 0 -1.43 4.48"/></clipPath><linearGradient id="n" gradientTransform="matrix(0 -57.08 -57.08 0 39759.44 -95933.13)" gradientUnits="userSpaceOnUse" x1="-1682.76" x2="-1682.47" y1="696.36" y2="696.36"><stop offset="0" stop-color="#f0f0f0"/><stop offset=".01" stop-color="#f0f0f0"/><stop offset="1" stop-color="#dcdcdc"/></linearGradient><clipPath id="o" transform="translate(1.56 -5.29)"><path d="m46.28 103.71c-3.91 8.14-10.31 9.54-10.91 9.66-2 .44-4.41.49-5.45 1.48l-.08.07a2.09 2.09 0 0 0 -.14.17c-.55.77-.18 1.53.46 2.17a9.22 9.22 0 0 0 2.4 1.57 21.93 21.93 0 0 0 13.18-4l.18-.12c.86-.86 1.67-3.93 1.67-7.74 0-3-.81-3.33-1.15-3.33a.41.41 0 0 0 -.14 0"/></clipPath><linearGradient id="p" gradientTransform="matrix(0 -45.73 -45.73 0 31617.49 -76693.74)" x1="-1679.75" x2="-1679.46" xlink:href="#n" y1="690.57" y2="690.57"/><g clip-path="url(#a)"><g clip-path="url(#a)"><g clip-path="url(#b)"><path d="m0 3.53h64.81v121.42h-64.81z" fill="url(#c)"/></g><g clip-path="url(#d)"><path d="m33.25 0h44.63v124.71h-44.63z" fill="url(#e)"/></g><g clip-path="url(#f)"><path d="m7.28 135.63h14.08v9.96h-14.08z" fill="url(#g)" transform="matrix(.98674266 -.16229274 .16229274 .98674266 -21.06 -1.1)"/></g><g clip-path="url(#h)"><path d="m33.57 135.77h8.57v11.74h-8.57z" fill="url(#i)" transform="matrix(.16229274 -.98674266 .98674266 .16229274 -106.48 150.72)"/></g><g clip-path="url(#a)"><g fill="#00db6c"><path d="m17.09 81.72c0-.35-.16-.69-.19-1a2.7 2.7 0 0 1 0-.94c.06-.22.32-.58.41-.55.31.07.71 0 .87.43s.45 1 .67 1.48c.08.67.2 1.32.22 2a1 1 0 0 1 -.36.71c-.09.08-.46-.09-.63-.23a2.75 2.75 0 0 1 -1-1.83" transform="translate(1.56 -5.29)"/><path d="m26.65 93.16c.1-1 .05-1-.74-1.38a6 6 0 0 1 -1.48-1.18 1 1 0 0 1 .76-1.6 7.79 7.79 0 0 1 4.53.31c.51.23.6.51.37 1a2.75 2.75 0 0 1 -2 1.41c-.76.19-.92.15-1 1.43" transform="translate(1.56 -5.29)"/><path d="m34.7 83.67c-.54-.79-.14-1.56 0-2.37.27-.64.54-1.29.82-1.93a.59.59 0 0 1 .79-.34 1.11 1.11 0 0 1 .59.45 2.49 2.49 0 0 1 -.16 2.34 11.75 11.75 0 0 1 -1.07 2c-.1.16-.42.22-.65.23s-.21-.21-.3-.35" transform="translate(1.56 -5.29)"/></g><path d="m15.56 112.23a13.07 13.07 0 0 0 3.49 1 2.19 2.19 0 0 0 2.36-2.95c-.58-1.82-2.63-2.74-3.37-3.69s-.91-2 .74-4 6.25.42 6.38.25a11 11 0 0 1 1.8-2.48c1-.86 4.6 1.75 6.28 2.44s-.57 3.41-.57 3.41c2.56 1.27 6.6 3.59 5.25 5.8s-6.89 1.24-8.24 3.12 2.86 3.74 2.86 3.74a19.6 19.6 0 0 1 -15.7 4.76c-1.24-3.36-1.28-11.36-1.28-11.36" fill="#87c0d3" transform="translate(1.56 -5.29)"/><path d="m45.84 88.23c-.36-4.28-1-6.82-2-14.43-.54-4.6-.19-10.46-.37-13-3.43 1.42-6.66 5.88-8.62 9 0 0-5.18-2.16-9.52-2h-.11a19 19 0 0 0 -6.85 1.58s0 0 0 0a.14.14 0 0 0 0-.06c-.28-.79-2.69-7.08-8-9.66l-.27-.13.71 11.86s-.66 4.43-1.39 8.91c-.66 4.1-1.3 8.06-1.68 11.24a96.74 96.74 0 0 0 -.6 14.59v1.65a106.82 106.82 0 0 0 2.27 19.86c1.58 7.29 3.8 12.7 6.1 12.7a7.71 7.71 0 0 0 6.49-2.89c1.14-1.24 2.08-2.41 4.17-2.41a7.77 7.77 0 0 1 5.18 1.55c1.88 1.54 2.26 3.68 4 3.68 5.25 0 8.39-8.86 9-12.7 1.53-6.55 1.78-16.82 1.88-22.42.07-4.24-.1-12.92-.43-16.92m-11.12-6.93c.27-.64.54-1.29.82-1.93a.59.59 0 0 1 .79-.34 1.11 1.11 0 0 1 .59.45 2.49 2.49 0 0 1 -.16 2.34 11.75 11.75 0 0 1 -1.07 2c-.1.16-.42.22-.65.24s-.21-.22-.3-.35c-.54-.8-.14-1.57 0-2.38m-9.51 7.67a7.79 7.79 0 0 1 4.53.31.79.79 0 0 1 .46.41.79.79 0 0 1 -.09.61 2.75 2.75 0 0 1 -2 1.41c-.76.2-.92.15-1 1.43h-.46c.1-1 .05-1-.74-1.38a6 6 0 0 1 -1.48-1.18.79.79 0 0 1 -.14-.79 1.07 1.07 0 0 1 .9-.8m-8.25-9.27c.06-.22.32-.58.41-.55.31.07.71 0 .87.44s.45 1 .67 1.47c.08.67.2 1.32.22 2a1 1 0 0 1 -.36.71c-.09.08-.46-.09-.63-.23a2.75 2.75 0 0 1 -1-1.83c0-.35-.16-.69-.19-1a2.74 2.74 0 0 1 0-1m-.1 43.86c-1.24-3.37-1.28-11.37-1.28-11.37a13.21 13.21 0 0 0 3.49 1 2.19 2.19 0 0 0 2.36-2.95c-.58-1.82-2.63-2.74-3.37-3.69s-.91-2 .74-4 6.25.42 6.38.25a11 11 0 0 1 1.8-2.48c1-.86 4.6 1.75 6.28 2.44s-.57 3.41-.57 3.41c2.56 1.27 6.6 3.6 5.25 5.8s-6.89 1.24-8.24 3.12 2.86 3.74 2.86 3.74a19.63 19.63 0 0 1 -15.7 4.77" fill="#f4f4f4" transform="translate(1.56 -5.29)"/><path d="m17.09 81.72c0-.35-.16-.69-.19-1a2.7 2.7 0 0 1 0-.94c.06-.22.32-.58.41-.55.31.07.71 0 .87.43s.45 1 .67 1.48c.08.67.2 1.32.22 2a1 1 0 0 1 -.36.71c-.09.08-.46-.09-.63-.23a2.75 2.75 0 0 1 -1-1.83" transform="translate(1.56 -5.29)"/><path d="m34.7 83.67c-.54-.79-.14-1.56 0-2.37.27-.64.54-1.29.82-1.93a.59.59 0 0 1 .79-.34 1.11 1.11 0 0 1 .59.45 2.49 2.49 0 0 1 -.16 2.34 11.75 11.75 0 0 1 -1.07 2c-.1.16-.42.22-.65.23s-.21-.21-.3-.35" transform="translate(1.56 -5.29)"/><g fill="#0e0e0e"><path d="m30.09 90.34a2.75 2.75 0 0 1 -2 1.41c-.76.19-.92.15-1 1.43h-.46c.11-1 .05-1-.74-1.38a6 6 0 0 1 -1.48-1.18 1 1 0 0 1 .78-1.62 7.79 7.79 0 0 1 4.53.31c.51.23.6.51.37 1" transform="translate(1.56 -5.29)"/><path d="m36.72 81.82a11.75 11.75 0 0 1 -1.07 2c-.1.16-.42.22-.65.23s-.21-.21-.3-.35c-.54-.79-.14-1.56 0-2.37.27-.64.54-1.29.82-1.93a.59.59 0 0 1 .79-.34 1.11 1.11 0 0 1 .59.45 2.49 2.49 0 0 1 -.16 2.34" transform="translate(1.56 -5.29)"/><path d="m19.11 83.07a1 1 0 0 1 -.36.71c-.09.08-.46-.09-.63-.23a2.75 2.75 0 0 1 -1-1.83c0-.35-.16-.69-.19-1a2.7 2.7 0 0 1 0-.94c.06-.22.32-.58.41-.55.31.07.71 0 .87.43s.45 1 .67 1.48c.08.67.2 1.32.22 2" transform="translate(1.56 -5.29)"/><path d="m29 93.45c-1 .13-2 .31-2.94.36a4.67 4.67 0 0 1 -1.49-.31c-.11 0-.18-.22-.27-.33.14-.08.28-.22.41-.21.65 0 1.3.13 1.95.2h.46a5.48 5.48 0 0 0 .63-.11c.35-.11 1-.07 1.34-.22s1.68-.9 1.83-.47-1.63 1-1.92 1.07" transform="translate(1.56 -5.29)"/></g><path d="m35.89 80.13a.55.55 0 0 1 .46.53.56.56 0 0 1 -.51.52.46.46 0 0 1 -.44-.44.63.63 0 0 1 .49-.61" fill="#fff" transform="translate(1.56 -5.29)"/><path d="m18.22 80.69a.54.54 0 0 1 -.56.49.48.48 0 0 1 -.43-.5c0-.27.3-.56.53-.55a.54.54 0 0 1 .46.56" fill="#fff" transform="translate(1.56 -5.29)"/></g><g clip-path="url(#j)"><path d="m45.7 115.39h.22v.2h-.22z" fill="url(#k)" transform="matrix(.85878111 -.51234267 .51234267 .85878111 -51.13 34.49)"/></g><g clip-path="url(#a)"><g clip-path="url(#l)" opacity=".49"><path d="m45.84 88.23c-.36-4.28-1-6.82-2-14.43-.54-4.6-.19-10.46-.37-13-3.43 1.42-6.66 5.88-8.62 9 0 0-5.17-2.16-9.52-2h-.11a19 19 0 0 0 -6.85 1.58s0 0 0 0 0 0 0-.06c-.29-.79-2.7-7.08-8-9.66l-.27-.13.71 11.86s-.66 4.43-1.39 8.91c-.66 4.1-1.3 8.06-1.68 11.24a96.74 96.74 0 0 0 -.6 14.59v1.65a107.67 107.67 0 0 0 2.27 19.86c1.58 7.29 3.8 12.7 6.1 12.7a7.71 7.71 0 0 0 6.49-2.89 7.28 7.28 0 0 1 -2.92-2.78c-2.95-5-6.09-15.73-6-21.45s-3.62-15.72-1.08-29.42 7.11-9.8 7.11-9.8 5.82 5.59 5.18 15.84a1.07 1.07 0 0 1 .9-.8 7.79 7.79 0 0 1 4.53.31.79.79 0 0 1 .46.41c-.06-1.55-.25-11.74 4.54-15.34 5.19-3.9 8.33.3 9 9.64s-2.64 16.73-2.72 19.69-1.16 24.53-3.87 27.92a27.23 27.23 0 0 1 -5.74 4.92c1.88 1.54 2.26 3.68 4 3.68 5.25 0 8.39-8.86 9-12.7 1.53-6.55 1.78-16.82 1.88-22.42.07-4.24-.1-12.92-.43-16.92" fill="#ededed" transform="translate(1.56 -5.29)"/></g><g fill="#f4f4f4"><path d="m15.75 70.5a10.42 10.42 0 0 1 -2.93.88 33.85 33.85 0 0 0 -.25-5.5c-.37-1.68 3.18 4.62 3.18 4.62" transform="translate(1.56 -5.29)"/><path d="m37.12 70.88a9.85 9.85 0 0 0 3.59 1.62s-.19-5.06.61-6.56-4.2 4.94-4.2 4.94" transform="translate(1.56 -5.29)"/></g></g><g clip-path="url(#m)"><path d="m5.59 93.93h16.55v19.68h-16.55z" fill="url(#n)" transform="matrix(.99898634 -.04501428 .04501428 .99898634 -3.09 -4.56)"/></g><g clip-path="url(#o)"><path d="m28.96 103.49h18.78v15.59h-18.78z" fill="url(#p)" transform="matrix(.99974655 -.02251285 .02251285 .99974655 -.93 -4.4)"/></g></g></g></svg>