<svg viewBox="0 0 1307.73 1307.72" xmlns="http://www.w3.org/2000/svg" xmlns:xlink="http://www.w3.org/1999/xlink"><linearGradient id="a" gradientUnits="userSpaceOnUse" x2="1307.73" y1="653.86" y2="653.86"><stop offset="0" stop-color="#fff"/><stop offset="1" stop-color="#f5f5f5"/></linearGradient><linearGradient id="b" x1="702.39" x2="680.7" xlink:href="#a" y1="455.4" y2="636.78"/><linearGradient id="c" gradientUnits="userSpaceOnUse" x1="867.77" x2="625.89" y1="888.43" y2="108.06"><stop offset="0" stop-color="#f8d459"/><stop offset="1" stop-color="#e8b21c"/></linearGradient><linearGradient id="d" gradientUnits="userSpaceOnUse" x1="281.61" x2="981.78" y1="543.94" y2="543.94"><stop offset="0" stop-color="#1c5287"/><stop offset="1" stop-color="#1b65af"/></linearGradient><path d="m1307.73 653.86c0 361.12-292.75 653.86-653.87 653.86s-653.86-292.72-653.86-653.86c0-282.42 179.05-523 429.82-614.47a649.59 649.59 0 0 1 141.62-34.24 661.13 661.13 0 0 1 213.07 7.9 649.61 649.61 0 0 1 197.27 75c194.9 113.19 325.95 324.2 325.95 565.81z" fill="#fff"/><path d="m1307.73 653.86c0 361.12-292.75 653.86-653.87 653.86s-653.86-292.72-653.86-653.86c0-282.42 179.05-523 429.82-614.47a649.59 649.59 0 0 1 141.62-34.24 661.13 661.13 0 0 1 213.07 7.9 649.61 649.61 0 0 1 197.27 75c194.9 113.19 325.95 324.2 325.95 565.81z" fill="url(#a)"/><path d="m538.69 769.8c-.52-4-1.85-8-2.22-12a32.26 32.26 0 0 1 .42-10.93c.67-2.54 3.71-6.72 4.79-6.44 3.53.86 8.18.26 10.11 5.08 2.32 5.83 5.16 11.47 7.73 17.09.94 7.75 2.32 15.27 2.54 22.84.08 2.82-1.94 6.43-4.15 8.28-1 .86-5.32-1.05-7.32-2.69a31.78 31.78 0 0 1 -11.9-21.23z"/><path d="m654.8 902.63a48.71 48.71 0 0 0 7.38-1.26 123 123 0 0 0 11.91-4.61c3.53-1.59 5.16 0 6.25 3.1 1.26 3.56-.38 5.43-3.71 5.91-11.35 1.58-22.69 3.66-34.07 4.25-5.7.28-11.58-2-17.26-3.64-1.33-.36-2.15-2.52-3.21-3.86 1.61-.85 3.26-2.5 4.8-2.39 7.57.51 15.11 1.47 22.64 2.28 1.18-11.51.54-11.29-8.57-16-6.41-3.32-12.18-8.39-17.22-13.63s-1-17.1 8.83-18.47c17.65-2.45 35.48-4.35 52.52 3.6 5.87 2.75 7 6 4.25 11.85-4.64 9.9-13.59 13.89-23.27 16.36-8.86 2.23-10.69 1.67-11.27 16.51z"/><path d="m742.79 792.46c-6.22-9.21-1.56-18.15-.24-27.56 3.16-7.44 6.3-14.91 9.51-22.34 1.8-4.2 5.54-5.19 9.26-4a13.12 13.12 0 0 1 6.82 5.27c5.52 9.3 1.57 18.54-1.88 27.16-3.18 8-7.74 15.52-12.39 22.82-1.17 1.84-4.9 2.55-7.52 2.71-1.11.08-2.53-2.52-3.56-4.06z"/><path d="m780.19 1120.51c-15.6 25.57-79.91 14.4-95.55 36.22s33.14 43.35 33.14 43.35c-87.73 74.94-182 55.23-182 55.23-14.44-39-14.85-131.75-14.85-131.75s22.21 9.86 40.46 11.32 34-13.15 27.36-34.24-30.51-31.68-39-42.74-10.56-23 8.53-46.57 72.54 4.82 74 2.86c7.87-10.66 9.41-18.75 20.94-28.73s53.25 20.31 72.74 28.28-6.59 39.49-6.59 39.49c29.63 14.77 76.4 41.77 60.82 67.28z"/><path d="m756.5 538.41-11.35 92.94s-60-25-110.35-23.5h-1.31c-37-.45 20.74-70.88 47.29-101.17 2.81-3.21 5.27-5.95 7.22-8.12 3.14-3.48 5-5.48 5-5.48l14.55 10.38 3 2.13z" fill="url(#b)"/><path d="m1021.3 721.09c-5.58 184.27-164.67 346.41-159.86 320.32 15.3-83.11 14.42-149.79 10.51-196.16-4.15-49.58-12-79-22.52-167.33-6.33-53.3-2.22-121.21-4.31-150.44-39.79 16.45-77.3 68.15-100 103.87-7.7-29.62-18-56.23-50.76-105-.18-.27-.35-.53-.54-.8q-2.55-3.8-5.3-7.77-3.7-5.38-7.77-11.12c-15.35-21.68-34.62-47.33-59-78.53-27.69-35.38-62-77.89-104.79-129.79q-4.28-5.21-8.34-10.6c-21.8-28.85-39.36-61-62.52-88.77-22.28-34.07-49.62-70.06-45.06-94a594.22 594.22 0 0 0 28.8-65.63 649.59 649.59 0 0 1 141.6-34.19c17.34 21.43 36.27 43.66 56.86 66.37 22 24.27 34.27 36.3 47 48.49 13.52 13 27.55 26.11 54.26 54.33 24.71 26.1 48.82 51.57 72 77.28 12.26 13.62 24.25 27.3 35.9 41.19q7.56 9 14.93 18.09c29.59 36.63 56.82 75 80.71 117.26 10.91 19.31 21.11 39.44 30.55 60.63 28.56 64.21 60.56 136.12 57.65 232.3z" fill="url(#c)"/><path d="m981.78 88.05c-5.14 19.25-29.1 47.67-54 85.19-26.93 40.6-44.63 59.85-78.4 101.83-4 5.86-8 11.79-12 17.74-29.67 44.57-58.1 91.44-84.47 135.35-16 26.57-31.15 52.07-45.4 75.31q-7 11.44-13.71 22.11c-7.34 11.67-14.38 22.58-21.1 32.55-8.74 13-38 49.72-38 49.72h-1.31c-7 .11-41.19 1.55-79.38 18.25a1.39 1.39 0 0 0 -.1-.26.93.93 0 0 0 0-.13c-.05-.14-.12-.32-.19-.55a2.09 2.09 0 0 0 -.08-.23c-3.66-10.06-31.65-82.1-92.41-111.72-1-.51-2.07-1-3.14-1.48l8.27 137.45s-7.66 51.42-16.06 103.37c-7.68 47.45-15.11 93.37-19.58 130.23-10.81 89-6.41 142.08-6.87 169.17-.22 13.74-1.7 20.8-7 22.49-4.15 1.31-9.84-.87-16.55-6.09-33.81-26.27-93.36-129-112.26-245-21.28-130.44 15.86-234.83 31.36-272.82 18.1-44.32 39-75.57 74.53-122.37 8.69-11.46 18.25-23.84 28.84-37.58 28.2-36.55 57.33-71 85.83-102.81 64.64-72.11 126.13-130.39 166.71-167.77 6.86-6.3 13.13-12 18.71-17.12 22.71-20.71 54.31-48.8 90.49-89.84a649.61 649.61 0 0 1 197.27 75.01z" fill="#1b65af"/><path d="m780.19 1120.51c-15.6 25.57-79.91 14.4-95.55 36.22s33.14 43.35 33.14 43.35c-87.73 74.94-182 55.23-182 55.23-14.44-39-14.85-131.75-14.85-131.75s22.21 9.86 40.46 11.32 34-13.15 27.36-34.24-30.51-31.68-39-42.74-10.56-23 8.53-46.57 72.54 4.82 74 2.86c7.87-10.66 9.41-18.75 20.94-28.73s53.25 20.31 72.74 28.28-6.59 39.49-6.59 39.49c29.63 14.77 76.4 41.77 60.82 67.28z" fill="#87c0d3"/><g fill="#0e0e0e"><path d="m689.34 869.73c-4.64 9.9-13.59 13.89-23.27 16.36-8.86 2.26-10.69 1.7-11.27 16.54l-5.27-.22c1.18-11.51.54-11.29-8.57-16-6.41-3.32-12.18-8.39-17.22-13.63s-1-17.1 8.83-18.47c17.65-2.45 35.48-4.35 52.52 3.6 5.91 2.72 7.01 5.94 4.25 11.82z"/><path d="m766.26 771c-3.18 8-7.74 15.52-12.39 22.82-1.17 1.84-4.9 2.55-7.52 2.71-1.11.09-2.53-2.52-3.56-4-6.22-9.21-1.56-18.15-.24-27.56 3.16-7.44 6.3-14.91 9.51-22.34 1.8-4.2 5.54-5.19 9.26-4a13.12 13.12 0 0 1 6.82 5.27c5.52 9.22 1.57 18.46-1.88 27.1z"/><path d="m562.06 785.43c.08 2.82-1.94 6.43-4.15 8.28-1 .86-5.32-1.05-7.32-2.69a31.78 31.78 0 0 1 -11.9-21.22c-.52-4-1.85-8-2.22-12a32.26 32.26 0 0 1 .42-10.93c.67-2.54 3.71-6.72 4.79-6.44 3.53.86 8.18.26 10.11 5.08 2.32 5.83 5.16 11.47 7.73 17.09.94 7.74 2.32 15.26 2.54 22.83z"/><path d="m676.63 905.77c-11.35 1.58-22.69 3.66-34.07 4.25-5.7.28-11.58-2-17.26-3.64-1.33-.36-2.15-2.52-3.21-3.86 1.61-.85 3.26-2.5 4.8-2.39 7.57.51 15.11 1.47 22.64 2.28l5.27.22a48.71 48.71 0 0 0 7.38-1.26 123 123 0 0 0 11.91-4.61c3.53-1.59 5.16 0 6.25 3.1 1.26 3.56-.34 5.43-3.71 5.91z"/></g><path d="m756.6 751.38c2.55 0 5.42 3.23 5.41 6.16a6.41 6.41 0 0 1 -5.92 6 5.14 5.14 0 0 1 -5.1-5.14c-.06-3.31 2.89-6.98 5.61-7.02z" fill="#fff"/><path d="m551.69 757.88a6.09 6.09 0 0 1 -6.38 5.65 5.46 5.46 0 0 1 -5-5.75c.25-3.22 3.38-6.54 6.08-6.45 2.89.1 5.47 3.3 5.3 6.55z" fill="#fff"/><path d="m852.36 310.9c-48.15 74.1-135.48 186.7-158 215.49-1.87-2.79-3.81-5.64-5.84-8.58l-6.68-237.1s65.13-21 119.66-29.08c17.59 19.5 34.58 39.12 50.86 59.27z" fill="#0e0e0e" opacity=".09"/><path d="m852.36 310.9c-48.15 74.1-135.48 186.7-158 215.49-1.87-2.79-3.81-5.64-5.84-8.58l-6.68-237.1s65.13-21 119.66-29.08c17.59 19.5 34.58 39.12 50.86 59.27z" opacity=".22"/><path d="m981.78 88.05c-5.14 19.25-29.1 47.67-54 85.19-26.93 40.6-44.63 59.85-78.4 101.83-4 5.86-8 11.79-12 17.74-29.67 44.57-58.1 91.44-84.47 135.35-16 26.57-31.15 52.07-45.4 75.31q-7 11.44-13.71 22.11c-7.34 11.67-14.38 22.58-21.1 32.55-8.74 13-38 49.72-38 49.72h-1.31c-7 .11-41.19 1.55-79.38 18.25a1.39 1.39 0 0 0 -.1-.26.93.93 0 0 0 0-.13 4.5 4.5 0 0 0 -.19-.55 2.09 2.09 0 0 0 -.08-.23c-8.12-24.62-20.47-77.68-92.41-111.72-1-.51-2.07-1-3.14-1.48l8.27 137.45s-7.66 51.42-16.06 103.37c-7.68 47.45-15.11 93.37-19.58 130.23-10.81 89-6.41 142.08-6.87 169.17-.22 13.74-1.7 20.8-7 22.49-4.15 1.31-9.84-.87-16.55-6.09-33.81-26.27-93.36-129-112.26-245-21.28-130.44 15.86-234.83 31.36-272.82 18.1-44.32 39-75.57 74.53-122.37 8.69-11.46 18.25-23.84 28.84-37.58 28.2-36.55 57.33-71 85.83-102.81 64.64-72.11 126.13-130.39 166.71-167.77 6.86-6.3 13.13-12 18.71-17.12 22.71-20.71 54.31-48.8 90.49-89.84a649.61 649.61 0 0 1 197.27 75.01z" fill="url(#d)"/><path d="m423.91 1044.19v27a6.09 6.09 0 0 1 -8.32 5.69c-5.54-2.2-11.93-5.42-15.27-8.51a10.84 10.84 0 0 1 -1.5-1.72c-7.26-10.85 2.2-23.25 5.91-27.43a3.44 3.44 0 0 1 3.27-1.08l13.22 2.74a3.44 3.44 0 0 1 2.69 3.31z" fill="#1b65af"/></svg>