<svg viewBox="0 0 37.12 37.12" xmlns="http://www.w3.org/2000/svg" xmlns:xlink="http://www.w3.org/1999/xlink"><linearGradient id="a" gradientUnits="userSpaceOnUse" x1=".38" x2="36.75" y1="18.56" y2="18.56"><stop offset="0" stop-color="#fff"/><stop offset="1" stop-color="#f5f5f5"/></linearGradient><linearGradient id="b" x1=".75" x2="36.37" xlink:href="#a" y1="18.56" y2="18.56"/><linearGradient id="c" x1="20.33" x2="19.55" xlink:href="#a" y1="6.38" y2="12.92"/><linearGradient id="d" gradientUnits="userSpaceOnUse" x1="27.85" x2="21.47" y1="23.02" y2="2.46"><stop offset="0" stop-color="#f8d459"/><stop offset="1" stop-color="#e8b21c"/></linearGradient><linearGradient id="e" gradientUnits="userSpaceOnUse" x1="5.16" x2="24.41" y1="14.73" y2="14.73"><stop offset="0" stop-color="#1c5287"/><stop offset="1" stop-color="#1b65af"/></linearGradient><path d="m18.56 36.75a18.19 18.19 0 0 1 -6.23-35.28 18.41 18.41 0 0 1 3.94-.95 17.38 17.38 0 0 1 2.29-.14 18.24 18.24 0 0 1 3.63.36 17.9 17.9 0 0 1 5.49 2.08 18.19 18.19 0 0 1 -9.12 33.93z" fill="url(#a)"/><path d="m18.56.75a17.83 17.83 0 0 1 8.93 2.4 17.8 17.8 0 1 1 -15-1.33 17.89 17.89 0 0 1 6.07-1.07m0-.75a18.27 18.27 0 0 0 -2.34.15 18.49 18.49 0 1 0 6.05.22 18.38 18.38 0 0 0 -3.71-.37z" fill="#fff"/><path d="m36.37 18.56a17.81 17.81 0 1 1 -23.91-16.74 17.89 17.89 0 0 1 6.1-1.07 17.83 17.83 0 0 1 8.93 2.4 17.8 17.8 0 0 1 8.88 15.41z" fill="url(#b)"/><path d="m14.43 17.72c0-.14-.07-.29-.08-.43a1.27 1.27 0 0 1 0-.39c0-.1.14-.25.18-.24s.29 0 .36.19.19.41.28.61.08.55.09.83a.41.41 0 0 1 -.15.29s-.19 0-.26-.09a1.16 1.16 0 0 1 -.42-.77z"/><path d="m18.62 22.51h.26l.43-.17c.13-.06.19 0 .23.11s0 .2-.14.22c-.41.05-.82.13-1.23.15a2 2 0 0 1 -.62-.13c-.05 0-.08-.09-.11-.14s.11-.09.17-.09l.82.09c0-.42 0-.41-.31-.58a2.68 2.68 0 0 1 -.62-.49.44.44 0 0 1 .31-.67 3.25 3.25 0 0 1 1.9.13c.21.1.25.21.15.43a1.17 1.17 0 0 1 -.84.59c-.32.04-.38.04-.4.55z"/><path d="m21.79 18.54c-.23-.33-.06-.66 0-1l.34-.81a.25.25 0 0 1 .34-.14.45.45 0 0 1 .24.19 1 1 0 0 1 -.06 1 5.57 5.57 0 0 1 -.45.83c0 .06-.18.09-.27.1s-.1-.12-.14-.17z"/><path d="m23.14 30.37c-.56.92-2.88.52-3.45 1.31s1.2 1.56 1.2 1.56a8.23 8.23 0 0 1 -6.57 2 20 20 0 0 1 -.53-4.75 5.31 5.31 0 0 0 1.46.41.92.92 0 0 0 1-1.24c-.24-.76-1.1-1.14-1.41-1.54s-.38-.83.31-1.68 2.62.18 2.67.11a4.25 4.25 0 0 1 .76-1c.41-.36 1.92.73 2.62 1s-.24 1.42-.24 1.42c1.04.51 2.74 1.48 2.18 2.4z"/><path d="m22.28 9.38-.41 3.35a11.6 11.6 0 0 0 -4-.85c-1.34 0 .74-2.55 1.7-3.65l.26-.29.18-.2.53.38.11.07z" fill="url(#c)"/><path d="m31.83 16c-.2 6.64-5.94 12.49-5.77 11.55a26.19 26.19 0 0 0 .38-7.07c-.15-1.79-.43-2.85-.81-6-.23-1.99-.08-4.48-.16-5.48-1.43.59-2.78 2.45-3.6 3.74a11.18 11.18 0 0 0 -1.87-3.74l-.19-.28c-.09-.13-.18-.27-.28-.4-.53-.87-1.23-1.79-2.11-2.92s-2-2.48-3.3-4.09a17.3 17.3 0 0 1 2.19-.42 18.62 18.62 0 0 1 2.25-.14h1a16.53 16.53 0 0 1 1.79.25l.77.14a17.59 17.59 0 0 1 2.29.63l.76.28a17 17 0 0 1 1.88.89 26.43 26.43 0 0 1 1.6 2.49c.39.7.76 1.43 1.1 2.19a18.25 18.25 0 0 1 2.08 8.38z" fill="url(#d)"/><path d="m24.41 1.74c-.79 1.26-1.55 2.47-2.26 3.66-.57 1-1.12 1.88-1.64 2.72l-.49.8-.76 1.17c-.32.47-1.37 1.79-1.37 1.79h-.05a8.14 8.14 0 0 0 -2.86.66 7.69 7.69 0 0 0 -3.33-4l-.11-.05.3 4.95s-.28 1.86-.58 3.73c-.28 1.71-.55 3.37-.71 4.7a41.3 41.3 0 0 0 -.25 6.1c0 .5-.06.75-.25.81s-.36 0-.6-.22a10.33 10.33 0 0 1 -2.23-3.2 20.57 20.57 0 0 1 -1.82-5.63 18.67 18.67 0 0 1 1.11-9.91 18.51 18.51 0 0 1 2.69-4.42l1-1.35c.53-.69 1.07-1.35 1.61-2l.6-.23c.54-.2 1.1-.37 1.67-.52a17.3 17.3 0 0 1 2.23-.41 18.62 18.62 0 0 1 2.25-.14 17.41 17.41 0 0 1 3.56.36 17.59 17.59 0 0 1 2.29.63z" fill="#1b65af"/><path d="m23.14 30.37c-.56.92-2.88.52-3.45 1.31s1.2 1.56 1.2 1.56a8.23 8.23 0 0 1 -6.57 2 20 20 0 0 1 -.53-4.75 5.31 5.31 0 0 0 1.46.41.92.92 0 0 0 1-1.24c-.24-.76-1.1-1.14-1.41-1.54s-.38-.83.31-1.68 2.62.18 2.67.11a4.25 4.25 0 0 1 .76-1c.41-.36 1.92.73 2.62 1s-.24 1.42-.24 1.42c1.04.51 2.74 1.48 2.18 2.4z" fill="#87c0d3"/><g fill="#0e0e0e"><path d="m19.86 21.33a1.17 1.17 0 0 1 -.84.59c-.32.08-.38.06-.4.59h-.19c0-.42 0-.41-.31-.58a2.68 2.68 0 0 1 -.62-.49.44.44 0 0 1 .31-.67 3.25 3.25 0 0 1 1.9.13c.21.1.29.21.15.43z"/><path d="m22.64 17.76a5.57 5.57 0 0 1 -.45.83c0 .06-.18.09-.27.1s-.09-.1-.13-.15c-.23-.33-.06-.66 0-1l.34-.81a.25.25 0 0 1 .34-.14.45.45 0 0 1 .24.19 1 1 0 0 1 -.07.98z"/><path d="m15.27 18.29a.41.41 0 0 1 -.15.29s-.19 0-.26-.09a1.16 1.16 0 0 1 -.43-.77c0-.14-.07-.29-.08-.43a1.27 1.27 0 0 1 0-.39c0-.1.14-.25.18-.24s.29 0 .36.19.19.41.28.61.09.54.1.83z"/><path d="m19.4 22.63c-.41.05-.82.13-1.23.15a2 2 0 0 1 -.62-.13c-.05 0-.08-.09-.11-.14s.11-.09.17-.09l.82.09h.19.26l.43-.17c.13-.06.19 0 .23.11s-.02.16-.14.18z"/></g><path d="m22.29 17.06a.23.23 0 0 1 .19.22.24.24 0 0 1 -.21.22.2.2 0 0 1 -.19-.19.26.26 0 0 1 .21-.25z" fill="#fff"/><path d="m14.9 17.29a.23.23 0 0 1 -.23.21.2.2 0 0 1 -.18-.21c0-.12.12-.24.22-.23a.23.23 0 0 1 .19.23z" fill="#fff"/><path d="m25.17 2c-1.78 2.64-4.4 6-5.17 7l-.21-.31-.18-7.91a16.53 16.53 0 0 1 1.74.22l.77.14a17.59 17.59 0 0 1 2.29.63z" fill="#0e0e0e" opacity=".09"/><path d="m25.17 2c-1.78 2.64-4.4 6-5.17 7l-.19-.28-.2-7.94a16.53 16.53 0 0 1 1.74.22l.77.14a17.59 17.59 0 0 1 2.29.63z" opacity=".22"/><path d="m24.41 1.74c-.79 1.26-1.55 2.47-2.26 3.66-.57 1-1.12 1.88-1.64 2.72l-.49.8-.76 1.17c-.32.47-1.37 1.79-1.37 1.79h-.05a8.14 8.14 0 0 0 -2.86.66 5.79 5.79 0 0 0 -3.33-4l-.11-.05.3 4.95s-.28 1.86-.58 3.73c-.28 1.71-.55 3.37-.71 4.7a41.3 41.3 0 0 0 -.25 6.1c0 .5-.06.75-.25.81s-.36 0-.6-.22a10.33 10.33 0 0 1 -2.23-3.2 20.57 20.57 0 0 1 -1.82-5.63 18.67 18.67 0 0 1 1.11-9.91 18.51 18.51 0 0 1 2.69-4.42l1-1.35c.53-.69 1.07-1.35 1.61-2l.6-.23c.54-.2 1.1-.37 1.67-.52a17.3 17.3 0 0 1 2.23-.41 18.62 18.62 0 0 1 2.25-.14h1a16.53 16.53 0 0 1 1.79.25l.77.14a17.59 17.59 0 0 1 2.29.6z" fill="url(#e)"/><path d="m10.29 27.62v1a.22.22 0 0 1 -.3.21 2 2 0 0 1 -.55-.31l-.06-.06c-.26-.39.08-.84.22-1a.09.09 0 0 1 .11 0l.48.1a.12.12 0 0 1 .1.06z" fill="#1b65af"/></svg>