<svg viewBox="0 0 37.12 46.98" xmlns="http://www.w3.org/2000/svg" xmlns:xlink="http://www.w3.org/1999/xlink"><linearGradient id="a" gradientUnits="userSpaceOnUse" x1=".37" x2="36.75" y1="18.56" y2="18.56"><stop offset="0" stop-color="#fff"/><stop offset="1" stop-color="#f5f5f5"/></linearGradient><clipPath id="b" transform="translate(0 9.86)"><path d="m36.37 18.56a17.81 17.81 0 1 1 -23.91-16.74 17.89 17.89 0 0 1 6.1-1.07 17.83 17.83 0 0 1 8.93 2.4 17.8 17.8 0 0 1 8.88 15.41z"/></clipPath><linearGradient id="c" x1=".75" x2="36.37" xlink:href="#a" y1="18.56" y2="18.56"/><linearGradient id="d" x1="20.33" x2="19.55" xlink:href="#a" y1="6.38" y2="12.92"/><linearGradient id="e" gradientUnits="userSpaceOnUse" x1="26.3" x2="17.57" y1="22" y2="-6.14"><stop offset="0" stop-color="#f8d459"/><stop offset="1" stop-color="#e8b21c"/></linearGradient><linearGradient id="f" gradientUnits="userSpaceOnUse" x1="5.16" x2="30.41" y1="9.58" y2="9.58"><stop offset="0" stop-color="#1c5287"/><stop offset="1" stop-color="#1b65af"/></linearGradient><path d="m18.56 36.75a18.19 18.19 0 0 1 -6.23-35.28 18.41 18.41 0 0 1 3.94-.95 17.5 17.5 0 0 1 2.29-.15 18.32 18.32 0 0 1 3.63.37 18 18 0 0 1 5.49 2.08 18.19 18.19 0 0 1 -9.12 33.93z" fill="url(#a)" transform="translate(0 9.86)"/><path d="m18.56.75a17.83 17.83 0 0 1 8.93 2.4 17.8 17.8 0 1 1 -15-1.33 17.89 17.89 0 0 1 6.07-1.07m0-.75a18.27 18.27 0 0 0 -2.34.15 18.49 18.49 0 1 0 6.05.22 18.38 18.38 0 0 0 -3.71-.37z" fill="#fff" transform="translate(0 9.86)"/><g clip-path="url(#b)"><path d="m36.37 18.56a17.81 17.81 0 1 1 -23.91-16.74 17.89 17.89 0 0 1 6.1-1.07 17.83 17.83 0 0 1 8.93 2.4 17.8 17.8 0 0 1 8.88 15.41z" fill="url(#c)" transform="translate(0 9.86)"/><path d="m14.43 17.72c0-.14-.07-.29-.08-.43a1.27 1.27 0 0 1 0-.39c0-.1.14-.25.18-.24s.29 0 .36.19.19.41.28.61.08.55.09.83a.41.41 0 0 1 -.15.29s-.19 0-.26-.09a1.16 1.16 0 0 1 -.42-.77z" transform="translate(0 9.86)"/><path d="m18.62 22.51h.26l.43-.17c.13-.06.19 0 .23.11s0 .2-.14.22c-.41.05-.82.13-1.23.15a2 2 0 0 1 -.62-.13c-.05 0-.08-.09-.11-.14s.11-.09.17-.09l.82.09c0-.42 0-.41-.31-.58a2.68 2.68 0 0 1 -.62-.49.44.44 0 0 1 .31-.67 3.25 3.25 0 0 1 1.9.13c.21.1.25.21.15.43a1.17 1.17 0 0 1 -.84.59c-.32.04-.38.04-.4.55z" transform="translate(0 9.86)"/><path d="m21.79 18.54c-.23-.33-.06-.65 0-1l.34-.81a.25.25 0 0 1 .34-.14.45.45 0 0 1 .24.19 1 1 0 0 1 -.06 1 5.57 5.57 0 0 1 -.45.83c0 .06-.18.09-.27.1s-.1-.12-.14-.17z" transform="translate(0 9.86)"/><path d="m23.14 30.37c-.56.92-2.88.52-3.45 1.31s1.2 1.56 1.2 1.56a8.23 8.23 0 0 1 -6.57 2 20 20 0 0 1 -.53-4.75 5.31 5.31 0 0 0 1.46.41.92.92 0 0 0 1-1.24c-.24-.76-1.1-1.14-1.41-1.54s-.38-.83.31-1.68 2.62.18 2.67.11a4.25 4.25 0 0 1 .76-1c.41-.36 1.92.73 2.62 1s-.24 1.42-.24 1.42c1.04.51 2.74 1.48 2.18 2.4z" transform="translate(0 9.86)"/><path d="m22.28 9.38-.41 3.35a11.6 11.6 0 0 0 -4-.85c-1.34 0 .74-2.55 1.7-3.65l.26-.29.18-.2.53.38.11.07z" fill="url(#d)" transform="translate(0 9.86)"/><path d="m31.83 16c-.2 6.64-5.94 12.49-5.76 11.55a26.67 26.67 0 0 0 .38-7.08c-.15-1.78-.44-2.85-.82-6-.22-1.92-.08-4.37-.15-5.43-1.44.6-2.79 2.46-3.61 3.75a11.1 11.1 0 0 0 -1.87-3.85l-.19-.28-.28-.4c-.53-.81-1.23-1.73-2.11-2.86-1-1.28-2.23-2.81-3.78-4.68l-.3-.38c-.78-1-1.42-2.2-2.25-3.2-.81-1.23-1.79-2.53-1.63-3.39a21 21 0 0 0 1-2.37 24.14 24.14 0 0 1 5.11-1.24c.62.78 1.31 1.58 2.05 2.4s1.24 1.31 1.7 1.75 1 .94 1.95 2 1.8 1.82 2.64 2.71c.44.49.87 1 1.29 1.49l.54.65a30.74 30.74 0 0 1 2.91 4.26c.39.7.76 1.42 1.1 2.19a18.1 18.1 0 0 1 2.08 8.41z" fill="url(#e)" transform="translate(0 9.86)"/><path d="m30.41-6.87a17.33 17.33 0 0 1 -1.95 3.08 42.75 42.75 0 0 1 -2.83 3.67l-.43.64c-1.07 1.61-2.09 3.3-3 4.88l-1.68 2.72-.5.79c-.26.43-.51.82-.76 1.18s-1.37 1.79-1.37 1.79a8.13 8.13 0 0 0 -2.87.66 7.69 7.69 0 0 0 -3.33-4l-.12-.05.3 4.95s-.27 1.86-.58 3.73c-.27 1.71-.54 3.37-.7 4.7a39.87 39.87 0 0 0 -.25 6.1c0 .49-.06.75-.26.81s-.35 0-.59-.22c-1.22-.95-3.37-4.65-4-8.84a18.48 18.48 0 0 1 1.03-9.91 18.34 18.34 0 0 1 2.69-4.41l1-1.35c1-1.32 2.06-2.57 3.09-3.71 2.33-2.6 4.55-4.71 6-6l.7-.67a38.52 38.52 0 0 0 3.26-3.24 23.63 23.63 0 0 1 7.15 2.7z" fill="#1b65af" transform="translate(0 9.86)"/><path d="m23.14 30.37c-.56.92-2.88.52-3.45 1.31s1.2 1.56 1.2 1.56a8.23 8.23 0 0 1 -6.57 2 20 20 0 0 1 -.53-4.75 5.31 5.31 0 0 0 1.46.41.92.92 0 0 0 1-1.24c-.24-.76-1.1-1.14-1.41-1.54s-.38-.83.31-1.68 2.62.18 2.67.11a4.25 4.25 0 0 1 .76-1c.41-.36 1.92.73 2.62 1s-.24 1.42-.24 1.42c1.04.51 2.74 1.48 2.18 2.4z" fill="#87c0d3" transform="translate(0 9.86)"/><g fill="#0e0e0e"><path d="m19.86 21.33a1.17 1.17 0 0 1 -.84.59c-.32.08-.38.06-.4.59h-.19c0-.42 0-.41-.31-.58a2.68 2.68 0 0 1 -.62-.49.44.44 0 0 1 .31-.67 3.25 3.25 0 0 1 1.9.13c.21.1.29.21.15.43z" transform="translate(0 9.86)"/><path d="m22.64 17.76a5.57 5.57 0 0 1 -.45.83c0 .06-.18.09-.27.1s-.09-.1-.13-.15c-.23-.33-.06-.65 0-1l.34-.81a.25.25 0 0 1 .34-.14.45.45 0 0 1 .24.19 1 1 0 0 1 -.07.98z" transform="translate(0 9.86)"/><path d="m15.27 18.29a.41.41 0 0 1 -.15.29s-.19 0-.26-.09a1.16 1.16 0 0 1 -.43-.77c0-.14-.07-.29-.08-.43a1.27 1.27 0 0 1 0-.39c0-.1.14-.25.18-.24s.29 0 .36.19.19.41.28.61.09.54.1.83z" transform="translate(0 9.86)"/><path d="m19.4 22.63c-.41.05-.82.13-1.23.15a2 2 0 0 1 -.62-.13c-.05 0-.08-.09-.11-.14s.11-.09.17-.09l.82.09h.19.26l.43-.17c.13-.06.19 0 .23.11s-.02.16-.14.18z" transform="translate(0 9.86)"/></g><path d="m22.29 17.06a.23.23 0 0 1 .19.22.24.24 0 0 1 -.21.22.2.2 0 0 1 -.19-.19.26.26 0 0 1 .21-.25z" fill="#fff" transform="translate(0 9.86)"/><path d="m14.9 17.29a.23.23 0 0 1 -.23.21.2.2 0 0 1 -.18-.21c0-.12.12-.24.22-.23a.23.23 0 0 1 .19.23z" fill="#fff" transform="translate(0 9.86)"/><path d="m25.74 1.17c-1.74 2.67-4.89 6.74-5.74 7.77-.06-.1-.13-.2-.21-.31l-.2-8.55a31.93 31.93 0 0 1 4.32-1c.63.66 1.24 1.36 1.83 2.09z" fill="#0e0e0e" opacity=".09" transform="translate(0 9.86)"/><path d="m25.74 1.17c-1.74 2.67-4.89 6.74-5.74 7.77-.06-.1-.13-.2-.21-.31l-.2-8.55a31.93 31.93 0 0 1 4.32-1c.63.66 1.24 1.36 1.83 2.09z" opacity=".22" transform="translate(0 9.86)"/><path d="m30.41-6.87a17.33 17.33 0 0 1 -1.95 3.08 42.75 42.75 0 0 1 -2.83 3.67l-.43.64c-1.07 1.61-2.09 3.3-3 4.88l-1.68 2.72-.5.79c-.26.43-.51.82-.76 1.18s-1.37 1.79-1.37 1.79a8.13 8.13 0 0 0 -2.87.66 5.82 5.82 0 0 0 -3.33-4l-.12-.05.3 4.95s-.27 1.86-.58 3.73c-.27 1.71-.54 3.37-.7 4.7a39.87 39.87 0 0 0 -.25 6.1c0 .49-.06.75-.26.81s-.35 0-.59-.22c-1.22-.95-3.37-4.65-4-8.84a18.48 18.48 0 0 1 1.03-9.91 18.34 18.34 0 0 1 2.69-4.41l1-1.35c1-1.32 2.06-2.57 3.09-3.71 2.33-2.6 4.55-4.71 6-6l.7-.67a38.52 38.52 0 0 0 3.26-3.24 23.63 23.63 0 0 1 7.15 2.7z" fill="url(#f)" transform="translate(0 9.86)"/><path d="m10.29 27.62v1a.22.22 0 0 1 -.3.21 2 2 0 0 1 -.55-.31l-.06-.06c-.26-.39.08-.84.22-1a.09.09 0 0 1 .11 0l.48.1a.12.12 0 0 1 .1.06z" fill="#1b65af" transform="translate(0 9.86)"/></g></svg>