<svg viewBox="0 0 98 183.62" xmlns="http://www.w3.org/2000/svg" xmlns:xlink="http://www.w3.org/1999/xlink"><linearGradient id="a" gradientUnits="userSpaceOnUse" x2="80.74" y1="84.4" y2="84.4"><stop offset="0" stop-color="#1c5287"/><stop offset="1" stop-color="#1b65af"/></linearGradient><linearGradient id="b" gradientUnits="userSpaceOnUse" x1="40.76" x2="98" y1="81.92" y2="81.92"><stop offset="0" stop-color="#f8d459"/><stop offset="1" stop-color="#e8b21c"/></linearGradient><linearGradient id="c" x1="17.75" x2="17.01" xlink:href="#a" y1="180.13" y2="175.68"/><linearGradient id="d" gradientTransform="matrix(-1 0 0 1 -3950.23 0)" x1="-3998.37" x2="-3999.02" xlink:href="#a" y1="181.22" y2="177.26"/><linearGradient id="e" gradientUnits="userSpaceOnUse" x1="33.75" x2="33.75" y1="99.22" y2="176.55"><stop offset="0" stop-color="#fafafa"/><stop offset="1" stop-color="#f5f5f5"/></linearGradient><linearGradient id="f" gradientUnits="userSpaceOnUse" x1="58.85" x2="58.84" y1="144.8" y2="144.78"><stop offset="0" stop-color="#f0f1f2"/><stop offset="1" stop-color="#b5b5b5"/></linearGradient><radialGradient id="g" cx="33.75" cy="124.26" fy="113.937037" gradientUnits="userSpaceOnUse" r="54.63"><stop offset="0" stop-color="#fafafa"/><stop offset="1" stop-color="#e5e5e5"/></radialGradient><linearGradient id="h" x1="17.24" x2="17.24" xlink:href="#e" y1="81.24" y2="86.78"/><linearGradient id="i" x1="50.24" x2="50.24" xlink:href="#e" y1="81.75" y2="88.24"/><linearGradient id="j" gradientUnits="userSpaceOnUse" x1="17.22" x2="16.23" y1="140.75" y2="118.75"><stop offset=".01" stop-color="#f0f0f0"/><stop offset="1" stop-color="#dcdcdc"/></linearGradient><linearGradient id="k" x1="49.47" x2="49.07" xlink:href="#j" y1="150.16" y2="132.53"/><path d="m13.3 164.17c-9.3-15.26-16.7-31.26-11.66-51.56 0 4.59 1.08 10.06 2.15 12-1.2-8.86 3.55-22.75 7.34-30.73l7.28-15.33-.48 8.65c5.7-14.2 17.73-13.39 25.59-28.47 1.22 2.34.77 2.38.57 3.81 9.17-10.78 11.06-12.62 15.37-19.77 6-10 6.43-27.05 2.27-38.13 2.56 2.31 3.1 3.81 5.43 5.45 2 1.42 3.77 1.15 6.35 1 6.18 7.86 8.23 15.79 6.78 25.68a80.44 80.44 0 0 1 -7.73 25.33 84.76 84.76 0 0 1 -9.06 13.74c-4 4.47-9.08 8.69-12.17 13.78" fill="url(#a)"/><path d="m42.14 33.79a55.73 55.73 0 0 0 10.45 21.12l7.85 13.78c5.55 12.69 8.61 26.83 6.25 40.47a20.09 20.09 0 0 0 -3.19-9.23 44.35 44.35 0 0 1 -3.7 22.26l-19 26.1 14.47 15.55c17.14-.74 33.22-12.92 38.58-29.22a38.93 38.93 0 0 1 -10 8.2 50 50 0 0 0 13.48-27.06 63.69 63.69 0 0 0 -2.71-30.3 20.85 20.85 0 0 1 -.66 11.63c.88-15.34-10-29.77-11-32.59a22.25 22.25 0 0 1 .76 5.73 56.61 56.61 0 0 0 -19.09-32.39 20.77 20.77 0 0 1 .72 2.28 108.6 108.6 0 0 0 -6.74-12.18 23.61 23.61 0 0 1 -3.61-8.43 68.8 68.8 0 0 1 -1-19.51 20.7 20.7 0 0 1 -5.95 5.17 29 29 0 0 1 -5.48 1.9c-1.03 9.41-2.28 18.58-.43 26.72z" fill="url(#b)"/><path d="m16.79 176-7.58 3.11a.21.21 0 0 0 .15.4l1.23-.16a.26.26 0 0 1 .19.48l-1.38.76a.25.25 0 0 0 .18.47l1.82-.37a.26.26 0 0 1 .18.49l-2.19 1.28a.25.25 0 0 0 .15.48c4-.9 8.8-1.55 13.12-6 8.88-9.26-5.87-.94-5.87-.94z" fill="url(#c)"/><path d="m50.75 177.82 4.46 2a.21.21 0 0 1 -.15.4l-1-.15a.26.26 0 0 0 -.18.48l1.07.74a.25.25 0 0 1 -.17.47l-1.63-.32a.25.25 0 0 0 -.17.48l2 1.24a.25.25 0 0 1 -.16.48c-4-.9-6-1.23-9.94-4.89-9.38-8.75 5.87-.93 5.87-.93z" fill="url(#d)"/><g fill="#00db6c"><path d="m21.11 100.42c-.06-.46-.21-.9-.25-1.36a3.67 3.67 0 0 1 .05-1.24c.07-.29.42-.76.54-.73.4.1.93 0 1.15.58s.58 1.3.87 1.93c.11.88.26 1.73.29 2.59a1.36 1.36 0 0 1 -.47.94c-.12.1-.6-.12-.83-.3a3.62 3.62 0 0 1 -1.35-2.41z"/><path d="m33.67 115.45c.13-1.31.06-1.28-1-1.82a7.85 7.85 0 0 1 -2-1.54 1.37 1.37 0 0 1 1-2.1c2-.27 4-.49 6 .41.67.31.79.68.48 1.34a3.57 3.57 0 0 1 -2.63 1.86c-1 .25-1.22.19-1.28 1.87"/><path d="m44.24 103c-.71-1-.18-2.06 0-3.12l1.08-2.54a.8.8 0 0 1 1.05-.45 1.44 1.44 0 0 1 .77.6c.63 1 .18 2.1-.21 3.07a15.49 15.49 0 0 1 -1.41 2.59c-.13.21-.55.29-.85.31-.15 0-.31-.3-.43-.46z"/></g><path d="m19.1 140.51a17.27 17.27 0 0 0 4.58 1.28 2.87 2.87 0 0 0 3.1-3.88c-.76-2.39-3.46-3.59-4.42-4.84s-1.2-2.61 1-5.28 8.22.55 8.39.32c.89-1.2 1.06-2.12 2.37-3.25s6 2.3 8.24 3.2-.74 4.48-.74 4.48c3.36 1.67 8.66 4.72 6.9 7.62s-9.06 1.63-10.83 4.1 3.75 4.92 3.75 4.92a25.8 25.8 0 0 1 -20.62 6.26c-1.68-4.44-1.72-14.93-1.72-14.93z" fill="#87c0d3"/><path d="m58.87 109c-.47-5.62-1.36-9-2.55-19-.72-6-.25-13.73-.49-17.05-4.5 1.87-8.76 7.73-11.32 11.77 0 0-6.8-2.83-12.51-2.66h-.15a24.87 24.87 0 0 0 -9 2.07s0 0 0 0a.34.34 0 0 1 0-.08c-.37-1-3.54-9.3-10.48-12.68l-.37-.19.93 15.57s-.87 5.83-1.82 11.72c-.87 5.37-1.71 10.58-2.22 14.75a129.93 129.93 0 0 0 -.78 19.17v2.18a141.41 141.41 0 0 0 3 26.09c2.08 9.58 5 16.68 8 16.68 4.81 0 6.82-1.9 8.49-3.7 1.51-1.63 2.73-3.17 5.49-3.17 3.36 0 5.4.9 6.8 2 2.48 2 3 4.83 5.29 4.83 6.89 0 11-11.63 11.8-16.68 2-8.61 2.34-22.1 2.47-29.46.08-5.53-.13-16.93-.58-22.16zm-14.66-9.1 1.08-2.54a.8.8 0 0 1 1.05-.45 1.44 1.44 0 0 1 .77.6c.63 1 .18 2.1-.21 3.08a15.8 15.8 0 0 1 -1.41 2.58c-.13.21-.55.29-.85.31-.12 0-.28-.29-.4-.46-.71-1.02-.18-2.09-.03-3.15zm-12.46 10.1c2-.27 4-.49 6 .41a1.11 1.11 0 0 1 .61.54 1.1 1.1 0 0 1 -.13.81 3.59 3.59 0 0 1 -2.63 1.85c-1 .25-1.22.19-1.28 1.87h-.6c.13-1.31.06-1.28-1-1.82a7.62 7.62 0 0 1 -2-1.54 1.09 1.09 0 0 1 -.19-1 1.46 1.46 0 0 1 1.22-1.12zm-10.84-12.18c.07-.29.42-.76.54-.73.4.1.93 0 1.15.58s.58 1.3.87 1.93c.11.88.26 1.73.29 2.59a1.36 1.36 0 0 1 -.47.94c-.12.1-.6-.12-.83-.3a3.62 3.62 0 0 1 -1.35-2.41c-.06-.45-.21-.9-.25-1.36a3.67 3.67 0 0 1 .05-1.24zm-.13 57.62c-1.64-4.42-1.68-14.93-1.68-14.93a17.27 17.27 0 0 0 4.58 1.28 2.87 2.87 0 0 0 3.1-3.88c-.76-2.39-3.46-3.59-4.42-4.84s-1.2-2.61 1-5.28 8.22.55 8.39.32c.89-1.2 1.06-2.12 2.37-3.25s6 2.3 8.24 3.2-.74 4.48-.74 4.48c3.36 1.68 8.66 4.73 6.9 7.62s-9.06 1.63-10.83 4.11 3.76 4.91 3.76 4.91a25.82 25.82 0 0 1 -20.67 6.26z" fill="url(#e)"/><path d="m21.11 100.42c-.06-.46-.21-.9-.25-1.36a3.67 3.67 0 0 1 .05-1.24c.07-.29.42-.76.54-.73.4.1.93 0 1.15.58s.58 1.3.87 1.93c.11.88.26 1.73.29 2.59a1.36 1.36 0 0 1 -.47.94c-.12.1-.6-.12-.83-.3a3.62 3.62 0 0 1 -1.35-2.41z"/><path d="m44.24 103c-.71-1-.18-2.06 0-3.12l1.08-2.54a.8.8 0 0 1 1.05-.45 1.44 1.44 0 0 1 .77.6c.63 1 .18 2.1-.21 3.07a15.49 15.49 0 0 1 -1.41 2.59c-.13.21-.55.29-.85.31-.15 0-.31-.3-.43-.46z"/><g fill="#0e0e0e"><path d="m38.18 111.74a3.57 3.57 0 0 1 -2.63 1.86c-1 .25-1.22.19-1.28 1.87h-.6c.13-1.31.06-1.28-1-1.82a7.85 7.85 0 0 1 -2-1.54 1.37 1.37 0 0 1 1-2.1c2-.27 4-.49 6 .41.7.29.82.66.51 1.32z"/><path d="m46.9 100.55a15.49 15.49 0 0 1 -1.41 2.59c-.13.21-.55.29-.85.31-.12 0-.28-.29-.4-.46-.71-1-.18-2.06 0-3.12l1.08-2.54a.8.8 0 0 1 1.05-.45 1.44 1.44 0 0 1 .77.6c.6 1.05.15 2.1-.24 3.07z"/><path d="m23.76 102.19a1.36 1.36 0 0 1 -.47.94c-.12.1-.6-.12-.83-.3a3.62 3.62 0 0 1 -1.35-2.41c-.06-.46-.21-.9-.25-1.36a3.67 3.67 0 0 1 .05-1.24c.07-.29.42-.76.54-.73.4.1.93 0 1.15.58s.58 1.3.87 1.93c.11.88.26 1.73.29 2.59z"/><path d="m36.74 115.83c-1.28.18-2.57.41-3.86.48a6.48 6.48 0 0 1 -2-.41c-.15 0-.25-.29-.37-.44.18-.1.37-.28.55-.27.85.06 1.71.17 2.56.26h.6a5.32 5.32 0 0 0 .83-.14c.46-.15 1.32-.09 1.76-.29s2.2-1.18 2.41-.62c.32.77-2.1 1.37-2.48 1.43z"/></g><path d="m45.8 98.33a.75.75 0 0 1 .62.7.73.73 0 0 1 -.67.68.58.58 0 0 1 -.58-.58.82.82 0 0 1 .63-.8z" fill="#fff"/><path d="m22.59 99.07a.69.69 0 0 1 -.73.64.61.61 0 0 1 -.56-.65.81.81 0 0 1 .69-.73.72.72 0 0 1 .6.74z" fill="#fff"/><path d="m59 144.7a1 1 0 0 1 -.24.17z" fill="url(#f)"/><path d="m58.87 109c-.47-5.62-1.36-9-2.55-19-.72-6-.25-13.73-.49-17.05-4.5 1.87-8.76 7.73-11.32 11.77 0 0-6.8-2.83-12.51-2.66h-.15a24.87 24.87 0 0 0 -9 2.07s0 0 0 0a.34.34 0 0 1 0-.08c-.37-1-3.54-9.3-10.48-12.68l-.37-.19.93 15.57s-.87 5.83-1.82 11.72c-.87 5.37-1.71 10.58-2.22 14.75a129.93 129.93 0 0 0 -.78 19.17v2.18a141.41 141.41 0 0 0 3 26.09c2.08 9.58 5 16.68 8 16.68 4.81 0 6.82-1.9 8.49-3.7a9.56 9.56 0 0 1 -3.84-3.64c-3.88-6.58-8-20.66-7.87-28.19s-4.81-20.65-1.44-38.65 9.31-12.91 9.31-12.91 7.64 7.34 6.8 20.81a1.46 1.46 0 0 1 1.19-1.06c2-.27 4-.49 6 .41a1.11 1.11 0 0 1 .61.54c-.08-2-.34-15.42 5.95-20.14 6.82-5.13 11 .39 11.85 12.65s-3.48 22-3.61 25.91-1.55 32.23-5.13 36.68a35.73 35.73 0 0 1 -7.54 6.46c2.48 2 3 4.83 5.29 4.83 6.89 0 11-11.63 11.8-16.68 2-8.61 2.34-22.1 2.47-29.46.09-5.57-.12-16.97-.57-22.2z" fill="url(#g)"/><path d="m19.35 85.68a13.67 13.67 0 0 1 -3.85 1.16 43 43 0 0 0 -.34-7.23c-.48-2.21 4.19 6.07 4.19 6.07z" fill="url(#h)"/><path d="m47.42 86.18a13.13 13.13 0 0 0 4.73 2.13s-.26-6.65.79-8.62-5.52 6.49-5.52 6.49z" fill="url(#i)"/><path d="m26.78 137.91a5.4 5.4 0 0 0 -1.48-2.25c-.9-.89-2-1.58-2.63-2.24l-.06-.07c-7.49-6.54-14-16.24-14.11-16.43a13 13 0 0 0 -1.87 5.88 18.25 18.25 0 0 0 1.45 6.57 21.8 21.8 0 0 0 11 11.14 21 21 0 0 0 2.8 1l.39.1h.2l.4.08c.27 0 .53.08.79.1a3.18 3.18 0 0 0 2.49-.85 2.88 2.88 0 0 0 .63-3.03z" fill="url(#j)"/><path d="m61.15 133.66c0 5-1.06 9-2.19 10.16l-.24.17a28.88 28.88 0 0 1 -17.31 5.19 12.2 12.2 0 0 1 -3.16-2.07c-.83-.84-1.32-1.84-.6-2.85.06-.07.11-.15.18-.22l.1-.1c1.37-1.29 4.58-1.35 7.16-1.93.8-.15 9.2-2 14.34-12.69.03-.01 1.72-.66 1.72 4.34z" fill="url(#k)"/></svg>