<svg viewBox="0 0 269.08 658.59" xmlns="http://www.w3.org/2000/svg" xmlns:xlink="http://www.w3.org/1999/xlink"><linearGradient id="a" gradientUnits="userSpaceOnUse" x1="62.96" x2="167.96" y1="272.04" y2="186.32"><stop offset="0" stop-color="#f8d459"/><stop offset="1" stop-color="#e8b21c"/></linearGradient><linearGradient id="b" gradientUnits="userSpaceOnUse" x1="182.39" x2="94.37" y1="578.5" y2="220.07"><stop offset="0" stop-color="#1c5287"/><stop offset="1" stop-color="#1b65af"/></linearGradient><linearGradient id="c" x1="-22.95" x2="82.06" xlink:href="#a" y1="166.81" y2="81.09"/><path d="m269.08 323.51v87.38l-36.61-21.7-9.13-5.42-16.29-9.66-12.61-7.48c-3.26-8-10.73-17-20.5-26.26-3.37-3.2-7-6.42-10.86-9.65-25.1-21.09-58.56-42.18-78.51-54.65l-4.57-2.84c-29.56-18.51-58.89-41.17-71.95-73.51-13.35-33.14-7.39-70.52-1.42-105.72s27.48-61.16 13.37-94c0 0 31.15 22.91 53.61 53.29 7.88 10.71 5.59 24.59 2.27 38.85h-.07l-1.81-1.46s0 0 0 0c-.5-.38-1-.76-1.48-1.16l-1.17-1-1.09-.91q-.93-.78-1.83-1.59c-.54-.48-1.07-1-1.6-1.46s-.81-.76-1.2-1.15a2.13 2.13 0 0 1 -.26-.26c-.26-.25-.51-.5-.77-.77a2 2 0 0 1 -.21-.2c-.38-.38-.76-.77-1.12-1.16q-.87-.92-1.71-1.86c.55 1.51 1.1 3 1.63 4.55.66 1.91 1.31 3.82 1.93 5.75.34 1 .66 2 1 3 1.45 4.58 2.79 9.22 4 13.9l.36 1.36c.37 1.39.73 2.79 1.08 4.19a66.46 66.46 0 0 0 -1 10c-.17 10.64 3.44 21.53 9.15 32.09 12.45 22.86 35.2 44.32 53.33 58.2 15.78 12.08 25 18.52 35.78 25.45 7.38 4.72 15.52 9.68 27 16.79a317.69 317.69 0 0 1 52.51 40.56c8.47 8.12 16.88 17.77 20.75 28.51z" fill="url(#a)"/><path d="m61.48 79.19c17.91 20.19 45.29 29.24 65.58 47 29.73 26.08 40.7 67.91 41.69 107.45s-6.37 78.88-6.23 118.43 9.13 81.51 37.09 109.48l48.87 156c-52.68 12.45-108.58-19.14-137.79-64.7s-36.12-101.99-34.69-156.08 10.34-107.89 9.64-162c-.64-51.49-6.39-107.25-24.16-155.58z" fill="url(#b)"/><path d="m37.54 428.42c3.25.21 7.36 2.32 11.6 5.09 6 3.92 12.27 9.12 16.74 12l.42.27h.06c48 33.92 98.53 56.55 99.54 57 0 0 1.78 15.43-4.73 21s-21.1 2.22-21.1 2.22c-36.89-9.58-74-47.36-74-47.36-.3-.29-7.24-7-14.64-15.12-.65-.72-1.32-1.46-2-2.2l-1-1.12c-.66-.75-1.32-1.51-2-2.26-1.29-1.52-2.56-3.05-3.76-4.56-4.49-5.65-7.83-11.6-9.2-16.26-1.47-5.32-.56-8.99 4.07-8.7z" fill="#e8e8e8"/><path d="m252.18 343.43-1.18-2.31q-1-2-2-4.11l-.72-1.57-.42-.93c-.34-.76-.68-1.53-1-2.31-.59-1.36-1.17-2.73-1.73-4.11s-1.13-2.78-1.68-4.17c-1.17-3-2.3-5.95-3.37-8.89-.28-.73-.54-1.46-.8-2.18s-.53-1.45-.79-2.17c-.52-1.43-1-2.84-1.51-4.21-3-8.39-5.51-15.72-7.51-20.25-12.47 11.34-19.47 35.37-23.06 51.54a142.29 142.29 0 0 0 -32.47 2.61 73 73 0 0 0 -11.33 3.33l-.47.18a86 86 0 0 0 -26.85 17.24l-.07-.08-.18-.22c-2.43-2.94-22.39-26.14-48.92-29l-1.36-.13 8.71 20.31 12.53 29.23s4 20 7.76 40.24c3.45 18.52 6.79 36.43 10 50.61.86 3.79 1.74 7.4 2.61 10.82a382.09 382.09 0 0 0 13.82 43.1c1.42 3.74 2.6 6.82 3.46 9.34l2.54 7.09q1 2.58 2 5.14c10.33 25.23 24.72 45.75 42.38 67.31.25.32.52.64.78 1 18.53 22.53 60.21 40.43 77.71 42.71v-283c-4.41-8.17-9.68-17.83-16.88-32.16z" fill="#f4f4f4"/><path d="m207.05 374.11c-3 22.8 7.73 51 9.81 56.16a.91.91 0 0 0 -.17-.17l-.11-.1a1.35 1.35 0 0 0 -.27-.2l-.3-.16-.26-.1a3.29 3.29 0 0 0 -.5-.14l-.31-.06h-.23l-.41-.05c-.36 0-.71-.06-1.06-.07-.6 0-1.2 0-1.78 0h-.74c-.39 0-.78.06-1.17.11l-.55.07-.48.07-.72.12-.71.15-.71.16-1.14.3c-.56.17-1.12.34-1.67.53s-1.09.4-1.64.61c-.73.29-1.44.6-2.16.92l-1.08.49-2.11 1-2.1 1.09a5 5 0 0 0 -2.65 4.48v.35a102.63 102.63 0 0 0 -25-43.63c-11.29-11.59-21.46-16.14-21.46-16.14s-25.27-9.61-15.2 52.9a310.1 310.1 0 0 0 16 60.45 282.1 282.1 0 0 0 33.83 63.65c20.4 28.94 37.52 45.66 63.63 56.16 1.35.55 2.68 1.07 4 1.58 8.61 3.38 15.86 6 21.52 7.7v36.11c-17.07-2.84-56.91-22.23-77.71-42.57l-1-1c-16.17-16.22-31.69-41.51-42.12-67.23q-1.05-2.57-2-5.14l-2.54-7.09c-.86-2.52-2-5.6-3.46-9.34a382.09 382.09 0 0 1 -13.8-43.13c-.87-3.42-1.75-7-2.61-10.82-3.23-14.18-6.57-32.09-10-50.61-3.91-20.3-7.91-40.28-7.91-40.28l-12.52-29.24-8.72-20.36 1.36.13c26.53 2.9 46.49 26.1 48.92 29l.18.22.07.08a86 86 0 0 1 26.85-17.24l.47-.18a73 73 0 0 1 11.33-3.33 142.29 142.29 0 0 1 32.47-2.61c3.63-16.17 10.62-40.2 23.11-51.54 2 4.53 4.53 11.86 7.51 20.25.49 1.37 1 2.78 1.51 4.21 1.29 3.58 2.66 7.29 4.09 11 .28.74.57 1.49.87 2.23 1.1 2.79 2.23 5.56 3.41 8.28.33.78.67 1.55 1 2.31 1 2.27 2.05 4.48 3.11 6.61l1.15 2.31c7.2 14.33 12.47 24 16.9 32.13v16.88c-.94-2.44-1.95-4.88-3-7.34-17.26-38.84-37.13-52-53.33-27.33a38.88 38.88 0 0 0 -5.69 16.4z" fill="#efefef" opacity=".68"/><path d="m106 381.24-12.53-29.24s23.81 19.87 12.53 29.24z" fill="#f4f4f4"/><path d="m252.18 343.43c-16.81-3.43-16.18-23.12-15.18-36.98 3.93 11.07 8.66 24 14 34.67z" fill="#f4f4f4"/><path d="m75.88 92.14s-2.28 10.58-4.37 19.8-12.38-35.1-12.38-35.1l8.37 2z" fill="url(#c)"/><path d="m232.68 386.45a54.54 54.54 0 0 1 -1.55 10.05c-.19.84-1.47 1.59-2.41 2-.4.17-1.27-.6-1.85-1-3.51-2.57-3-6.48-3.74-10.13.18-3.16.35-6.33.55-9.49a2.76 2.76 0 0 1 2.88-2.71 5.15 5.15 0 0 1 3.22 1c3.22 2.71 3.03 6.64 2.9 10.28z" fill="#0e0e0e"/><path d="m226.52 380.5a2.38 2.38 0 0 1 1.42 4.54 2 2 0 0 1 -2.56-1.22c-.46-1.2.15-2.94 1.14-3.32z" fill="#fff"/><path d="m159.3 418.81a4.73 4.73 0 0 1 -.44 3.61c-.27.45-2.1.31-3.05 0a12.46 12.46 0 0 1 -7.2-6.25c-.72-1.41-1.74-2.69-2.41-4.13a12.83 12.83 0 0 1 -1.29-4.09c-.09-1 .48-3 .91-3 1.42-.15 3.05-1 4.4.54 1.63 1.84 3.42 3.54 5.12 5.28 1.37 2.69 2.87 5.28 3.96 8.04z" fill="#0e0e0e"/><path d="m151.83 410a2.39 2.39 0 0 1 -1.61 2.93 2.14 2.14 0 0 1 -2.6-1.46 2.82 2.82 0 0 1 1.39-3.18 2.45 2.45 0 0 1 2.82 1.71z" fill="#fff"/><g fill="#0e0e0e"><path d="m212.22 457.15-3.21-7.4-1.18-.96-.79 1.57 2.16 7.09z"/><path d="m217.39 433c-.4 4.27-3.17 6.92-6.41 9.12-3 2-3.72 2-2 7.59l-2 .61c-1.09-4.4-1.3-4.23-5.29-4.77a26.89 26.89 0 0 1 -8.15-2.75c-2.49-1.23-2.65-6.16.81-8 6.18-3.24 12.51-6.3 19.85-5.62 2.58.29 3.43 1.33 3.19 3.82z"/><path d="m221.76 445.5c-4.23 4.07-12.73 10.72-22.57 10.19a1.78 1.78 0 0 0 -1.58 2.83c3.54 4.84 10.76 12.83 18.37 10.3 7.76-2.59 8.82-15.24 8.82-22a1.8 1.8 0 0 0 -3.04-1.32z"/></g></svg>