<svg viewBox="0 0 9.36 18.47" xmlns="http://www.w3.org/2000/svg"><path d="m6.44 3.77c-.06-.5 0-1-.15-1.49a2 2 0 0 0 -.29-.76 1.12 1.12 0 0 0 -.52-.29c-.15-.07-.31-.18-.48-.23a1.61 1.61 0 0 0 -1.54.42 2.6 2.6 0 0 0 -.76 1.58 4.37 4.37 0 0 0 .22 1.56c.11.36.36 1.15.73 1.34.14.07.32 0 .48 0h.93a2.58 2.58 0 0 0 .88 0 1.25 1.25 0 0 0 .51-.8 3.36 3.36 0 0 0 .02-1.1z" fill="#51301e"/><path d="m7.63 18.27a1.46 1.46 0 0 1 0 .2h-5.84a14.67 14.67 0 0 1 -.29-2.17c0-.11 0-.22 0-.33v-.08a1.28 1.28 0 0 1 0-.19 5.84 5.84 0 0 1 .18-1.07c0-.1.05-.19.07-.28a.29.29 0 0 0 0-.09c0-.06 0-.13.05-.19a.85.85 0 0 0 0-.17l.24.07h.09l1.17.34 1.27.37h.07.11l1-.2.59-.12.91-.19h.17a6.91 6.91 0 0 1 .28 1.58 9.26 9.26 0 0 1 -.07 2.52z" fill="#42525e"/><path d="m7.1 15.68a2.41 2.41 0 0 1 -1.2.25 2 2 0 0 1 -1.09-.47c-.46.54-2.81 1.22-2.81 1.22l.21 1.79h-.4a14.67 14.67 0 0 1 -.31-2.17c0-.11 0-.22 0-.33v-.08a1.28 1.28 0 0 1 0-.19 5.84 5.84 0 0 1 .18-1.07c0-.1.05-.19.07-.28a.29.29 0 0 0 0-.09c0-.06 0-.13.05-.19a.85.85 0 0 0 0-.17l.24.07h.09l1.17.34 1.27.37h.07.11l1-.2c1.08.39 1.73.86 1.35 1.2z" fill="#e8e9ea"/><path d="m5.59 4.55c0-.07 0-.14 0-.21s.14-.73.07-.82-.32 0-.55 0a1.64 1.64 0 0 1 -.41.07h-.85s0 1 0 1.09a.62.62 0 0 1 -.16.3c-.15.14-.42.11-.66.2-.08 0-.18.18-.24.2s.31 1.56 1.39 1.7a.64.64 0 0 0 .48-.08.68.68 0 0 0 .49.09c1.07-.14 1.53-1.75 1.53-1.75l-.76-.2c-.24-.14-.27-.35-.33-.59z" fill="#e5b28f"/><path d="m5.07 3.54a1.64 1.64 0 0 1 -.41.07h-.85s0 1 0 1.09a.67.67 0 0 1 -.1.23 2 2 0 0 0 1.56-.38.91.91 0 0 0 .26-.74 1.48 1.48 0 0 0 -.46-.27z" fill="#d6a483"/><path d="m6 5.18a3 3 0 0 1 -.42 1.09 1.08 1.08 0 0 1 -1.23.42c-.64-.25-.6-.9-.85-1.44a5 5 0 0 0 -1.22.15c-.1 0-1 .5-.87.68a7.38 7.38 0 0 1 .69 1.34 1.53 1.53 0 0 1 .11.27v.15.35a2.26 2.26 0 0 0 .1.53 5.36 5.36 0 0 1 .4 2.14 2.56 2.56 0 0 1 -.1.54 3.5 3.5 0 0 1 -.23.78c-.09.51-.19 1-.27 1.52 0 .21-.06.41-.1.61h5.46a15 15 0 0 1 -.58-2.64 2.28 2.28 0 0 1 -.11-.59 3.69 3.69 0 0 1 .37-2.53 4.62 4.62 0 0 1 .4-1.76 4.78 4.78 0 0 1 .52-.79 7.4 7.4 0 0 0 -1.07-.53c-.38-.09-.7-.17-1-.29z" fill="#d2e9f9"/><path d="m2.18 7.57v.15c0-.1 0-.16 0-.16z" fill="#ddd"/><path d="m1.73 13.79a3.16 3.16 0 0 1 -.12.37l.46.28a17.43 17.43 0 0 0 1-3.41c0-.83 1-1.7 1-1.7a3.72 3.72 0 0 1 -1.27-.25c-.34-.14-.49-.63-.56-1a2.36 2.36 0 0 0 .1.53 5.33 5.33 0 0 1 .4 2.14 7.47 7.47 0 0 1 -.67 2" fill="#4f6678"/><path d="m6.39 2s0 0 0 0z" fill="#a74214"/><path d="m5.46.65a1.66 1.66 0 0 0 -1.71 0c-.85.55-.65 1.84-.37 2.66a1.45 1.45 0 0 0 .37.79l.08.07a1.87 1.87 0 0 0 .55.36.53.53 0 0 0 .24 0 .61.61 0 0 0 .26 0 2 2 0 0 0 .57-.38l.06-.05a2.67 2.67 0 0 0 .57-2 2.36 2.36 0 0 0 -.62-1.45z" fill="#f2c4a5"/><path d="m3.3 2.94a.28.28 0 0 1 0-.09v-.29a.16.16 0 0 0 -.09-.05h-.07a.17.17 0 0 0 -.14 0 .16.16 0 0 0 0 .15s0 .08.07.13 0 0 0 .06v.18a.31.31 0 0 0 .09.21h.07l.16.07c0-.08-.12-.2-.13-.29a1.1 1.1 0 0 1 .04-.08z" fill="#f2c4a5"/><path d="m6.08 2.62a.2.2 0 0 0 -.11 0 .41.41 0 0 0 0 .11 3.54 3.54 0 0 1 0 .46 2 2 0 0 1 -.06.26.23.23 0 0 0 .09-.03.37.37 0 0 0 .1-.22.69.69 0 0 1 0-.24l.07-.14a.16.16 0 0 0 0-.15.16.16 0 0 0 -.09-.05z" fill="#f2c4a5"/><path d="m4.13 3.71a.68.68 0 0 0 .48.29.63.63 0 0 0 .58-.28 3.77 3.77 0 0 1 -.51 0 4.43 4.43 0 0 1 -.55-.01z" fill="#fff"/><path d="m5.58 2.07a1.26 1.26 0 0 0 -.58.17v.08a1.27 1.27 0 0 1 .66-.18c.26 0 .31.14.31.14a.47.47 0 0 0 -.39-.21z" fill="#9b5f37"/><path d="m3.28 2.29s.06-.08.32-.14.66.18.66.18v-.08a1.26 1.26 0 0 0 -.59-.17.49.49 0 0 0 -.39.21z" fill="#9b5f37"/><path d="m4.39 3.29.07.22.33.03.1-.06-.32-.06z" fill="#e0a575"/><path d="m4 2.47a1.22 1.22 0 0 0 -.39.15 1.42 1.42 0 0 0 .25.13.46.46 0 0 0 .23 0 1.21 1.21 0 0 0 .27-.09.42.42 0 0 0 -.36-.19z" fill="#fff"/><path d="m4.07 2.47a.16.16 0 0 0 -.16.16.16.16 0 0 0 .16.15.15.15 0 0 0 .15-.15.16.16 0 0 0 -.15-.16z" fill="#a06350"/><path d="m4.07 2.55a.08.08 0 0 0 -.07.08.07.07 0 0 0 .14 0 .08.08 0 0 0 -.07-.08z" fill="#774a3e"/><path d="m4.21 2.47a.48.48 0 0 0 -.31 0c-.16 0-.29.09-.45.11 0 0 .11.07.15.08a.36.36 0 0 0 .18 0c.21-.07.48-.14.62.08a.37.37 0 0 0 -.19-.27z" fill="#51301e"/><path d="m4.87 2.65a1.21 1.21 0 0 0 .27.09.46.46 0 0 0 .23 0 1.42 1.42 0 0 0 .25-.13 1.22 1.22 0 0 0 -.39-.15.42.42 0 0 0 -.36.19z" fill="#fff"/><path d="m5.2 2.43a.16.16 0 0 0 -.15.16.15.15 0 0 0 .15.15.16.16 0 0 0 .16-.15.16.16 0 0 0 -.16-.16z" fill="#a06350"/><path d="m5.2 2.51a.08.08 0 0 0 -.07.08.07.07 0 1 0 .14 0 .08.08 0 0 0 -.07-.08z" fill="#774a3e"/><path d="m5.06 2.43a.35.35 0 0 0 -.16.18c.14-.22.41-.15.62-.08a.36.36 0 0 0 .18 0s.13-.09.15-.08c-.16 0-.29-.08-.45-.11a.48.48 0 0 0 -.34.09z" fill="#51301e"/><path d="m2.93 16.1a1.19 1.19 0 0 0 -.42 0v.22a.57.57 0 0 0 .34 0s.12 0 .13-.08a.12.12 0 0 0 -.05-.14z" fill="#f2c4a5"/><path d="m4.76 9.81-.13-.18a1.81 1.81 0 0 1 -.18-.31c-.12-.27-.26-.6-.41-1-.51-1.22-1.04-2.83-.83-3.25s0 0-.12 0-.53.13-.83.23a4.17 4.17 0 0 0 -.74.33c.15.93.27 1.74.4 2.33.08.4.14.69.19.92a5.16 5.16 0 0 0 .13.51 6.26 6.26 0 0 1 .37 1.31 5.74 5.74 0 0 1 0 .66 15 15 0 0 0 -1.08 4 4 4 0 0 1 -.09.45c0 .1.73.17.8.19h.35a2.25 2.25 0 0 0 .26 0 2.28 2.28 0 0 0 1.54-.54 1.09 1.09 0 0 0 .22-.26 1.56 1.56 0 0 0 .22-.45 6 6 0 0 0 .12-1 14.35 14.35 0 0 0 .1-1.61c.02-.5-.05-1.14-.05-1.71a1.16 1.16 0 0 0 -.24-.62z" fill="#4f6678"/><path d="m4.33 8.71a10 10 0 0 1 -.81-2.66 2.28 2.28 0 0 1 0-.69 1 1 0 0 1 .2-.51 5 5 0 0 0 -.72.29l-.59.45.46.41s-.71 0-.65.1a1.57 1.57 0 0 1 .18.42 9.18 9.18 0 0 0 .5 1 11.84 11.84 0 0 0 1.87 2.3c-.08-.09.16 0 .07-.17s-.44-.75-.51-.94z" fill="#465d6d"/><path d="m2.25 8.19-.14.7a5.16 5.16 0 0 0 .13.51 6.26 6.26 0 0 1 .37 1.31 5.74 5.74 0 0 1 0 .66 15 15 0 0 0 -1.08 4l.71.64-.14-1.66.9-2.58v-1.49l-.41-.84z" fill="#e2e2e2"/><path d="m7 11.48a1.6 1.6 0 0 1 -.09-.54v-.07a3.86 3.86 0 0 1 .28-1.47 1.35 1.35 0 0 0 .07-.27c0-.13 0-.28.11-.63l.12-.61c.1-.52.17-1.29.39-2.22s-1.79-.79-1.77-.74c.42.72-1.39 4.83-1.39 4.83a17.39 17.39 0 0 0 .07 4.94 1.63 1.63 0 0 0 .8 1.09 2.71 2.71 0 0 0 2.41-.22c-.17-.85-.3-1.42-.45-2-.16-.73-.38-1.44-.55-2.09z" fill="#4f6678"/><path d="m5.67 4.8a6.24 6.24 0 0 1 .14 1.2 6.12 6.12 0 0 1 -.45 2.42c.84-1.1 1.14-3.19.31-3.62z" fill="#e2e2e2"/><path d="m7 5.59s-.42-.35-.45-.38a2.07 2.07 0 0 0 -.9-.53 2.91 2.91 0 0 1 .27.69 4.64 4.64 0 0 1 -.32 2l-.37 1.04c-.07.18-.13.36-.19.55a1.7 1.7 0 0 0 -.16.53s-.12.35-.11.39a13.33 13.33 0 0 1 .9-1.12 9.88 9.88 0 0 0 .86-1.25 10.48 10.48 0 0 0 .47-1 1.57 1.57 0 0 1 .18-.42c.06-.07-.65-.1-.65-.1z" fill="#465d6d"/><path d="m4.2 1.17c-.06 0 1.15.86 1.42 1.41a18.27 18.27 0 0 1 .64 2.49 24.41 24.41 0 0 0 .2-2.48c-.06 0-.98-1.97-2.26-1.42z" fill="#e2e2e2"/><path d="m6.52 1.39a2.18 2.18 0 0 0 -2.09-1.39c-.89.13-.94.37-.94.38a.59.59 0 0 0 -.49.39 5.19 5.19 0 0 0 .52 5.28 4.7 4.7 0 0 0 -.29-1.5 4.32 4.32 0 0 1 -.23-1.68c0-.17 0-.41.06-.57a4.34 4.34 0 0 1 .14.48 2.06 2.06 0 0 1 .1-.92 3 3 0 0 1 .5-.79c-.07.11.55.45.63.48.27.16.57.28.83.46.58.4.52 1 .72 1.61a6.13 6.13 0 0 1 .19 2.13c0-.06.44-.42.5-.52a1.75 1.75 0 0 0 .23-.71 6.19 6.19 0 0 0 -.11-2.52 2.5 2.5 0 0 0 -.27-.61z" fill="#6d4429"/><path d="m8.79 16.77-.19.35a.41.41 0 0 0 -.07.32v.08h.06l.52-.63-.31-.89z" fill="#e5b28f"/><path d="m9.2 13.54-.67-.33-.14 1.12-.07.75a3.65 3.65 0 0 0 -.26 1.21 3.49 3.49 0 0 1 0 .86c0 .06.2 0 .27-.22s.08-.08.08-.18v-.53h.16l.41.74-.5.66c.13.15.27.09.39-.07l.41-.43.07-.66-.28-1.18z" fill="#f2c4a5"/><path d="m8.8 11a5.59 5.59 0 0 1 -.11-1h-1.15l.09.74.37 1.89.43 2.11.57.26a16.76 16.76 0 0 0 .15-1.71v-.82c-.05-.19-.25-1.13-.35-1.47z" fill="#f2c4a5"/><path d="m8.53 6.94a2.51 2.51 0 0 0 -.65-1.27c-.09 0-.14.34-.16.43-.06.33-.09.67-.16 1a13.39 13.39 0 0 0 -.34 1.45q0 .18 0 .39a1.15 1.15 0 0 1 0 .19l.15 2 .1.66.53 3.58h1.16l.08-3.13s-.12-.65-.36-1.75a33.16 33.16 0 0 1 -.35-3.55z" fill="#4f6678"/><path d="m7.33 8.2a5.23 5.23 0 0 1 -.71 1.89l.24.84v-.07a3.86 3.86 0 0 1 .33-1.46 1.35 1.35 0 0 0 .07-.27l.15 2 .1.66v.05l.15-1.73-.29-1.61z" fill="#e2e2e2"/><path d="m1.79 14.23-.15-1-.39-1-.53.47.36 1.13a5.1 5.1 0 0 1 .09 1.83 2.54 2.54 0 0 0 .1.37 1 1 0 0 0 .06.14.41.41 0 0 0 .13.12 1.26 1.26 0 0 0 .57.1 2 2 0 0 0 .48 0 .74.74 0 0 0 .27-.07 2 2 0 0 1 -.36-.78c.2.17.42.48.66.36-.21-.32-.58-.75-.74-1.06s-.59-.5-.55-.61z" fill="#f2c4a5"/><g fill="#4f6678"><path d="m2.3 8.43a3.28 3.28 0 0 0 -.09.32s.07-.22.09-.32z"/><path d="m1.73 6.41-.12-.54c0-.11 0-.22-.08-.24a6.9 6.9 0 0 0 -.69 1.6c-.16.69-.35 1.41-.56 2.33-.28 1.09-.28 1.44-.28 1.44a7.34 7.34 0 0 0 .18.83 7.74 7.74 0 0 0 .37 1c.18.64.45 1.22.62 1.86.4-.12.7-.18 1.1-.3-.12-.39-.27-.91-.27-1.46s-.12-.71-.17-1.13c0-.11-.1-.43-.13-.58a2.83 2.83 0 0 1 -.07-.36l.63-2.11z"/><path d="m2.3 8.43s0-.03 0 0z"/></g><g fill="#465d6d"><path d="m4.66 9.53a9.2 9.2 0 0 1 .25 2.39 10.68 10.68 0 0 1 -.46 3.66 1.86 1.86 0 0 0 .23-.26 1.82 1.82 0 0 0 .21-.45 6 6 0 0 0 .12-1 14.17 14.17 0 0 0 .1-1.6c0-.61-.07-1.22-.08-1.83-.03-.96-.2-.67-.37-.91z"/><path d="m4.52 9.92a.23.23 0 0 0 -.22.23.23.23 0 1 0 .45 0 .23.23 0 0 0 -.23-.23z"/><circle cx="4.59" cy="11.69" r=".23"/><circle cx="4.49" cy="13.7" r=".23"/></g></svg>