<svg viewBox="0 0 8.79 18.22" xmlns="http://www.w3.org/2000/svg"><path d="m5.51 4.25a1.55 1.55 0 0 1 0-.21c0-.13.14-.73.06-.82s-.31 0-.54 0a3.89 3.89 0 0 1 -.41.07h-.85v.14c0 1.88-.27 1-1.25 1.7-.07.05.58.88.62.94a1.91 1.91 0 0 0 .65.55c.29.17.38.63.51.92a1.32 1.32 0 0 0 .15.29.39.39 0 0 0 .24.17c.2 0 .35-.19.44-.37a2.55 2.55 0 0 0 .18-.53 1.21 1.21 0 0 1 .13-.42c.22-.3.81-.36 1.16-1.58l-.76-.3c-.24-.09-.27-.31-.33-.55z" fill="#e5b28f"/><path d="m5.1 3.69a1.82 1.82 0 0 0 -.42-.3 2.31 2.31 0 0 1 -.41.07h-.54v.95a.59.59 0 0 1 -.16.3.39.39 0 0 1 -.17.09c.56.09 1.57.8 2-.45a.56.56 0 0 0 -.3-.66z" fill="#d6a483"/><path d="m7.57 18.22h-6.09c0-.88-.05-1.75 0-2.53v-.14c0-.09 0-.18 0-.26s0-.38 0-.56 0-.09 0-.14a.11.11 0 0 1 0-.05.37.37 0 0 1 0-.11s0-.08 0-.12v-.23a.78.78 0 0 1 0-.16v-.18h5.89v.28a2.34 2.34 0 0 1 0 .3s0 0 0 .08 0 .18 0 .28 0 .22 0 .35 0 .17 0 .26 0 .45 0 .7c.21.66.21 1.43.2 2.23z" fill="#42525e"/><path d="m7.25 14a4.24 4.24 0 0 1 -.5.18 7.8 7.8 0 0 1 -2.26.3 13.39 13.39 0 0 1 -2.58-.26s0 1.86.11 4h-.54c0-.88-.05-1.75 0-2.53v-.14c0-.09 0-.18 0-.26s0-.38 0-.56 0-.09 0-.14a.11.11 0 0 1 0-.05.37.37 0 0 1 0-.11s0-.08 0-.12v-.23a.78.78 0 0 1 0-.16v-.18h4.6a5.72 5.72 0 0 1 1.17.26z" fill="#e8e9ea"/><path d="m7.08 9.4a5.48 5.48 0 0 1 1.58-.4c0-.15-.05-.29-.07-.42a10.07 10.07 0 0 0 -.36-1.68 3.8 3.8 0 0 0 -.39-1.1 3.42 3.42 0 0 0 -1.57-.87l-.33-.11a6.4 6.4 0 0 1 -1.25 2l-1.43-2-.26.09c-1 .41-1.91.71-2.14 1.47-.16.55-.28 1.23-.48 2.28 0 .11 0 .22-.07.34.48.18 1 .25 1.46.4 0-.22.23-.36.25 0 0 0-.13 1-.17 1.52-.49 2.51-.31 3-.31 3s2.51.31 2.77.33a11.58 11.58 0 0 0 3.14-.25 17.8 17.8 0 0 1 -.38-4.6z" fill="#f21d51"/><g fill="#f2c4a5"><path d="m5.42 1a1.66 1.66 0 0 0 -1.71 0 1.58 1.58 0 0 0 -.57 1.75 5.87 5.87 0 0 0 .3 1 3.19 3.19 0 0 0 .27.69 1.35 1.35 0 0 0 .44.31.94.94 0 0 0 .41.25.74.74 0 0 0 .44-.12 2.34 2.34 0 0 0 .74-.73 2.72 2.72 0 0 0 .3-1.63 2.34 2.34 0 0 0 -.62-1.52z"/><path d="m5.43 1a1.66 1.66 0 0 0 -1.71 0 1.6 1.6 0 0 0 -.57 1.76 6.14 6.14 0 0 0 .3 1 4.12 4.12 0 0 0 .23.78c.13.15.37.17.54.26a.72.72 0 0 0 .35.2.75.75 0 0 0 .43-.11c.35-.2.71-.08.85-.71a5.3 5.3 0 0 0 .24-1.66 2.38 2.38 0 0 0 -.66-1.52z"/><path d="m3.35 3.23a.43.43 0 0 1 0-.11v-.24s0-.1 0-.15h-.09-.13a.15.15 0 0 0 -.13.03.28.28 0 0 0 0 .24l.09.16v.08c0 .07 0 .15.05.23a.57.57 0 0 0 .13.27h.07l.17.08a4 4 0 0 1 -.17-.36 2 2 0 0 1 .01-.23z"/></g><path d="m5.44 2.48a1.41 1.41 0 0 0 -.59.18v.09a1.49 1.49 0 0 1 .69-.15c.26 0 .3.12.3.12a.47.47 0 0 0 -.4-.24z" fill="#999"/><path d="m3.37 2.7a1.08 1.08 0 0 1 .31-.11c.21 0 .63.18.67.18v-.1a1.22 1.22 0 0 0 -.59-.18.49.49 0 0 0 -.39.21z" fill="#999"/><path d="m4.36 3.63.06.22.33.02.1-.06-.32-.05z" fill="#e5b28f"/><path d="m4 2.81a1.22 1.22 0 0 0 -.39.19 1.42 1.42 0 0 0 .25.13.45.45 0 0 0 .23 0 .85.85 0 0 0 .27-.13.41.41 0 0 0 -.36-.19z" fill="#fff"/><path d="m4 2.81a.16.16 0 0 0 -.13.19.16.16 0 0 0 .13.12.16.16 0 0 0 .18-.12.15.15 0 0 0 -.18-.19z" fill="#a06350"/><circle cx="4.03" cy="2.96" fill="#774a3e" r=".07"/><path d="m4 2.81a.58.58 0 0 0 -.26 0 .35.35 0 0 0 -.15.19 1 1 0 0 1 .47-.1c.1 0 .18.08.27.09s-.22-.17-.33-.18z" fill="#e5b28f"/><path d="m4.86 3s.24.09.26.1a.48.48 0 0 0 .24 0 1.73 1.73 0 0 0 .24-.1 1 1 0 0 0 -.38-.15c-.22-.02-.22.05-.36.15z" fill="#fff"/><path d="m5.19 2.83a.16.16 0 0 0 -.19.17.15.15 0 0 0 .16.15.15.15 0 0 0 .18-.15.15.15 0 0 0 -.15-.17z" fill="#a06350"/><path d="m5.19 2.91a.07.07 0 1 0 0 .14.07.07 0 0 0 0-.14z" fill="#774a3e"/><path d="m5.45 2.86a.46.46 0 0 0 -.26 0c-.08 0-.32 0-.31.17s.17-.08.28-.09a.72.72 0 0 1 .25 0c.06 0 .13.08.2.06a.4.4 0 0 0 -.16-.14z" fill="#e5b28f"/><path d="m4.22 4.17.1.12h.6l.17-.18a4.52 4.52 0 0 0 -.87.06z" fill="#fff"/><path d="m4.59 4.06a.93.93 0 0 0 -.46.1 2.63 2.63 0 0 0 .56 0h.31l.07-.05c-.07-.11-.33-.04-.48-.05z" fill="#e88c80"/><path d="m4.38 4.26-.22-.11a.41.41 0 0 0 .23.27 1.07 1.07 0 0 0 .4 0 .22.22 0 0 0 .15-.08l.06-.07a1.47 1.47 0 0 0 .06-.14 1 1 0 0 1 -.47.17.93.93 0 0 1 -.21-.04z" fill="#efa19c"/><path d="m5.7.77a2.11 2.11 0 0 0 -1.36-.18 2 2 0 0 0 -.9.36 1.57 1.57 0 0 0 -.44 1.05 1.39 1.39 0 0 0 .3 1c0-.22 0-.47 0-.69a2.59 2.59 0 0 1 .4-1c0 .05.3.29.34.32a1.42 1.42 0 0 0 .48.19 1.89 1.89 0 0 0 1-.15.37.37 0 0 1 .25 0c.27.11.27 1.05.18 1.28.07-.17.18-.29.25-.46a1.28 1.28 0 0 0 0-.55 1.49 1.49 0 0 0 -.5-1.17z" fill="#999"/><path d="m6.16 2.7a.18.18 0 0 0 -.09.07 1.38 1.38 0 0 0 -.1.4 1.29 1.29 0 0 0 -.1.42.2.2 0 0 0 0 .11c.05.08.14 0 .19 0a.49.49 0 0 0 .09-.28 1.45 1.45 0 0 1 0-.3c0-.07 0-.12.07-.19s.04-.27-.06-.23z" fill="#f2c4a5"/><path d="m4 4.26a1.68 1.68 0 0 1 .38-.52c-.19-.02-.46.43-.38.52z" fill="#e5b28f"/><path d="m4.84 3.74a1.66 1.66 0 0 1 .39.52c.1-.09-.17-.54-.39-.52z" fill="#e5b28f"/><path d="m7.39 15.03h.49v3.19h-.49z" fill="#878785"/><path d="m7.18 14.68h.91v1.31h-.91z" fill="#34495e"/><path d="m8.55 13.3c.28-2.53.25-2.5.12-3.06a3.11 3.11 0 0 0 -.07-1.3c0-.26-.81.13-1.26.3a.7.7 0 0 0 -.23.15l.34.93a16 16 0 0 0 0 1.91 7.53 7.53 0 0 0 .09 1.1 5.17 5.17 0 0 1 .07.55 2.17 2.17 0 0 1 -.07.42 2 2 0 0 1 -.08.26c0 .14-.09.27-.13.41a2.42 2.42 0 0 0 -.06.47.53.53 0 0 0 0 .25c0 .14.2 0 .24-.06s0-.28.11-.41.15-.32.24-.2a1.08 1.08 0 0 1 .14 1.25.14.14 0 0 0 .14.21.13.13 0 0 0 .1 0 .42.42 0 0 0 .18-.14c.07-.14.17-.24.24-.38a1.76 1.76 0 0 0 .18-.59 3 3 0 0 0 -.34-.9c-.02-.3.01-.8.05-1.17z" fill="#edb996"/><path d="m4.2 2.7a3 3 0 0 0 -.52 0c-.3 0-.49.08-.32.48a.56.56 0 0 0 .32.32.62.62 0 0 0 .64-.08.58.58 0 0 0 .16-.21.42.42 0 0 0 0-.38c-.06-.1-.21-.12-.28-.13z" fill="#cae7ef" opacity=".38"/><path d="m4.54 2.83v-.06a.27.27 0 0 0 -.15-.1h-.13a1.1 1.1 0 0 0 -.25 0h-.44a.41.41 0 0 0 -.16 0 .26.26 0 0 0 -.11.07s0 0 0 .05a.37.37 0 0 0 0 .23.48.48 0 0 0 .05.14.31.31 0 0 0 0 .1.53.53 0 0 0 .3.25h.06a.66.66 0 0 0 .23 0 .63.63 0 0 0 .4-.14.44.44 0 0 0 .12-.15.41.41 0 0 0 0-.09.52.52 0 0 0 0-.24.57.57 0 0 0 .08-.06zm-.26.53a.52.52 0 0 1 -.28.11 1.09 1.09 0 0 1 -.24 0 .47.47 0 0 1 -.28-.29c-.07-.15-.08-.26 0-.32s.12-.08.26-.08h.28.27s.16 0 .19.08a.33.33 0 0 1 0 .32.31.31 0 0 1 -.1.15.1.1 0 0 1 -.1.03z" fill="#756059"/><path d="m5.6 2.66a4.7 4.7 0 0 0 -.53 0c-.07 0-.21 0-.26.11a.39.39 0 0 0 0 .38.51.51 0 0 0 .19.24.62.62 0 0 0 .64.07.56.56 0 0 0 .32-.32c.12-.4-.07-.49-.36-.48z" fill="#cae7ef" opacity=".38"/><g fill="#756059"><path d="m6 2.78a.08.08 0 0 0 0 0s0 0 0 0a.34.34 0 0 0 -.2-.09h-.5a.61.61 0 0 0 -.19 0h-.11a.7.7 0 0 0 -.18.05.16.16 0 0 0 -.1.08v.06a.4.4 0 0 0 0 .15.59.59 0 0 0 0 .22v.09a.64.64 0 0 0 .13.15.58.58 0 0 0 .4.14h.22.08a.63.63 0 0 0 .45-.46.32.32 0 0 0 0-.09.16.16 0 0 0 0-.08.09.09 0 0 0 0-.07.09.09 0 0 1 0-.05.14.14 0 0 0 0-.1zm-.47.64a.55.55 0 0 1 -.53-.08.34.34 0 0 1 -.08-.09.21.21 0 0 1 -.06-.1.33.33 0 0 1 0-.33s.13-.07.19-.08a1.27 1.27 0 0 1 .27 0h.28a.32.32 0 0 1 .26.08v.32a.53.53 0 0 1 -.28.29z"/><path d="m4.52 2.97h.23l.03-.15-.29.01z"/><path d="m2.93 2.57s0 .06 0 .1l.4.19v-.12l-.41-.18z"/><path d="m6.28 2.51-.37.21v.11l.39-.23v-.08z"/></g><path d="m.26 10.11a5.13 5.13 0 0 1 -.15 1 10 10 0 0 0 0 1.23c0 .62.12 1.65.17 1.92s-.11.27-.15.4a1.8 1.8 0 0 0 -.15.55 1.79 1.79 0 0 0 .35 1s0 .07.07.09a.13.13 0 0 0 .12 0c.06 0 .06-.09.06-.14s.31.39.34.1-.15-.36-.22-.52a.62.62 0 0 1 .21-.66.48.48 0 0 1 .12.29 2 2 0 0 0 0 .35c0 .08.07.1.16.08s.1-.27.11-.34a3.19 3.19 0 0 0 0-.69c0-.16-.07-.32-.11-.47v-.07s0-.05 0-.07c0-.62.07-1.25.11-1.86l.07-.74.2-1.16.43-1.53c-.41-.15-1.08-.15-1.51-.31-.05.63-.27 1.22-.23 1.55z" fill="#edb996"/><path d="m5.28.24a1.09 1.09 0 0 0 -1.09-.17.85.85 0 0 0 -.58.58.73.73 0 0 0 .39.75 1.19 1.19 0 0 0 .85.14.93.93 0 0 0 .57-.27.75.75 0 0 0 -.14-1.03z" fill="#999"/><path d="m5.92 4.82a6.4 6.4 0 0 1 -1.25 2l-1.43-2-.24.09 1.55 2.2v2l.33-.06v-1.94l1.39-2.18z" fill="#a38b81"/><path d="m.31 9c.48.18 1.13.33 1.65.48 0-.22.06-.39.06-.39l-1.64-.43c-.02.11-.05.22-.07.34z" fill="#a38b81"/><path d="m7 9 .07.37a5.48 5.48 0 0 1 1.59-.37c0-.15-.05-.29-.07-.42z" fill="#a38b81"/></svg>