<svg viewBox="0 0 13.52 18.47" xmlns="http://www.w3.org/2000/svg"><path d="m12.23 18.29-.25.18h-.65l-.01-.04.39-.32.22-.68z" fill="#d8a684"/><path d="m13 15.54-.15.58v.09l-.11.39v.16.95l-.38.76h-.57l.23-.2v-.84l-.4.13-.16.66h-.1a.21.21 0 0 1 -.36-.22l.08-.76.39-.7.14-.23.24-.39.05-.09.38-1z" fill="#edb996"/><path d="m11.55 16.34 1.25.27.11-.48-1.35-.25s-.08.45-.01.46z" fill="#756059"/><path d="m1.34 15.81h.64v2.66h-.64z" fill="#455a64"/><path d="m1.08 15.41h1.16v1.5h-1.16z" fill="#34495e"/><path d="m2.1 14.67v-.66l-1.1.14-.54 1.13a2.88 2.88 0 0 0 -.1 1.09 10.15 10.15 0 0 0 .75.87c.16.18.27.34.51.1a1.59 1.59 0 0 1 -.24-1.11 1.36 1.36 0 0 1 .39-.76.83.83 0 0 1 .39.6c0 .22.12.49.38.24 0-.25-.07-.51-.11-.76z" fill="#edb996"/><path d="m10.41 14.5v1.72.85.14.56s0 .48 0 .7h-7v-.44a.86.86 0 0 1 0-.17s0-.06 0-.09a.17.17 0 0 0 0-.07c0-.13.05-.28.07-.45a.59.59 0 0 0 0-.14s0 0 0 0 0-.28.07-.43a2.07 2.07 0 0 1 0-.22c0-.09 0-.19 0-.29.16-.93.31-1.88.32-2h.44a15.27 15.27 0 0 1 2.74.36 5 5 0 0 0 1 .14c.45 0 .85-.05 1.91-.12z" fill="#1c3d51"/><path d="m8.83 17.7-.74.07-4.09.39h-.17v.3h-.47v-.44a.86.86 0 0 1 0-.17s0-.06 0-.09a.17.17 0 0 0 0-.07c0-.13.05-.28.07-.45a.59.59 0 0 0 0-.14s0 0 0 0l.42.05.52.06z" fill="#efefef"/><path d="m4.49 17.25a3.31 3.31 0 0 1 -.28.52c-.08.13-.16.27-.25.39l-.12.17-.11.14h-.37v-.44a.86.86 0 0 1 0-.17s0-.06 0-.09a.17.17 0 0 0 0-.07c0-.13.05-.28.07-.45a.59.59 0 0 0 0-.14s0 0 0 0 0-.28.07-.43a2.32 2.32 0 0 1 .77.44.17.17 0 0 1 .06.06.46.46 0 0 1 .16.07z" fill="#112935"/><path d="m10.4 16.22v.85.14.56s0 .48 0 .7h-.58a6.52 6.52 0 0 1 -.35-.7c-.09-.2-.17-.4-.23-.58a.49.49 0 0 1 0-.11 1.53 1.53 0 0 1 -.14-.63 2.27 2.27 0 0 1 1.3-.23z" fill="#112935"/><path d="m9 4.89-.57-.22-.12-1-1.14.16-1.17-.18v.05l-.12 1-.34.13-.21.06a.26.26 0 0 0 -.1 0 1.19 1.19 0 0 0 -.16.11.31.31 0 0 0 -.07.06c-.05.08 0 .21.07.28a2.77 2.77 0 0 0 1.43 1.15 2.85 2.85 0 0 0 1.87 0 1.58 1.58 0 0 0 .87-.66.75.75 0 0 0 -.24-.94z" fill="#e5b28f"/><path d="m5.87 4.67-.34.13-.21.06a.26.26 0 0 0 -.1 0 1 1 0 0 0 .58.53c.42.12.85-.18 1.55-.68a4.9 4.9 0 0 0 1-.9l-2.35-.11z" fill="#d6a483"/><path d="m8.53 4.47c-.21.45-.64.63-.93 1a.86.86 0 0 1 -.58 0h-.02-.11a2.65 2.65 0 0 1 -1.09-.9 11 11 0 0 1 -1.18.43l-.23.12v9.61h5.61v-9.73l-.82-.26a2.73 2.73 0 0 1 -.65-.27z" fill="#e8dfd1"/><path d="m6.9 8.34h.1v-2.79h-.11z" fill="#cec1af"/><path d="m6.03 5.52.52-.1.38.13-.1-.33z" fill="#ddd3c3"/><path d="m7.37 5.57.32-.02.54-.12-.79-.19z" fill="#ddd3c3"/><path d="m7 17.09h-3.56v.29l-.06.37h7.02a3.68 3.68 0 0 0 0-.69z" fill="#756059"/><path d="m10.55 5.13a8.49 8.49 0 0 0 -1.34-.47l-.52-.19-1.46 3.94-1.72-3.92-.62.22a3.41 3.41 0 0 0 -1.4.69 6.25 6.25 0 0 0 -1.19 1.22l-1 1.44-.87 1.35a1.31 1.31 0 0 0 -.23.59 10.44 10.44 0 0 0 -.2 2.4 5.57 5.57 0 0 0 .36 1.6l.4.42h1.41l.22-.42.15-3.15.52-.68.57-.47a43.14 43.14 0 0 0 -.31 7.37h1.05 2.32.31l3.39.05h.19c.16-1.59 0-5.76 0-7.24l.12.76.3 1.55.31 3.17.3.61.14-.05 1.21.31.44-.62.17-4.49a20 20 0 0 0 -1.74-4.27c-.42-.58-.66-1.35-1.28-1.72z" fill="#915946"/><path d="m7.23 8.4-1.72-3.9-.63.21 2.33 4.61 2-4.66-.52-.19z" fill="#756059"/><path d="m7.44 5.24c.61.61.87 1 .87 1s.85-1.58.85-1.58l-.82-.47c0 .05.12.5-.9 1.05z" fill="#f2eadc"/><path d="m5.93 4.24-.71.32s.78 1.63.78 1.63.22-.36.83-1c-1.02-.52-.9-.87-.9-.95z" fill="#f2eadc"/><path d="m7.28 5.82a.15.15 0 0 0 -.14.18.14.14 0 0 0 .14.14.15.15 0 1 0 0-.29z" fill="#cec1af"/><path d="m7.28 6.76a.14.14 0 1 0 0 .28.14.14 0 1 0 0-.28z" fill="#cec1af"/><path d="m7.28 7.66a.14.14 0 0 0 0 .28.14.14 0 1 0 0-.28z" fill="#cec1af"/><path d="m5.29 2.25a.18.18 0 0 0 -.21 0 .2.2 0 0 0 0 .22c0 .18.1.36.16.54a2.79 2.79 0 0 0 .14.37s0 .11.06.14.15 0 .2.07l.1.09c-.1-.47-.15-.88-.25-1.35a.2.2 0 0 0 -.2-.08z" fill="#e5b28f"/><path d="m7.79.08a2.68 2.68 0 0 0 -.79-.08 1.68 1.68 0 0 0 -1.69 2.06v.07c.12.59.17 1.11.28 1.68l.05.19a.94.94 0 0 0 .76.7l.34.3a.65.65 0 0 0 .31.08 1.79 1.79 0 0 0 .33 0 .56.56 0 0 0 .32-.13l.22-.23h.1a1 1 0 0 0 .54-.73v-.18a10.9 10.9 0 0 0 .28-1.81c0-.43.16-.8-.05-1.21a1.47 1.47 0 0 0 -1-.71z" fill="#edb996"/><path d="m6.34 4.17s.08-.17.12-.17a2.61 2.61 0 0 1 .19-.27s.12-.13.15-.13a.67.67 0 0 0 -.46.57z" fill="#d8a988"/><path d="m7.46 3.53a1.13 1.13 0 0 1 .23.24 2.15 2.15 0 0 1 .31.38.81.81 0 0 0 -.54-.62z" fill="#d8a988"/><path d="m8.87 2.2h-.07a8 8 0 0 1 -.26 1.51s.12 0 .14 0c.19 0 .17-.15.22-.28l.1-.43a1.64 1.64 0 0 0 .13-.43.26.26 0 0 0 -.09-.22s-.14-.16-.17-.15z" fill="#e5b28f"/><path d="m7 3.67-.2-.16.1.28.42.05.2-.21-.21.1z" fill="#d6a483"/><path d="m7.48 2.82a.56.56 0 0 0 .73 0 .57.57 0 0 0 -.36-.15.52.52 0 0 0 -.37.15z" fill="#fff"/><path d="m7.85 2.63a.18.18 0 0 0 -.17.17.17.17 0 0 0 .32 0 .18.18 0 0 0 -.15-.17z" fill="#a0817c"/><path d="m7.45 2.76v.06a.68.68 0 0 1 .78 0c.02-.19-.47-.32-.78-.06z" fill="#d8a988"/><path d="m7.85 2.72a.08.08 0 0 0 -.08.08.08.08 0 0 0 .16 0 .08.08 0 0 0 -.08-.08z" fill="#734e42"/><path d="m6.34 2.58a.57.57 0 0 0 -.34.15.54.54 0 0 0 .74 0 .54.54 0 0 0 -.4-.15z" fill="#fff"/><path d="m6.36 2.59a.16.16 0 0 0 -.17.16.17.17 0 0 0 .17.17.17.17 0 0 0 .16-.17.16.16 0 0 0 -.16-.16z" fill="#a0817c"/><path d="m6 2.78a.68.68 0 0 1 .78 0v-.07c-.36-.28-.88-.03-.78.07z" fill="#d8a988"/><path d="m6.35 2.67a.07.07 0 0 0 -.08.07.07.07 0 0 0 .08.08.07.07 0 0 0 .07-.08.07.07 0 0 0 -.07-.07z" fill="#734e42"/><g fill="#9a9a9b"><path d="m8 2.22-.52.07a1.4 1.4 0 0 1 -.06.28l.68-.14.51.11-.33-.25a.35.35 0 0 0 -.28-.07z"/><path d="m6.79 2.27-.47-.06a.43.43 0 0 0 -.25 0l-.38.24.52-.06.73.16a.35.35 0 0 0 0-.11 1.19 1.19 0 0 1 -.15-.17z"/><path d="m5.3.8a2.05 2.05 0 0 0 -.07.34c0 .1-.08.18-.1.28-.11.39.15.73.33 1.06.06-.29-.09-.63-.06-.94a2.47 2.47 0 0 1 .26-.78l.08-.17c-.15-.09-.38.07-.44.21z"/><path d="m9 .85a.55.55 0 0 0 -.45-.35 3.63 3.63 0 0 1 .21 2c0-.16.21-.35.28-.49a1.38 1.38 0 0 0 .17-.66c0-.13-.08-.16-.13-.26a2.91 2.91 0 0 1 -.08-.24z"/></g><path d="m6.72 4.22a.64.64 0 0 0 .39.17.73.73 0 0 0 .53-.16h-.92z" fill="#d6a483"/><path d="m7.91 4.12c-.15-.08-.32-.19-.36-.2a.65.65 0 0 0 -.19 0s-.18 0-.15 0c-.39-.18-.65.24-1 .26 0 0 .11.13.15.14s.15 0 .22 0c.23 0 .43-.17.65-.12s.26.13.42.14a.61.61 0 0 0 .49-.12s-.14-.03-.23-.1z" fill="#9a9a9b"/><path d="m6.6 2.46c-.21 0-.42 0-.62 0-.35 0-.58.09-.37.57a.66.66 0 0 0 .39.36.75.75 0 0 0 .76-.09.64.64 0 0 0 .16-.3.48.48 0 0 0 0-.45c-.07-.05-.24-.07-.32-.09z" fill="#cae7ef" opacity=".38"/><path d="m7 2.78a.25.25 0 0 0 0-.17.14.14 0 0 0 0-.06.23.23 0 0 0 -.07-.07.7.7 0 0 0 -.26-.08 2.11 2.11 0 0 0 -.35 0h-.43a.43.43 0 0 0 -.34.11.09.09 0 0 0 0 .07.61.61 0 0 0 -.01.42.74.74 0 0 0 .46.45 1.27 1.27 0 0 0 .36.07.71.71 0 0 0 .47-.17.74.74 0 0 0 .17-.28.5.5 0 0 0 0-.29zm-1 .54a.58.58 0 0 1 -.33-.32c-.08-.18-.09-.31 0-.38s.14-.09.3-.09h.33a1.77 1.77 0 0 1 .32 0c.07 0 .2 0 .23.09a.42.42 0 0 1 0 .38.58.58 0 0 1 -.17.23.66.66 0 0 1 -.68.09z" fill="#756059"/><path d="m8.25 2.42a4.29 4.29 0 0 0 -.62 0c-.09 0-.26 0-.32.12a.53.53 0 0 0 -.01.46.69.69 0 0 0 .19.25.75.75 0 0 0 .76.09.66.66 0 0 0 .37-.34c.2-.48-.03-.59-.37-.58z" fill="#cae7ef" opacity=".38"/><g fill="#756059"><path d="m8.72 2.53s0 0 0 0a.16.16 0 0 0 -.07-.07.5.5 0 0 0 -.33-.09h-.32a2 2 0 0 0 -.34 0h-.18a.29.29 0 0 0 -.15.12.11.11 0 0 0 0 .07.33.33 0 0 0 0 .17.66.66 0 0 0 .06.27.63.63 0 0 0 .2.28.71.71 0 0 0 .47.17 1 1 0 0 0 .36-.07.69.69 0 0 0 .26-.38 0 0 0 0 0 0 0 .72.72 0 0 0 .07-.35.25.25 0 0 0 -.03-.12zm-1.19.7a.76.76 0 0 1 -.17-.23.45.45 0 0 1 0-.39.17.17 0 0 1 .11-.06h.13.06a1.46 1.46 0 0 1 .29 0h.46.1l.06.05a.46.46 0 0 1 0 .38.58.58 0 0 1 -.33.34.69.69 0 0 1 -.71-.09z"/><path d="m.67 14.77 1.54.05.01-.42-1.55-.04z"/><path d="m6.97 2.78h.28l.04-.17-.35.01z"/><path d="m5.22 2.15a.36.36 0 0 1 0 .1l.34.42.06-.12-.34-.41z"/><path d="m8.92 2.1-.34.41.06.12.36-.42a1 1 0 0 0 0-.1z"/></g></svg>