<svg viewBox="0 0 10.33 18.35" xmlns="http://www.w3.org/2000/svg"><path d="m8 13.32v2.83.56.09 1.54h-2.87c0-.24 0-.48 0-.73v-.09s0 0 0 0a.07.07 0 0 1 0 .05c0 .24-.09.48-.13.73h-3c0-.48-.07-1-.1-1.51v-.42c0-.11.11-.72.22-1.41 0-.08 0-.17 0-.26s0-.32.08-.47a.51.51 0 0 1 0-.13c0-.24.07-.46.1-.64s.07-.46.08-.51c1 .06 1.61.12 2 .19l.72.15.42.08h.26.22a11.93 11.93 0 0 0 1.35-.08h.65z" fill="#767a8c"/><path d="m4.28 13.71v.7l-.08 2.59h-1.88l.05 1.34h-.37c0-.48-.07-1-.1-1.51v-.42c0-.11.11-.72.22-1.41 0-.08 0-.17 0-.26l.78-.38.54-.27z" fill="#efefef"/><path d="m5 14.12v-.59h-.22v.59c-1.19 0-2.25 0-2.27 0s-.5.1-.2.22a15.1 15.1 0 0 0 2.59.11 8.07 8.07 0 0 0 .1 2.74l.09.35a8.14 8.14 0 0 1 -.08-.9 9.7 9.7 0 0 1 .11-2.16 7.34 7.34 0 0 0 2.74-.32c-.29-.03-1.64-.03-2.86-.04z" fill="#e0e0e0"/><path d="m6.79 4.9-.5-.2-.11-.88-.98.18-1-.13-.1.83-.29.12h-.18-.09a.57.57 0 0 0 -.13.18.24.24 0 0 0 -.08.06c-.05.07 0 .18.06.24a2.34 2.34 0 0 0 1.26 1 2.43 2.43 0 0 0 1.62 0 1.39 1.39 0 0 0 .73-.6.67.67 0 0 0 -.21-.8z" fill="#e5b28f"/><path d="m4.1 4.7-.29.12h-.18-.09a.86.86 0 0 0 .5.46c.36.11.74-.15 1.35-.59a4.46 4.46 0 0 0 .82-.69l-2-.13z" fill="#d6a483"/><path d="m6.41 4.5a1.32 1.32 0 0 1 -2.41.09 7.35 7.35 0 0 1 -1 .41l-.29.12v4.33h-.49v.24l-.22 3.82h6a23.18 23.18 0 0 0 -.29-4.32l.14-1 .15-.09v-2.77a6.53 6.53 0 0 1 -1-.59 2.69 2.69 0 0 1 -.59-.24z" fill="#e2e2e2"/><g fill="#676a75"><path d="m5.03 5.22-.21.46.25.4.31-.05.25-.44-.26-.38z"/><path d="m5.44 5.93-.36.06-.26 1.21-.05 1.2 1.02-.75-.02-.33z"/><path d="m4.75 8.84-.05 1.26 1.18-.79-.07-1.29z"/></g><path d="m4.7 10.1-.03.66 1.25-.83-.04-.62z" fill="#717682"/><path d="m4.67 10.76-.04.98.59.51.79-.63-.09-1.69z" fill="#676a75"/><path d="m4.77 8.4-.02.44 1.06-.82-.02-.37z" fill="#717682"/><path d="m5.47 5.31-.53-.21s-1-.16-.7.69l.18.21s.4-.08.71-.79c.34.33.69.77 1 .79a3.69 3.69 0 0 0 .62-.76 7.18 7.18 0 0 0 -1.28.07z" fill="#cecece"/><path d="m5.23 5.21c.53.53.85.85.85.78s.78-1.26.78-1.26l-.62-.51c0 .08-.12.5-1.01.99z" fill="#f2f2f2"/><path d="m4.15 4.3-.58.51s.78 1.19.8 1.19.31-.22.84-.75c-.89-.51-1.06-.88-1.06-.95z" fill="#f2f2f2"/><path d="m3.79 4.55-2.21.78.3 4.13a56.14 56.14 0 0 1 -.25 7.36l2.69.18s0-2.61 0-2.69c.09-.56.17-1.78.22-2.44 0-.33 0-.67 0-1v-.33c0-.67 0-1.3-.08-1.88z" fill="#878ba0"/><path d="m4.22 7a15.79 15.79 0 0 1 -.31-2.26l.09-.33-1.2.59.71.64-.61.66 1.73 4.47a16.86 16.86 0 0 0 -.16-2.25 14.27 14.27 0 0 0 -.25-1.52z" fill="#9ea1af"/><path d="m.76 15.98-.43.66.6.7.14-.39-.26-.35z" fill="#d8a684"/><path d="m1.11 14.62-.11-.91-.76.43v1.1l-.16.82.21.94.39.45a.29.29 0 0 0 .43 0l-.53-.76.18-.69.32.19v.59h.08a.18.18 0 0 0 .28-.13l.08-.65-.19-.68z" fill="#f2c4a5"/><path d="m1.35 5.54a.88.88 0 0 0 -.29.5l-1 4.63-.06 4.74 1.53-.09.17-4.09.3-1.78-.42-4.12z" fill="#878ba0"/><path d="m5.88 9.31-.38 2.18.32 5.62 2.3-.41s-1.4-6.95-2.24-7.39z" fill="#efefef"/><path d="m6.55 4.53-.75 4.06a18.37 18.37 0 0 0 -.09 1.88v.33 1c0 .67.12 1.88.21 2.44.08.1.08 2.76.08 2.76l2.34-.17c-.23-2.72 0-6.64 0-7.41l.49-4z" fill="#878ba0"/><path d="m6.42 4.34.1.48c-.14.73-.27 1.45-.41 2.18-.1.45-.18.94-.25 1.46a18.71 18.71 0 0 0 -.16 2.25l1.73-4.47-.61-.66.71-.64z" fill="#9ea1af"/><path d="m9.53 16.58-.27.35.15.39.59-.69-.43-.67z" fill="#d8a684"/><path d="m10.11 14.12-.76-.43-.13.91-.22.72-.19.68.09.66a.19.19 0 0 0 .28.13l.08-.05v-.59l.31-.15.18.71-.52.76a.27.27 0 0 0 .42 0l.35-.47.21-.94-.16-.82z" fill="#f2c4a5"/><path d="m9.31 6a.88.88 0 0 0 -.31-.46l-.23-.21-.58 4.07.44 1.81.18 4.09 1.52.09v-4.68z" fill="#878ba0"/><path d="m5.4 13.66a.2.2 0 1 0 0 .4.2.2 0 0 0 0-.4z" fill="#595959"/><path d="m3.61 2.2a.17.17 0 0 0 -.18 0 .14.14 0 0 0 0 .18c0 .15.09.3.14.45a1.88 1.88 0 0 0 .12.3.43.43 0 0 0 .05.12s.13 0 .17.06l.09.07c-.19-.38-.23-.69-.32-1.08a.14.14 0 0 0 -.07-.1z" fill="#e5b28f"/><path d="m6.34.68a2.35 2.35 0 0 1 -.57-.13 2.11 2.11 0 0 0 -.6-.11 2.17 2.17 0 0 0 -1.17.29 1.29 1.29 0 0 0 -.37 1.27v.1c.11.52.15 1 .24 1.48l.19.6.86.5h.6l.79-.54.17-.55a9.3 9.3 0 0 0 .21-1.59c0-.31.19-1.32-.35-1.32z" fill="#edb996"/><path d="m6.72 2.16h-.06a7.19 7.19 0 0 1 -.22 1.27s.1 0 .12 0 .15-.12.19-.24l.12-.36a1.52 1.52 0 0 0 .13-.4.23.23 0 0 0 -.09-.18s-.17-.1-.19-.09z" fill="#e5b28f"/><path d="m5.07 3.4-.17-.13.06.24.37.06.17-.2-.15.08z" fill="#d6a483"/><path d="m5.5 2.7a.44.44 0 0 0 .56 0 .4.4 0 0 0 -.27-.11.38.38 0 0 0 -.29.11z" fill="#fff"/><path d="m5.78 2.56a.12.12 0 0 0 0 .24.12.12 0 1 0 0-.24z" fill="#a0817c"/><path d="m5.48 2.65v.05a.53.53 0 0 1 .59 0c.01-.15-.35-.25-.59-.05z" fill="#7c7c7c"/><path d="m5.78 2.62a.06.06 0 0 0 0 .12.06.06 0 0 0 0-.12z" fill="#734e42"/><path d="m4.57 2.52a.4.4 0 0 0 -.27.11.4.4 0 0 0 .55 0 .35.35 0 0 0 -.28-.11z" fill="#fff"/><path d="m4.58 2.52a.13.13 0 0 0 -.13.13.13.13 0 0 0 .26 0 .13.13 0 0 0 -.13-.13z" fill="#a0817c"/><path d="m4.27 2.67a.55.55 0 0 1 .59 0c-.23-.27-.62-.08-.59 0z" fill="#7c7c7c"/><path d="m4.57 2.58a.06.06 0 0 0 0 .12.06.06 0 0 0 0-.12z" fill="#734e42"/><path d="m5.52 2.24a.83.83 0 0 1 0 .15l.48-.07.39.05-.39-.17z" fill="#6b6b6b"/><path d="m4.85 2.23h-.47l-.38.13h.41l.59.05a.14.14 0 0 0 0-.06.47.47 0 0 1 -.15-.12z" fill="#6b6b6b"/><path d="m4.2.57c-.27-.13-.51.28-.58.48a1.7 1.7 0 0 0 -.09.74c0 .1 0 .55.09.61.29.2.21-.7.21-.78a2.14 2.14 0 0 1 .17-.62v-.1a2.25 2.25 0 0 0 .19-.24c.04-.06.1-.05.01-.09z" fill="#5b5b5b"/><path d="m6.76.87a.38.38 0 0 0 -.09-.1c-.13-.11-.35-.12-.46-.21a1.09 1.09 0 0 1 .38.68 4.65 4.65 0 0 1 -.08.76v.34a.38.38 0 0 1 .08.23 2.22 2.22 0 0 0 .2-.41l.14-.5c-.05-.21-.08-.42-.14-.62a1 1 0 0 0 -.03-.17z" fill="#5b5b5b"/><path d="m6.57.55a.63.63 0 0 0 -.2-.23 2.07 2.07 0 0 0 -1.71-.21s-.25.2-.22.22c-.26-.13-.76.31-.44.4s.33-.1.5-.16a.66.66 0 0 1 .5.12c.53.31 1.23-.33 1.62.12 0 0 0-.08 0-.15a.31.31 0 0 0 -.05-.11z" fill="#6b6b6b"/><path d="m4.72 3.83a.74.74 0 0 0 .44.23.75.75 0 0 0 .6-.22c-.17 0-.35 0-.53 0z" fill="#fff"/><path d="m5.81 4.24c-.08 0-.2.1-.28.08s-.13-.13-.22-.15-.28.07-.41.16a.29.29 0 0 1 -.38 0 1.63 1.63 0 0 1 -.39-.33c0-.07-.27-.31-.26-.4a.8.8 0 0 0 .13.33c0 .06.06.29.11.32l.89.56h.6l.76-.66.16-.63a1.11 1.11 0 0 1 -.27.48 1.57 1.57 0 0 1 -.44.24z" fill="#6b6b6b"/><path d="m6 3.84-.24-.17-.49-.06h-.49l-.24.19v.51s.11.06.13.07.06.09.11.11a.09.09 0 0 0 .13 0s0-.06 0-.09l-.07-.08a.49.49 0 0 1 -.15-.32c0-.16.07-.18.21-.22a1.52 1.52 0 0 1 .6 0c.06 0 .21 0 .25.1s0 .18 0 .23a1.77 1.77 0 0 0 -.12.17.15.15 0 0 0 0 .19c.1.08.25 0 .32-.12s.05 0 .05-.1z" fill="#6b6b6b"/><path d="m6.75 2.29h-.5c-.28 0-.61 0-.76 0h-.06a.07.07 0 0 0 0 0 .78.78 0 0 0 -.21 0 .51.51 0 0 0 -.17 0 0 0 0 0 0 0 0 5.46 5.46 0 0 0 -.82-.05h-.59s-.05 0-.05.06 0 .08.07.09a.5.5 0 0 0 .05.17v.11a.36.36 0 0 0 0 .09.55.55 0 0 0 .35.3.86.86 0 0 0 .3 0 .64.64 0 0 0 .64-.18.7.7 0 0 0 .06-.36.44.44 0 0 1 .3 0 .49.49 0 0 0 .06.34.62.62 0 0 0 .52.31 1 1 0 0 0 .31 0 .52.52 0 0 0 .31-.24.21.21 0 0 0 0-.06 0 0 0 0 0 0 0 1.15 1.15 0 0 0 .12-.37s0 0 0-.08.11-.13.07-.13zm-1.87.52a.51.51 0 0 1 -.13.19.62.62 0 0 1 -.56 0 .44.44 0 0 1 -.28-.24c-.15-.3 0-.36.27-.36s.31 0 .46 0 .19 0 .23.08a.26.26 0 0 1 .01.33zm1.61 0a.44.44 0 0 1 -.28.19.62.62 0 0 1 -.56 0 .54.54 0 0 1 -.14-.16.37.37 0 0 1 0-.15.22.22 0 0 1 0-.13c0-.06.17-.07.23-.08s.31 0 .46 0 .43 0 .29.3z" fill="#263238"/><g fill="#efefef"><path d="m5.07 17.62c0 .24-.09.48-.13.73h-.16a1.87 1.87 0 0 1 .06-.67s.09-.04.23-.06z"/><path d="m5.47 17.59s0 .3 0 .76h-.34c0-.24 0-.48 0-.73z"/></g></svg>